SplineFontDB: 1.0
FontName: DBThaiText-Bold
FullName: DBThaiText Bold
FamilyName: DBThaiText
Weight: Bold
Copyright: Typeface (c) The Monotype Corporation plc. Data (c) The Monotype Corporation plc/Type Solutions Inc. 1990-1992. All Rights Reserved\n\nModified by TLWG
Version: 1.1 : May 12, 2003
ItalicAngle: 0
UnderlinePosition: -477
UnderlineWidth: 205
Ascent: 1638
Descent: 410
NeedsXUIDChange: 1
FSType: 0
PfmFamily: 33
TTFWeight: 700
TTFWidth: 5
Panose: 2 0 8 3 0 0 0 0 0 0
LineGap: 184
VLineGap: 0
ScriptLang: 2
 1 latn 1 dflt 
 1 thai 1 dflt 
LangName: 1033 "" "" "" "PfaEdit : DBThaiTextBold : 13-0-2003" 
Encoding: ThaiWin
UnicodeInterp: none
DisplaySize: -72
AntiAlias: 1
FitToEm: 1
WinInfo: 280 8 2
BeginPrivate: 3
BlueValues 31 [-31 0 726 753 786 805 959 976]
OtherBlues 11 [-260 -260]
ForceBold 4 true
EndPrivate
BeginChars: 293 258
StartChar: .notdef
Encoding: 0 -1 0
Width: 1090
Flags: HW
HStem: -58 144<223 947> 1742 144<77 801>
VStem: 77 146<-58 1742> 801 146<86 1886>
Fore
77 -58 m 1
 77 1886 l 1
 947 1886 l 1
 947 -58 l 1
 77 -58 l 1
223 86 m 1
 801 86 l 1
 801 1742 l 1
 223 1742 l 1
 223 86 l 1
EndSplineSet
EndChar
StartChar: exclam
Encoding: 33 33 3
Width: 408
Flags: HW
HStem: -1 192<120 317> 939 20G<120 317>
VStem: 120 197<-1 191 680 959>
Fore
171 272 m 1
 120 681 l 1
 120 959 l 1
 317 959 l 1
 317 681 l 1
 259 272 l 1
 171 272 l 1
120 191 m 1
 317 191 l 1
 317 -1 l 1
 120 -1 l 1
 120 191 l 1
EndSplineSet
EndChar
StartChar: quotedbl
Encoding: 34 34 4
Width: 621
Flags: HW
HStem: 939 20G<61 258 357 554>
Fore
112 620 m 1
 61 802 l 1
 61 959 l 1
 258 959 l 1
 258 802 l 1
 200 620 l 1
 112 620 l 1
408 620 m 1
 357 802 l 1
 357 959 l 1
 554 959 l 5
 554 802 l 1
 496 620 l 1
 408 620 l 1
EndSplineSet
EndChar
StartChar: numbersign
Encoding: 35 35 5
Width: 689
Flags: HW
HStem: -36 377<-38 178 249 451> 191 150<-38 81 249 353 525 650> 503 148<16 143 309 419 581 685>
DStem: 81 191 221 191 39 -36 178 -36 143 503 282 503 110 341 249 341 221 920 360 920 170 651 309 651 353 191 492 191 309 -36 451 -36 419 503 557 503 384 341 525 341 492 920 631 920 442 653 581 651
Fore
221 920 m 1
 360 920 l 1
 309 651 l 1
 442 653 l 1
 492 920 l 1
 631 920 l 1
 581 651 l 1
 685 651 l 1
 685 503 l 1
 557 503 l 1
 525 341 l 1
 650 341 l 1
 650 191 l 1
 492 191 l 1
 451 -36 l 1
 309 -36 l 1
 353 191 l 1
 221 191 l 1
 178 -36 l 1
 39 -36 l 1
 81 191 l 1
 -38 191 l 1
 -38 341 l 1
 110 341 l 1
 143 503 l 1
 16 503 l 1
 16 651 l 1
 170 651 l 1
 221 920 l 1
282 503 m 1
 249 341 l 1
 384 341 l 1
 419 503 l 1
 282 503 l 1
EndSplineSet
EndChar
StartChar: dollar
Encoding: 36 36 6
Width: 689
Flags: HW
VStem: 281 85<116 378 571 804 939 1012> 477 173<233 277>
Fore
641 663 m 1
 470 663 l 1
 470 705 459 738 435 763 c 1
 410 785 387 799 366 804 c 1
 366 542 l 1
 455 520 525 487 577 445 c 0
 628 404 652 348 650 277 c 0
 650 217 639 169 618 131 c 0
 596 90 571 62 544 45 c 1
 512 22 481 7 449 1 c 1
 366 -20 l 1
 366 -158 l 1
 278 -158 l 1
 281 -23 l 1
 234 -15 l 2
 225 -13 207 -8 179 1 c 0
 151 9 131 17 118 26 c 0
 84 53 65 68 60 72 c 0
 13 122 -11 191 -11 279 c 1
 162 279 l 1
 164 244 171 216 181 195 c 0
 192 172 201 157 210 149 c 0
 222 140 234 133 248 129 c 1
 255 123 266 119 281 116 c 1
 281 410 l 1
 205 425 143 453 93 494 c 0
 39 539 12 597 12 668 c 0
 9 745 33 809 84 860 c 1
 128 906 194 933 281 940 c 1
 281 1012 l 1
 366 1012 l 1
 366 940 l 1
 536 929 627 836 641 663 c 1
281 571 m 1
 281 809 l 1
 213 797 179 754 177 681 c 1
 179 662 183 646 190 633 c 0
 198 617 209 605 222 598 c 0
 238 587 258 578 281 571 c 1
366 378 m 1
 366 121 l 1
 394 133 l 1
 408 138 421 144 433 151 c 0
 444 158 454 168 462 182 c 0
 470 195 475 212 477 233 c 1
 477 309 441 357 366 378 c 1
EndSplineSet
EndChar
StartChar: percent
Encoding: 37 37 7
Width: 1103
Flags: HW
HStem: -21 21G<204 308> -14 129<829 842> 335 132<829 842> 446 132<187.525 218> 798 131<186.756 218>
VStem: -39 131<686 700> 313 132<670.541 700> 588 131<227 236> 938 132<227 236>
DStem: 732 934 834 934 204 -21 308 -21
Fore
308 -21 m 1
 204 -21 l 1
 732 934 l 1
 834 934 l 1
 308 -21 l 1
588 227 m 0
 588 291 611 347 657 395 c 0
 703 443 761 467 829 467 c 0
 893 467 949 443 997 395 c 0
 1046 347 1070 291 1070 227 c 0
 1070 158 1046 101 997 55 c 0
 949 9 893 -14 829 -14 c 0
 761 -14 703 9 657 55 c 0
 611 101 588 158 588 227 c 0
-39 686 m 0
 -39 754 -15 811 32 858 c 0
 80 906 137 929 204 929 c 0
 271 929 327 906 373 858 c 1
 421 810 445 753 445 686 c 0
 445 619 421 562 373 516 c 0
 326 469 270 446 204 446 c 0
 139 446 81 469 32 516 c 0
 -15 561 -39 618 -39 686 c 0
719 227 m 0
 719 199 730 173 752 147 c 1
 774 126 800 115 829 115 c 0
 859 115 885 126 907 147 c 0
 927 170 938 196 938 227 c 0
 938 257 927 282 905 302 c 1
 884 324 859 335 829 335 c 0
 798 335 773 324 752 302 c 0
 730 280 719 255 719 227 c 0
92 686 m 0
 92 658 103 633 125 611 c 0
 145 589 172 578 204 578 c 0
 234 578 260 589 280 611 c 1
 302 631 313 656 313 686 c 0
 313 718 302 745 282 768 c 0
 262 788 236 798 204 798 c 0
 172 798 145 788 125 768 c 1
 103 742 92 715 92 686 c 0
EndSplineSet
EndChar
StartChar: ampersand
Encoding: 38 38 8
Width: 891
Flags: HW
HStem: -26 151<318 336> 0 21G<645 857> 813 148<367 384>
VStem: 15 169<252 278> 115 175<729 766> 443 156<720 751> 637 148<466 493>
DStem: 307 419 445 519 482 201 586 340
Fore
633 493 m 1
 785 493 l 1
 785 446 777 396 760 343 c 0
 745 294 721 250 688 213 c 1
 857 0 l 1
 645 0 l 1
 580 82 l 1
 532 42 496 15 471 3 c 0
 432 -16 386 -26 332 -26 c 4
 248 -28 173 -4 107 47 c 0
 45 95 15 163 15 252 c 1
 20 310 l 1
 27 350 42 386 66 417 c 0
 91 447 117 470 144 484 c 1
 221 530 l 1
 170 588 l 2
 158 602 145 623 133 650 c 0
 121 678 115 704 115 729 c 0
 115 760 122 789 135 817 c 2
 138 822 l 2
 156 866 186 901 228 926 c 0
 270 949 316 961 367 961 c 0
 427 961 477 947 517 919 c 0
 559 891 584 852 593 801 c 1
 599 751 l 1
 599 701 586 658 559 621 c 1
 532 587 494 553 445 519 c 1
 586 340 l 1
 600 351 612 369 621 396 c 0
 632 420 637 444 637 468 c 1
 633 493 l 1
321 674 m 2
 363 623 l 1
 402 645 l 1
 415 657 423 665 427 671 c 0
 435 686 441 702 443 720 c 1
 443 749 438 771 429 787 c 1
 422 804 402 813 367 813 c 0
 323 813 297 797 290 766 c 1
 290 729 300 698 321 674 c 2
482 201 m 1
 307 419 l 1
 217 361 l 1
 195 343 184 315 184 278 c 0
 184 233 204 193 244 157 c 1
 271 136 299 125 328 125 c 0
 373 125 425 151 482 201 c 1
EndSplineSet
EndChar
StartChar: quotesingle
Encoding: 39 39 9
Width: 294
Flags: HW
HStem: 939 20G<61 258>
Fore
112 620 m 1
 61 802 l 1
 61 959 l 1
 258 959 l 1
 258 802 l 1
 200 620 l 1
 112 620 l 1
EndSplineSet
EndChar
StartChar: parenleft
Encoding: 40 40 10
Width: 411
Flags: HW
HStem: 955 20G<241 372>
Fore
241 975 m 1
 372 975 l 1
 321 885 278 791 243 694 c 0
 209 602 192 511 192 419 c 1
 194 361 l 1
 199 252 218 142 252 32 c 1
 284 -82 324 -177 372 -253 c 1
 241 -253 l 1
 148 -88 l 2
 129 -54 111 -14 94 32 c 0
 78 75 64 126 51 184 c 0
 37 239 29 298 27 361 c 1
 27 424 34 484 48 541 c 0
 48 543 48 545 49 546 c 0
 59 601 76 657 99 712 c 0
 120 765 141 808 162 842 c 2
 241 975 l 1
EndSplineSet
EndChar
StartChar: parenright
Encoding: 41 41 11
Width: 413
Flags: HW
HStem: 955 20G<7 136>
Fore
7 975 m 1
 136 975 l 1
 198 880 250 782 294 683 c 0
 335 587 354 480 352 361 c 0
 350 248 331 146 296 54 c 1
 261 -31 208 -133 136 -253 c 1
 7 -253 l 1
 56 -176 97 -81 129 32 c 0
 162 143 180 253 185 361 c 2
 187 414 l 1
 187 461 182 509 173 558 c 0
 167 590 153 639 131 703 c 0
 110 765 92 811 76 842 c 0
 62 875 39 919 7 975 c 1
EndSplineSet
EndChar
StartChar: asterisk
Encoding: 42 42 12
Width: 481
Flags: HW
VStem: 170 102<768 930>
DStem: 216 603 298 676 316 477 399 548
Fore
128 477 m 1
 42 548 l 1
 145 676 l 1
 2 727 l 1
 36 819 l 1
 170 768 l 1
 170 930 l 1
 272 930 l 1
 272 768 l 1
 406 819 l 1
 441 727 l 1
 298 676 l 1
 399 548 l 1
 316 477 l 1
 216 603 l 1
 128 477 l 1
EndSplineSet
EndChar
StartChar: plus
Encoding: 43 43 13
Width: 723
Flags: HW
HStem: 391 157<20 261 419 660> 769 20G<261 419>
VStem: 261 158<150 391 548 789>
Fore
261 789 m 5
 419 789 l 5
 419 548 l 5
 660 548 l 5
 660 391 l 5
 419 391 l 5
 419 150 l 5
 261 150 l 5
 261 391 l 5
 20 391 l 5
 20 548 l 5
 261 548 l 5
 261 789 l 5
EndSplineSet
EndChar
StartChar: comma
Encoding: 44 44 14
Width: 423
Flags: HW
Fore
319 81 m 4
 322 19 300 -33 255 -74 c 4
 211 -115 168 -138 125 -144 c 5
 109 -111 l 5
 141 -94 164 -80 178 -67 c 5
 197 -54 209 -32 213 -0 c 5
 190 -0 166 7 142 21 c 4
 119 34 107 60 105 99 c 4
 105 126 113 150 130 172 c 5
 147 190 169 200 197 200 c 4
 237 200 267 189 288 167 c 4
 309 144 319 116 319 81 c 4
EndSplineSet
EndChar
StartChar: hyphen
Encoding: 45 45 15
Width: 412
Flags: HW
HStem: 286 180<10 369>
Fore
10 466 m 1
 369 466 l 1
 369 286 l 1
 10 286 l 1
 10 466 l 1
EndSplineSet
EndChar
StartChar: period
Encoding: 46 46 16
Width: 309
Flags: HW
HStem: -27 21G<125 156>
Fore
141 -27 m 4
 109 -27 86 -18 70 1 c 4
 53 20 44 43 44 70 c 4
 44 96 53 118 70 137 c 4
 86 156 109 165 141 165 c 4
 171 165 195 156 211 137 c 4
 228 120 236 98 236 70 c 4
 236 43 228 20 211 1 c 4
 195 -18 171 -27 141 -27 c 4
EndSplineSet
EndChar
StartChar: slash
Encoding: 47 47 17
Width: 344
Flags: HW
HStem: -17 21G<-19 65>
DStem: 259 943 340 943 -19 -17 65 -17
Fore
259 943 m 1
 340 943 l 1
 65 -17 l 5
 -19 -17 l 1
 259 943 l 1
EndSplineSet
EndChar
StartChar: zero
Encoding: 48 48 18
Width: 689
Flags: HW
HStem: -30 170<317 335> 787 167<317 335>
VStem: -2 183<464 515> 454 185<464 515>
Fore
317 -30 m 0
 272 -30 230 -22 190 -6 c 0
 149 11 116 33 93 61 c 0
 30 140 -2 274 -2 464 c 0
 -2 654 30 787 93 864 c 0
 116 891 148 914 190 931 c 0
 227 947 269 954 317 954 c 0
 417 954 493 924 544 864 c 1
 607 786 639 653 639 464 c 0
 639 276 607 141 544 61 c 1
 493 1 417 -30 317 -30 c 0
317 140 m 0
 375 140 412 161 429 202 c 1
 445 250 454 338 454 464 c 0
 454 587 445 674 429 725 c 1
 412 767 375 787 317 787 c 0
 290 787 267 782 248 772 c 0
 228 760 215 745 208 725 c 0
 190 679 181 592 181 464 c 0
 181 333 190 246 208 202 c 1
 220 161 256 140 317 140 c 0
EndSplineSet
EndChar
StartChar: one
Encoding: 49 49 19
Width: 697
Flags: HW
HStem: 0 21G<278 463> 646 123<57 88.0705>
VStem: 278 185<0 933>
Fore
463 933 m 1
 463 0 l 5
 278 0 l 1
 278 646 l 1
 57 646 l 1
 57 769 l 1
 93 769 130 773 170 782 c 0
 208 789 238 801 260 817 c 0
 312 854 339 892 341 933 c 1
 463 933 l 1
EndSplineSet
EndChar
StartChar: two
Encoding: 50 50 20
Width: 689
Flags: HW
HStem: -1 166<239 632>
VStem: 12 179<610 642.858> 449 185<615 656>
Fore
632 165 m 1
 632 -1 l 5
 -2 -1 l 1
 3 59 13 116 30 168 c 0
 48 221 85 269 142 311 c 0
 146 314 185 343 259 399 c 2
 261 400 l 1
 262 401 l 1
 290 423 l 2
 343 463 379 493 396 513 c 0
 432 558 449 602 449 646 c 0
 449 662 447 681 442 703 c 0
 438 737 423 761 398 776 c 0
 371 794 344 802 317 802 c 1
 285 798 l 1
 222 784 191 721 191 610 c 1
 12 610 l 1
 12 720 39 806 93 867 c 0
 151 930 233 959 339 955 c 0
 488 948 582 881 619 754 c 0
 630 713 635 667 634 615 c 0
 632 529 557 434 410 330 c 0
 313 262 256 206 239 165 c 1
 632 165 l 1
EndSplineSet
EndChar
StartChar: three
Encoding: 51 51 21
Width: 689
Flags: HW
HStem: -30 148<310 345> 418 124<246 273.6> 809 146<308 326.735>
VStem: 433 175<670 690>
Fore
-2 274 m 1
 173 274 l 1
 176 247 180 224 186 204 c 0
 190 188 199 173 211 160 c 0
 223 147 240 138 259 131 c 0
 291 123 319 118 345 118 c 1
 367 126 384 137 396 149 c 0
 433 184 451 225 451 272 c 0
 451 314 434 350 398 378 c 1
 361 405 310 418 246 418 c 1
 246 542 l 1
 295 542 337 551 373 568 c 0
 406 584 424 611 429 648 c 2
 433 688 l 1
 433 708 429 728 422 749 c 1
 412 766 398 781 380 792 c 0
 359 803 335 809 308 809 c 0
 257 811 222 796 204 762 c 1
 191 734 183 693 181 639 c 1
 12 639 l 1
 12 708 21 764 40 807 c 0
 57 850 96 889 157 924 c 0
 197 947 260 957 347 955 c 0
 419 955 476 936 519 899 c 0
 554 869 578 836 590 800 c 0
 602 762 608 719 608 670 c 1
 604 630 595 600 581 579 c 0
 567 558 541 532 504 500 c 1
 554 470 589 437 608 401 c 1
 631 365 641 313 639 244 c 0
 637 181 609 118 557 56 c 1
 507 -1 425 -30 310 -30 c 4
 266 -30 223 -23 179 -10 c 0
 138 1 100 28 65 72 c 0
 37 106 20 138 14 167 c 1
 6 196 0 232 -2 274 c 1
EndSplineSet
EndChar
StartChar: four
Encoding: 52 52 22
Width: 689
Flags: HW
HStem: 0 21G<363 548> 206 150<122 363 548 646>
VStem: 363 185<0 206 356 933>
DStem: 334 933 363 745 -9 364 122 356
Fore
334 933 m 1
 548 933 l 1
 548 356 l 1
 646 356 l 1
 646 206 l 1
 548 206 l 1
 548 0 l 5
 363 0 l 1
 363 206 l 1
 -9 206 l 1
 -9 364 l 1
 334 933 l 1
363 745 m 1
 122 356 l 1
 363 356 l 1
 363 745 l 1
EndSplineSet
EndChar
StartChar: five
Encoding: 53 53 23
Width: 689
Flags: HW
HStem: -28 156<292 317> 484 148<294 350> 771 164<107 604>
VStem: 452 188<291 325>
DStem: 107 935 220 771 21 417 188 578
Fore
-6 245 m 1
 177 245 l 1
 179 222 184 203 191 187 c 0
 198 169 211 155 230 146 c 0
 252 134 280 128 315 128 c 0
 362 130 397 148 420 183 c 1
 441 218 452 259 452 305 c 0
 452 360 442 401 422 428 c 1
 391 467 348 486 294 484 c 0
 242 484 208 461 191 417 c 1
 21 417 l 1
 107 935 l 1
 604 935 l 1
 604 771 l 1
 220 771 l 1
 188 578 l 1
 223 599 252 613 274 620 c 0
 302 628 327 632 350 632 c 0
 384 632 417 626 449 616 c 0
 512 594 560 555 593 499 c 1
 624 444 640 382 640 314 c 0
 640 242 621 176 586 117 c 0
 558 74 524 41 484 18 c 0
 447 -5 391 -20 317 -28 c 5
 260 -28 215 -22 181 -9 c 0
 151 2 121 20 91 44 c 0
 65 66 42 90 23 117 c 1
 8 146 -0 169 -2 185 c 1
 -6 245 l 1
EndSplineSet
EndChar
StartChar: six
Encoding: 54 54 24
Width: 689
Flags: HW
HStem: 475 141<319 387> 725 21G<453 625> 811 146<327 345>
VStem: 468 173<289 323>
Fore
625 725 m 1
 453 725 l 1
 435 780 399 809 345 811 c 0
 307 811 275 802 250 783 c 1
 225 767 209 747 201 723 c 0
 188 687 181 646 181 597 c 0
 181 580 182 563 185 547 c 1
 213 571 240 588 266 597 c 0
 297 610 338 616 387 616 c 0
 470 616 537 579 588 505 c 0
 623 451 641 388 641 316 c 0
 641 251 631 198 611 156 c 0
 583 93 546 47 502 19 c 0
 454 -11 397 -27 329 -30 c 4
 259 -32 196 -11 139 34 c 1
 85 79 48 133 30 195 c 1
 10 269 0 359 0 466 c 0
 0 561 10 641 30 709 c 1
 54 782 91 841 141 887 c 0
 193 933 259 957 340 957 c 1
 391 954 l 1
 479 943 540 914 574 866 c 1
 606 816 623 769 625 725 c 1
199 392 m 1
 185 365 179 333 179 297 c 0
 179 249 190 209 213 177 c 0
 233 150 265 133 308 126 c 1
 355 126 392 140 417 167 c 1
 451 207 468 255 468 310 c 0
 468 352 459 388 440 420 c 1
 413 457 373 475 319 475 c 1
 291 473 268 465 250 452 c 1
 227 439 210 419 199 392 c 1
EndSplineSet
EndChar
StartChar: seven
Encoding: 55 55 25
Width: 688
Flags: HW
HStem: 0 21G<132 316> 769 164<-3 457>
Fore
-3 933 m 1
 652 933 l 1
 652 789 l 1
 603 732 560 673 521 612 c 0
 484 556 450 493 419 424 c 0
 389 356 366 289 349 223 c 1
 332 150 321 76 316 0 c 5
 132 0 l 1
 143 93 159 173 178 241 c 1
 193 304 215 367 243 429 c 0
 267 484 298 539 333 592 c 1
 365 646 407 705 457 769 c 1
 -3 769 l 1
 -3 933 l 1
EndSplineSet
EndChar
StartChar: eight
Encoding: 56 56 26
Width: 689
Flags: HW
HStem: -30 154<297 308> 436 125<299 319> 816 141<299 336>
VStem: -11 190<257 291> 21 163<689 707> 462 160<689 707>
Fore
601 133 m 1
 577 83 537 42 482 12 c 1
 421 -18 362 -32 305 -30 c 5
 249 -30 193 -14 137 17 c 0
 84 45 45 85 18 135 c 0
 -1 174 -11 219 -11 272 c 0
 -11 380 37 459 132 510 c 1
 102 535 74 562 51 593 c 0
 31 622 21 656 21 697 c 0
 21 741 31 780 51 816 c 1
 74 861 108 895 151 919 c 0
 193 944 242 957 299 957 c 0
 427 957 516 922 565 853 c 0
 604 800 622 747 622 695 c 0
 622 651 610 612 586 579 c 0
 560 545 530 522 495 510 c 1
 544 495 582 467 608 427 c 0
 636 385 650 338 650 286 c 0
 650 228 634 177 601 133 c 1
403 591 m 1
 422 601 437 617 447 639 c 0
 457 660 462 681 462 703 c 0
 462 732 453 756 435 774 c 1
 412 802 378 816 334 816 c 0
 287 818 250 806 222 780 c 1
 196 759 184 731 184 695 c 0
 184 659 196 627 222 597 c 1
 247 573 277 561 310 561 c 0
 354 559 385 569 403 591 c 1
414 167 m 1
 424 177 433 194 440 215 c 0
 447 242 451 265 451 286 c 0
 451 319 443 349 426 376 c 0
 402 414 366 434 319 436 c 0
 273 436 238 421 213 392 c 0
 190 367 179 330 179 281 c 0
 179 238 187 203 204 177 c 1
 237 142 271 124 308 124 c 1
 351 121 387 135 414 167 c 1
EndSplineSet
EndChar
StartChar: nine
Encoding: 57 57 27
Width: 689
Flags: HW
HStem: -30 146<288 310> 303 158<289 310> 804 157<288 303>
VStem: -4 164<625 643> 454 185<498 625>
Fore
7 219 m 1
 188 219 l 1
 188 194 198 171 217 149 c 1
 241 127 264 116 288 116 c 0
 359 116 407 145 431 204 c 0
 449 251 458 294 458 334 c 0
 458 356 455 373 449 385 c 1
 424 354 393 331 354 316 c 0
 335 307 315 303 292 303 c 0
 257 303 233 305 220 308 c 0
 129 325 65 377 28 464 c 0
 7 514 -4 568 -4 625 c 0
 -4 696 10 756 38 804 c 0
 63 848 99 886 146 917 c 0
 188 946 239 961 299 961 c 1
 345 956 l 1
 369 956 397 949 431 935 c 0
 467 918 500 897 528 871 c 0
 560 840 580 809 588 776 c 1
 622 701 639 608 639 498 c 0
 639 424 632 354 619 288 c 1
 599 212 581 159 566 128 c 0
 529 63 487 20 438 1 c 0
 387 -20 337 -30 288 -30 c 4
 198 -30 128 -2 79 54 c 1
 31 110 7 165 7 219 c 1
412 762 m 1
 386 790 350 804 303 804 c 0
 266 804 230 785 195 749 c 1
 172 718 160 677 160 625 c 0
 160 574 175 534 204 504 c 0
 232 476 266 461 308 461 c 0
 350 461 385 477 412 508 c 1
 440 537 454 576 454 625 c 0
 454 656 449 685 440 711 c 0
 433 736 424 753 412 762 c 1
EndSplineSet
EndChar
StartChar: colon
Encoding: 58 58 28
Width: 375
Flags: HW
HStem: -25 185<185 189> 536 182<185 189>
Fore
185 -25 m 4
 156 -25 134 -15 118 4 c 5
 101 21 92 42 92 68 c 4
 92 91 101 113 118 132 c 4
 134 151 156 160 185 160 c 4
 216 160 239 151 255 132 c 5
 272 116 280 94 280 68 c 4
 280 44 272 22 255 4 c 4
 239 -15 216 -25 185 -25 c 4
185 536 m 4
 156 536 134 545 118 563 c 4
 101 584 92 606 92 628 c 4
 92 649 101 669 118 691 c 4
 134 709 156 718 185 718 c 4
 215 718 238 709 255 693 c 5
 272 673 280 651 280 628 c 4
 280 605 272 583 255 563 c 4
 239 545 216 536 185 536 c 4
EndSplineSet
EndChar
StartChar: semicolon
Encoding: 59 59 29
Width: 423
Flags: HW
HStem: 1 200<197 213> 480 205<204 218>
Fore
204 480 m 4
 172 480 147 490 130 511 c 4
 113 532 105 555 105 582 c 4
 105 607 113 631 130 654 c 5
 147 674 172 685 204 685 c 4
 239 685 264 674 280 654 c 4
 297 632 306 608 306 582 c 4
 306 555 297 532 280 511 c 4
 262 490 236 480 204 480 c 4
319 82 m 4
 322 20 300 -32 255 -73 c 4
 211 -114 168 -137 125 -143 c 5
 109 -110 l 5
 141 -93 164 -79 178 -66 c 5
 197 -53 209 -31 213 1 c 5
 190 1 166 8 142 22 c 4
 119 35 107 61 105 100 c 4
 105 127 113 152 130 173 c 5
 147 192 169 201 197 201 c 4
 237 201 267 190 288 168 c 4
 309 146 319 117 319 82 c 4
EndSplineSet
EndChar
StartChar: less
Encoding: 60 60 30
Width: 724
Flags: HW
DStem: 10 391 239 469 653 150 653 321 653 789 653 617 10 548 239 469
Fore
10 391 m 5
 10 548 l 5
 653 789 l 5
 653 617 l 5
 239 469 l 5
 653 321 l 5
 653 150 l 5
 10 391 l 5
EndSplineSet
EndChar
StartChar: equal
Encoding: 61 61 31
Width: 723
Flags: HW
HStem: 230 163<20 660> 549 157<20 660>
Fore
20 706 m 5
 660 706 l 5
 660 549 l 5
 20 549 l 5
 20 706 l 5
20 393 m 5
 660 393 l 5
 660 230 l 5
 20 230 l 5
 20 393 l 5
EndSplineSet
EndChar
StartChar: greater
Encoding: 62 62 32
Width: 724
Flags: HW
DStem: 10 617 10 789 422 469 653 548 422 469 653 391 10 321 10 150
Fore
10 789 m 5
 653 548 l 5
 653 391 l 5
 10 150 l 5
 10 321 l 5
 422 469 l 5
 10 617 l 5
 10 789 l 5
EndSplineSet
EndChar
StartChar: question
Encoding: 63 63 33
Width: 757
Flags: HW
HStem: -2 192<268 465> 806 173<342 376>
VStem: 39 177<632 656.571> 277 160<261 289.376> 492 192<682 687>
Fore
437 261 m 1
 277 261 l 1
 277 328 289 383 313 426 c 1
 343 471 382 511 430 546 c 0
 474 577 494 623 492 682 c 0
 492 721 478 751 450 773 c 0
 425 795 394 806 360 806 c 0
 321 806 287 791 258 761 c 1
 230 730 216 687 216 632 c 1
 39 632 l 1
 39 746 72 839 138 909 c 1
 196 955 266 979 349 979 c 0
 400 979 448 971 490 956 c 0
 533 940 568 919 594 894 c 0
 654 836 684 765 684 682 c 0
 684 628 673 581 651 541 c 0
 645 530 638 519 629 507 c 0
 620 495 609 485 596 477 c 1
 564 451 l 1
 525 421 l 2
 484 390 460 367 452 351 c 0
 442 330 437 300 437 261 c 1
268 -2 m 1
 268 190 l 1
 465 190 l 1
 465 -2 l 5
 268 -2 l 1
EndSplineSet
EndChar
StartChar: at
Encoding: 64 64 34
Width: 1207
Flags: HW
HStem: -173 116<531 603> 85 104<824 858> 598 92<584 602> 880 108<563 622>
VStem: -39 129<326 357> 264 128<309 341> 1055 119<474 500>
Fore
774 679 m 1
 891 679 l 1
 781 281 l 1
 781 260 783 242 787 228 c 1
 790 213 797 201 810 193 c 1
 819 190 829 189 840 189 c 0
 864 189 883 194 898 205 c 1
 924 216 948 234 970 260 c 0
 994 290 1010 314 1017 332 c 1
 1042 387 1055 442 1055 496 c 0
 1055 528 1051 559 1042 589 c 1
 1035 623 1014 661 979 704 c 0
 948 743 910 778 865 807 c 0
 789 856 696 880 586 880 c 0
 555 880 518 877 474 869 c 0
 431 861 382 836 326 794 c 0
 278 758 234 713 195 661 c 0
 125 571 90 466 90 346 c 0
 90 320 96 287 107 246 c 0
 121 203 134 172 144 154 c 0
 162 125 177 104 190 92 c 0
 252 27 336 -18 440 -43 c 0
 479 -52 520 -57 565 -57 c 0
 654 -57 744 -40 836 -8 c 1
 873 -112 l 1
 792 -152 687 -173 558 -173 c 0
 515 -173 479 -171 449 -166 c 0
 392 -155 352 -147 329 -140 c 0
 290 -129 249 -109 206 -80 c 0
 159 -50 116 -12 77 34 c 0
 43 72 15 120 -7 177 c 0
 -28 232 -39 282 -39 326 c 0
 -39 377 -34 425 -25 467 c 1
 -18 509 -4 550 17 591 c 1
 34 631 56 669 83 706 c 0
 125 764 176 817 234 865 c 1
 294 910 361 944 434 966 c 0
 484 981 541 988 604 988 c 0
 716 988 815 964 900 913 c 0
 1046 827 1134 720 1162 591 c 1
 1170 550 1174 513 1174 483 c 0
 1174 416 1161 356 1134 302 c 0
 1090 210 1034 147 966 112 c 0
 928 94 889 85 847 85 c 0
 822 85 794 89 766 96 c 0
 732 105 702 130 677 172 c 1
 630 133 593 109 567 98 c 0
 536 86 508 79 482 79 c 0
 462 79 432 88 392 105 c 0
 356 120 327 143 306 174 c 0
 278 218 264 263 264 309 c 0
 264 326 266 341 269 355 c 0
 287 462 333 545 408 605 c 1
 472 662 537 690 602 690 c 0
 619 690 635 688 648 684 c 0
 704 670 739 642 752 600 c 1
 774 679 l 1
489 187 m 1
 536 187 573 199 600 223 c 1
 633 248 659 286 679 337 c 0
 698 386 708 432 708 476 c 0
 706 536 677 575 620 593 c 1
 597 598 l 1
 576 598 555 592 533 580 c 0
 517 572 495 555 467 529 c 0
 446 507 429 479 417 445 c 0
 400 402 392 368 392 341 c 0
 390 304 399 270 419 240 c 0
 436 211 460 193 489 187 c 1
EndSplineSet
EndChar
StartChar: A
Encoding: 65 65 35
Width: 892
Flags: HW
HStem: -1 21G<-20 181 669 870> 191 164<311 602> 939 20G<313 541>
DStem: 313 959 248 191 -20 -1 181 -1 428 728 541 959 556 355 870 -1 602 191 541 959 669 -1 870 -1
Fore
541 959 m 1
 870 -1 l 1
 669 -1 l 5
 602 191 l 1
 248 191 l 1
 181 -1 l 1
 -20 -1 l 1
 313 959 l 1
 541 959 l 1
428 728 m 1
 311 355 l 1
 556 355 l 1
 428 728 l 1
EndSplineSet
EndChar
StartChar: B
Encoding: 66 66 36
Width: 891
Flags: HW
HStem: -1 164<249 501> 411 164<249 487> 795 164<52 501>
VStem: 52 197<-1 411 -1 795> 606 189<683 707> 628 190<297 309>
Fore
52 -1 m 1
 52 959 l 1
 478 959 l 2
 510 959 551 953 601 941 c 0
 647 928 682 910 707 885 c 1
 735 864 755 843 767 820 c 1
 783 767 l 1
 795 707 l 1
 795 671 788 637 772 606 c 1
 758 570 735 539 703 511 c 1
 733 489 758 460 779 425 c 0
 800 387 813 348 818 308 c 1
 818 252 811 205 795 168 c 0
 778 128 753 93 719 63 c 0
 667 20 589 -1 485 -1 c 6
 52 -1 l 1
249 795 m 1
 249 575 l 1
 473 575 l 2
 517 575 550 585 571 606 c 0
 594 627 606 653 606 684 c 0
 603 758 562 795 482 795 c 2
 249 795 l 1
249 411 m 1
 249 163 l 1
 480 163 l 2
 520 163 555 171 584 186 c 0
 616 203 630 240 628 297 c 0
 628 344 615 374 589 387 c 1
 564 403 529 411 485 411 c 2
 249 411 l 1
EndSplineSet
EndChar
StartChar: C
Encoding: 67 67 37
Width: 892
Flags: HW
HStem: -31 170<415 444> 810 164<415 442>
Fore
656 329 m 1
 848 329 l 1
 848 280 835 231 810 183 c 0
 785 135 755 94 718 62 c 0
 685 36 644 15 594 -0 c 1
 537 -21 484 -31 435 -31 c 4
 332 -33 243 -4 167 57 c 0
 95 118 46 199 22 303 c 1
 9 348 2 404 2 472 c 0
 2 547 10 608 26 655 c 1
 88 868 226 974 442 974 c 0
 544 974 631 949 702 900 c 0
 795 837 843 748 848 634 c 1
 658 634 l 1
 656 658 648 683 634 708 c 0
 617 736 593 760 561 779 c 0
 524 802 476 812 417 810 c 0
 379 810 341 794 301 764 c 1
 265 732 240 697 225 657 c 0
 207 615 197 559 194 490 c 0
 193 462 195 426 201 382 c 1
 204 351 211 320 225 289 c 0
 252 226 294 182 349 155 c 1
 376 144 401 139 426 139 c 0
 448 139 476 142 510 150 c 0
 568 165 605 189 623 222 c 0
 640 255 651 290 656 329 c 1
EndSplineSet
EndChar
StartChar: D
Encoding: 68 68 38
Width: 890
Flags: HW
HStem: -1 164<241 477> 795 164<44 429>
VStem: 44 197<-1 795> 639 200<494 528>
Fore
44 -1 m 1
 44 959 l 1
 491 959 l 2
 528 959 564 952 600 938 c 0
 639 922 675 898 706 867 c 1
 736 839 766 795 797 734 c 1
 825 675 839 604 839 522 c 0
 839 449 830 380 813 314 c 0
 799 261 778 213 751 168 c 0
 717 117 676 76 627 45 c 0
 578 14 528 -1 477 -1 c 6
 44 -1 l 1
241 795 m 1
 241 163 l 1
 398 163 l 2
 497 163 567 206 607 293 c 1
 628 343 639 411 639 496 c 0
 639 588 622 658 590 707 c 0
 567 743 542 766 517 776 c 0
 485 789 453 795 419 795 c 2
 241 795 l 1
EndSplineSet
EndChar
StartChar: E
Encoding: 69 69 39
Width: 823
Flags: HW
HStem: -1 164<248 768> 411 164<248 708> 795 164<51 746>
VStem: 51 197<-1 411 -1 795>
Fore
51 959 m 1
 746 959 l 1
 746 795 l 1
 248 795 l 1
 248 575 l 1
 708 575 l 1
 708 411 l 1
 248 411 l 1
 248 163 l 1
 768 163 l 1
 768 -1 l 1
 51 -1 l 5
 51 959 l 1
EndSplineSet
EndChar
StartChar: F
Encoding: 70 70 40
Width: 754
Flags: HW
HStem: -1 21G<47 244> 411 164<244 665> 795 164<47 721>
VStem: 47 197<-1 411 -1 795>
Fore
47 959 m 1
 721 959 l 1
 721 795 l 1
 244 795 l 1
 244 575 l 1
 665 575 l 1
 665 411 l 1
 244 411 l 1
 244 -1 l 5
 47 -1 l 1
 47 959 l 1
EndSplineSet
EndChar
StartChar: G
Encoding: 71 71 41
Width: 965
Flags: HW
HStem: -5 21G<760 878> 351 165<493 714> 812 162<440 479>
VStem: -2 190<448 498>
Fore
493 351 m 1
 493 516 l 1
 878 516 l 1
 878 -5 l 1
 760 -5 l 1
 736 115 l 1
 708 80 685 57 667 44 c 1
 649 24 618 7 572 -7 c 1
 525 -25 475 -33 422 -31 c 4
 388 -31 352 -24 314 -12 c 1
 293 -9 268 0 239 16 c 1
 217 29 198 43 181 57 c 2
 142 92 l 1
 96 138 61 194 36 261 c 0
 11 326 -2 396 -2 472 c 0
 -2 575 23 669 71 755 c 0
 119 843 186 906 272 942 c 0
 322 963 383 974 455 974 c 0
 516 974 573 967 626 953 c 0
 678 939 725 911 769 870 c 1
 832 807 869 735 878 655 c 1
 698 655 l 1
 681 710 652 749 612 773 c 0
 570 799 520 812 464 812 c 0
 407 812 350 795 294 759 c 1
 261 729 235 687 217 634 c 0
 198 577 188 523 188 470 c 0
 188 401 199 345 221 303 c 0
 275 199 348 141 440 130 c 1
 536 130 609 160 658 220 c 1
 691 263 710 307 714 351 c 1
 493 351 l 1
EndSplineSet
EndChar
StartChar: H
Encoding: 72 72 42
Width: 893
Flags: HW
HStem: -1 21G<35 232 612 811> 434 164<232 612> 939 20G<35 232 612 811>
VStem: 35 197<-1 434 -1 959> 612 199<-1 959>
Fore
35 -1 m 1
 35 959 l 1
 232 959 l 1
 232 598 l 1
 612 598 l 1
 612 959 l 1
 811 959 l 1
 811 -1 l 1
 612 -1 l 1
 612 434 l 1
 232 434 l 1
 232 -1 l 5
 35 -1 l 1
EndSplineSet
EndChar
StartChar: I
Encoding: 73 73 43
Width: 344
Flags: HW
HStem: -1 21G<63 260> 939 20G<63 260>
VStem: 63 197<-1 959>
Fore
260 959 m 1
 260 -1 l 5
 63 -1 l 1
 63 959 l 1
 260 959 l 1
EndSplineSet
EndChar
StartChar: J
Encoding: 74 74 44
Width: 692
Flags: HW
HStem: -30 167<302 318.435> 941 20G<403 600>
VStem: -6 197<241 354> 403 197<225 961>
Fore
403 961 m 1
 600 961 l 1
 600 230 l 2
 600 166 578 109 533 60 c 0
 482 2 411 -28 320 -30 c 4
 238 -32 173 -21 123 5 c 0
 92 22 68 42 50 67 c 0
 29 94 16 122 10 151 c 1
 -1 186 -6 218 -6 246 c 2
 -6 354 l 1
 191 354 l 1
 191 257 l 2
 191 227 198 199 211 175 c 0
 225 147 256 135 302 137 c 0
 336 137 363 149 381 172 c 0
 396 192 403 216 403 243 c 2
 403 961 l 1
EndSplineSet
EndChar
StartChar: K
Encoding: 75 75 45
Width: 888
Flags: HW
HStem: -1 21G<37 234 646 885> 939 20G<37 234 611 845>
VStem: 37 197<-1 306 -1 959>
DStem: 611 959 845 959 234 538 466 542
Fore
37 -1 m 1
 37 959 l 1
 234 959 l 1
 234 538 l 1
 611 959 l 1
 845 959 l 1
 466 542 l 1
 885 -1 l 1
 646 -1 l 1
 336 416 l 1
 234 306 l 1
 234 -1 l 5
 37 -1 l 1
EndSplineSet
EndChar
StartChar: L
Encoding: 76 76 46
Width: 754
Flags: HW
HStem: -1 164<252 712> 939 20G<54 253>
VStem: 54 199<-1 959>
Fore
54 959 m 1
 253 959 l 1
 253 163 l 1
 712 163 l 1
 712 -1 l 5
 54 -1 l 1
 54 959 l 1
EndSplineSet
EndChar
StartChar: M
Encoding: 77 77 47
Width: 1032
Flags: HW
HStem: -1 21G<22 221 392 589 760 959> 939 20G<22 311 670 959>
VStem: 22 199<-1 776> 760 199<-1 959>
Fore
589 -1 m 1
 392 -1 l 1
 221 776 l 1
 221 -1 l 1
 22 -1 l 1
 22 959 l 1
 311 959 l 1
 492 221 l 1
 670 959 l 1
 959 959 l 1
 959 -1 l 5
 760 -1 l 1
 760 776 l 1
 589 -1 l 1
EndSplineSet
EndChar
StartChar: N
Encoding: 78 78 48
Width: 892
Flags: HW
HStem: -1 21G<35 232 620 815> 939 20G<35 230 618 815>
VStem: 35 197<-1 668> 618 197<299 959>
DStem: 232 668 230 959 620 -1 618 299
Fore
35 959 m 1
 230 959 l 1
 618 299 l 1
 618 959 l 1
 815 959 l 1
 815 -1 l 5
 620 -1 l 1
 232 668 l 1
 232 -1 l 1
 35 -1 l 1
 35 959 l 1
EndSplineSet
EndChar
StartChar: O
Encoding: 79 79 49
Width: 963
Flags: HW
HStem: -31 172<457 475> 803 173<457 475>
VStem: -6 190<472 498> 727 190<472 498>
Fore
917 472 m 0
 917 403 904 334 878 263 c 0
 852 190 818 132 776 90 c 1
 701 9 594 -31 457 -31 c 4
 321 -31 213 9 135 90 c 0
 93 132 59 190 33 263 c 0
 7 334 -6 403 -6 472 c 0
 -6 544 7 614 33 682 c 0
 59 754 93 812 135 856 c 1
 214 936 322 976 457 976 c 0
 490 976 529 972 572 965 c 1
 614 955 651 941 683 923 c 1
 715 908 746 886 776 856 c 0
 818 812 852 754 878 682 c 0
 904 614 917 544 917 472 c 0
457 141 m 0
 527 141 585 162 632 205 c 0
 666 236 690 274 705 319 c 0
 720 365 727 416 727 472 c 0
 727 528 720 579 705 624 c 0
 690 670 665 708 632 737 c 0
 584 781 526 803 457 803 c 0
 386 803 327 781 279 737 c 0
 249 711 226 674 210 627 c 0
 192 577 184 525 184 472 c 0
 184 419 192 369 210 322 c 0
 226 271 249 232 279 205 c 0
 326 162 386 141 457 141 c 0
EndSplineSet
EndChar
StartChar: P
Encoding: 80 80 50
Width: 823
Flags: HW
HStem: -1 21G<46 245> 341 165<245 479> 795 164<46 479>
VStem: 46 199<-1 341 -1 795> 587 192<654 688>
Fore
46 -1 m 1
 46 959 l 1
 474 959 l 2
 528 959 581 950 636 931 c 0
 687 913 726 871 754 804 c 0
 771 763 779 715 779 661 c 0
 779 598 771 548 754 513 c 0
 701 398 609 341 479 341 c 2
 245 341 l 1
 245 -1 l 5
 46 -1 l 1
245 795 m 1
 245 506 l 1
 465 506 l 2
 511 506 547 533 574 586 c 1
 580 621 l 1
 585 637 587 653 587 670 c 0
 587 688 585 705 580 721 c 0
 564 771 523 795 456 795 c 2
 245 795 l 1
EndSplineSet
EndChar
StartChar: Q
Encoding: 81 81 51
Width: 962
Flags: HW
HStem: -29 172<459 479> 805 173<459 479>
VStem: -2 188<474 492> 731 190<474 492>
Fore
817 136 m 1
 921 37 l 1
 819 -69 l 1
 709 37 l 1
 635 -7 552 -29 459 -29 c 4
 324 -29 217 12 139 92 c 0
 99 132 65 189 37 263 c 0
 11 332 -2 402 -2 474 c 0
 -2 548 11 619 37 687 c 0
 65 759 99 816 139 858 c 1
 218 938 325 978 459 978 c 0
 525 978 585 968 639 949 c 0
 696 927 742 897 778 858 c 0
 823 811 859 753 885 684 c 0
 909 620 921 550 921 474 c 0
 921 413 912 351 894 291 c 1
 873 229 847 177 817 136 c 1
570 168 m 1
 470 261 l 1
 572 370 l 1
 680 265 l 1
 714 325 731 395 731 474 c 0
 731 526 723 578 706 629 c 0
 691 674 667 710 634 740 c 1
 588 784 530 805 459 805 c 0
 390 805 331 784 283 740 c 0
 253 713 230 675 214 627 c 0
 195 573 186 522 186 474 c 0
 186 428 195 378 214 324 c 0
 230 274 253 235 283 208 c 0
 330 165 389 143 459 143 c 0
 498 143 535 151 570 168 c 1
EndSplineSet
EndChar
StartChar: R
Encoding: 82 82 52
Width: 890
Flags: HW
HStem: -1 21G<47 246 621 833> 378 164<246 496> 795 164<47 528>
VStem: 47 199<-1 378 -1 795> 596 201<89 114> 632 190<670 693>
Fore
47 -1 m 1
 47 959 l 1
 581 959 l 2
 608 959 639 953 674 941 c 1
 703 929 730 912 755 889 c 1
 779 865 795 838 802 807 c 1
 811 769 l 1
 817 730 l 1
 822 693 l 1
 822 664 818 637 811 612 c 0
 799 573 784 544 764 524 c 1
 747 504 719 483 681 462 c 1
 711 443 l 1
 746 420 l 1
 757 410 765 397 771 383 c 1
 779 370 784 352 788 328 c 1
 793 224 l 1
 797 114 l 1
 797 91 800 74 806 63 c 0
 812 53 821 44 833 34 c 1
 833 -1 l 1
 621 -1 l 1
 604 33 596 64 596 89 c 2
 596 281 l 1
 592 305 587 324 579 337 c 1
 565 352 551 363 537 369 c 0
 523 375 503 378 477 378 c 2
 246 378 l 1
 246 -1 l 5
 47 -1 l 1
246 795 m 1
 246 542 l 1
 515 542 l 2
 543 542 570 555 596 580 c 0
 620 604 632 640 632 686 c 0
 632 759 592 795 512 795 c 2
 246 795 l 1
EndSplineSet
EndChar
StartChar: S
Encoding: 83 83 53
Width: 826
Flags: HW
HStem: -31 163<362 405> 821 155<342 393>
VStem: 12 183<688 713> 565 188<669 686.262> 593 192<261 291>
Fore
753 669 m 5
 565 669 l 5
 565 696 558 720 544 742 c 4
 531 765 510 784 480 801 c 5
 449 814 412 821 369 821 c 4
 260 821 202 784 195 710 c 5
 195 682 199 661 206 647 c 5
 217 634 234 624 255 615 c 5
 263 607 281 600 308 594 c 4
 309 594 345 586 417 571 c 4
 448 566 474 560 495 554 c 5
 603 536 679 505 722 461 c 4
 764 417 785 360 785 291 c 4
 785 244 774 196 753 148 c 4
 730 99 700 62 663 39 c 5
 596 -5 496 -29 362 -31 c 4
 333 -31 293 -25 243 -12 c 4
 194 0 155 17 126 39 c 4
 83 69 51 106 31 150 c 4
 9 195 -4 241 -9 287 c 5
 183 287 l 5
 183 249 197 216 225 187 c 4
 261 150 321 132 405 132 c 4
 434 132 464 136 493 145 c 4
 519 151 541 162 559 176 c 4
 581 196 593 224 593 261 c 4
 593 292 583 318 563 337 c 4
 549 353 528 366 502 375 c 4
 476 384 439 393 391 402 c 6
 276 423 l 6
 236 431 206 438 186 446 c 4
 153 456 123 473 95 495 c 4
 69 516 49 545 35 580 c 5
 20 615 12 659 12 713 c 5
 21 792 55 857 113 907 c 5
 171 953 258 976 373 976 c 4
 437 976 495 969 546 956 c 4
 607 941 658 907 698 856 c 4
 735 807 753 745 753 669 c 5
EndSplineSet
EndChar
StartChar: T
Encoding: 84 84 54
Width: 758
Flags: HW
HStem: -1 21G<263 461> 795 164<-28 263 -28 740>
VStem: 263 198<-1 795>
Fore
-28 959 m 1
 740 959 l 1
 740 795 l 1
 461 795 l 1
 461 -1 l 5
 263 -1 l 1
 263 795 l 1
 -28 795 l 1
 -28 959 l 1
EndSplineSet
EndChar
StartChar: U
Encoding: 85 85 55
Width: 892
Flags: HW
HStem: -30 172<411 445> 941 20G<44 243 609 806>
VStem: 44 199<289 961> 609 197<289 961>
Fore
609 961 m 1
 806 961 l 1
 806 299 l 2
 806 160 746 64 625 10 c 0
 565 -17 499 -30 428 -30 c 4
 367 -30 305 -19 243 3 c 1
 110 75 44 174 44 299 c 2
 44 961 l 1
 243 961 l 1
 243 297 l 2
 243 255 256 219 283 188 c 0
 309 157 356 142 424 142 c 0
 492 142 541 157 570 188 c 1
 596 220 609 257 609 297 c 2
 609 961 l 1
EndSplineSet
EndChar
StartChar: V
Encoding: 86 86 56
Width: 825
Flags: HW
HStem: -1 21G<305 475> 939 20G<-18 178 602 801>
Fore
602 959 m 1
 801 959 l 1
 475 -1 l 5
 305 -1 l 1
 -18 959 l 1
 178 959 l 1
 391 235 l 1
 602 959 l 1
EndSplineSet
EndChar
StartChar: W
Encoding: 87 87 57
Width: 1170
Flags: HW
HStem: -1 21G<213 392 708 887> 939 20G<-56 156 447 655 947 1155>
Fore
-56 959 m 1
 156 959 l 1
 304 239 l 1
 447 959 l 1
 655 959 l 1
 799 230 l 1
 947 959 l 1
 1155 959 l 1
 887 -1 l 1
 708 -1 l 1
 549 730 l 1
 392 -1 l 5
 213 -1 l 1
 -56 959 l 1
EndSplineSet
EndChar
StartChar: X
Encoding: 88 88 58
Width: 825
Flags: HW
HStem: -1 21G<-21 210 576 808> 939 20G<-7 225 569 801>
Fore
-7 959 m 1
 225 959 l 1
 393 648 l 1
 569 959 l 1
 801 959 l 1
 505 489 l 1
 808 -1 l 5
 576 -1 l 1
 393 325 l 1
 210 -1 l 1
 -21 -1 l 1
 282 482 l 1
 -7 959 l 1
EndSplineSet
EndChar
StartChar: Y
Encoding: 89 89 59
Width: 825
Flags: HW
HStem: -1 21G<300 497> 939 20G<-16 203 583 805>
VStem: 300 197<-1 355>
Fore
583 959 m 1
 805 959 l 1
 497 355 l 1
 497 -1 l 5
 300 -1 l 1
 300 355 l 1
 -16 959 l 1
 203 959 l 1
 400 545 l 1
 583 959 l 1
EndSplineSet
EndChar
StartChar: Z
Encoding: 90 90 60
Width: 758
Flags: HW
HStem: -1 164<225 716> 792 167<-7 484>
DStem: 484 792 716 795 -7 163 225 163
Fore
-7 959 m 1
 716 959 l 1
 716 795 l 1
 225 163 l 1
 716 163 l 1
 716 -1 l 5
 -7 -1 l 1
 -7 163 l 1
 484 792 l 1
 -7 795 l 1
 -7 959 l 1
EndSplineSet
EndChar
StartChar: bracketleft
Encoding: 91 91 61
Width: 408
Flags: HW
HStem: -253 137<231 376> 842 133<60 376>
VStem: 60 171<-253 842>
Fore
376 842 m 1
 231 842 l 1
 231 -116 l 1
 376 -116 l 1
 376 -253 l 1
 60 -253 l 1
 60 975 l 1
 376 975 l 1
 376 842 l 1
EndSplineSet
EndChar
StartChar: backslash
Encoding: 92 92 62
Width: 344
Flags: HW
HStem: -26 21G<262 359>
DStem: -37 934 63 934 262 -26 359 -26
Fore
-37 934 m 1
 63 934 l 1
 359 -26 l 1
 262 -26 l 1
 -37 934 l 1
EndSplineSet
EndChar
StartChar: bracketright
Encoding: 93 93 63
Width: 416
Flags: HW
HStem: -253 137<2 322> 842 133<2 149>
VStem: 149 173<-116 975>
Fore
2 842 m 1
 2 975 l 1
 322 975 l 1
 322 -253 l 1
 2 -253 l 1
 2 -116 l 1
 149 -116 l 1
 149 842 l 1
 2 842 l 1
EndSplineSet
EndChar
StartChar: asciicircum
Encoding: 94 94 64
Width: 723
Flags: HW
DStem: 256 897 340 731 37 337 185 337 340 731 419 897 495 337 643 337
Fore
37 337 m 1
 256 897 l 1
 419 897 l 1
 643 337 l 1
 495 337 l 1
 340 731 l 1
 185 337 l 1
 37 337 l 1
EndSplineSet
EndChar
StartChar: underscore
Encoding: 95 95 65
Width: 689
Flags: HW
HStem: -184 92<-73 720>
Fore
720 -92 m 1
 720 -184 l 1
 -73 -184 l 1
 -73 -92 l 1
 720 -92 l 1
EndSplineSet
EndChar
StartChar: grave
Encoding: 96 96 66
Width: 535
Flags: HW
HStem: 776 183<58 468>
Fore
468 776 m 5
 310 776 l 1
 58 959 l 1
 320 959 l 1
 468 776 l 5
EndSplineSet
EndChar
StartChar: a
Encoding: 97 97 67
Width: 689
Flags: HW
HStem: -31 153<179 303> -1 21G<453 648> 591 132<310 340.629>
VStem: -7 183<189 209> 433 173<268 499 499 527>
Fore
648 -1 m 1
 453 -1 l 1
 440 17 433 41 433 70 c 1
 403 41 371 18 338 1 c 0
 296 -20 243 -31 179 -31 c 1
 53 -16 -9 57 -7 189 c 0
 -7 244 10 293 44 337 c 0
 73 375 125 401 201 414 c 1
 259 416 321 427 387 445 c 1
 417 461 433 488 433 527 c 0
 433 549 423 565 402 575 c 0
 384 586 353 591 310 591 c 0
 264 589 232 578 215 557 c 1
 201 538 192 511 190 476 c 1
 16 476 l 1
 18 641 116 723 310 723 c 0
 380 723 436 715 479 697 c 0
 564 667 606 600 606 499 c 2
 606 108 l 2
 606 78 620 51 648 25 c 1
 648 -1 l 1
433 295 m 2
 433 335 l 1
 410 324 378 315 336 306 c 1
 261 297 l 1
 236 293 216 283 201 268 c 0
 185 250 176 230 176 207 c 1
 181 182 l 1
 186 170 192 159 199 149 c 0
 206 141 218 134 236 129 c 0
 252 125 274 122 303 122 c 1
 354 129 388 148 405 180 c 1
 424 209 433 247 433 295 c 2
EndSplineSet
EndChar
StartChar: b
Encoding: 98 98 68
Width: 756
Flags: HW
HStem: -31 158<369 396> 0 21G<31 213> 565 159<369 417> 940 20G<31 213>
VStem: 31 182<0 71 0 370 0 960> 524 185<336 357>
Fore
31 0 m 5
 31 960 l 5
 213 960 l 5
 213 615 l 5
 248 688 317 724 417 724 c 4
 537 722 619 668 663 565 c 4
 694 489 709 419 709 355 c 4
 709 291 691 218 656 134 c 5
 635 90 613 59 590 39 c 5
 571 16 543 -1 508 -14 c 4
 478 -25 440 -31 396 -31 c 4
 324 -29 263 5 213 71 c 5
 213 0 l 5
 31 0 l 5
369 565 m 4
 315 565 274 537 246 483 c 4
 224 440 213 394 213 344 c 4
 213 294 224 248 246 205 c 4
 274 153 315 127 369 127 c 4
 426 127 467 153 491 205 c 4
 513 250 524 297 524 344 c 4
 524 392 513 438 491 483 c 4
 477 513 460 534 438 545 c 4
 414 558 391 565 369 565 c 4
EndSplineSet
EndChar
StartChar: c
Encoding: 99 99 69
Width: 689
Flags: HW
HStem: -31 153<335 355.015> 564 159<333.063 354.218>
VStem: 2 190<320 344>
Fore
645 445 m 5
 470 445 l 5
 457 496 441 528 421 540 c 4
 398 556 369 564 333 564 c 4
 273 566 230 532 205 460 c 5
 201 436 l 5
 196 395 l 5
 192 339 l 5
 192 304 195 274 201 251 c 4
 215 199 232 165 252 149 c 4
 274 134 301 125 335 122 c 4
 369 122 396 130 419 145 c 4
 441 161 458 196 470 249 c 5
 645 249 l 5
 645 207 632 166 605 127 c 4
 580 86 555 55 532 34 c 4
 504 11 476 -5 448 -14 c 4
 411 -26 370 -31 324 -31 c 4
 257 -34 200 -19 152 13 c 4
 108 42 74 79 51 125 c 4
 25 173 11 213 9 247 c 5
 4 273 2 305 2 344 c 4
 2 418 13 477 35 522 c 5
 59 579 86 623 117 654 c 4
 149 685 180 703 210 710 c 4
 251 719 292 723 333 723 c 4
 411 725 473 712 521 684 c 4
 558 661 588 624 611 575 c 4
 634 523 645 479 645 445 c 5
EndSplineSet
EndChar
StartChar: d
Encoding: 100 100 70
Width: 761
Flags: HW
HStem: -30 158<306 336> -4 21G<489 674> 568 157<285 336> 941 20G<489 674>
VStem: -4 185<321 347> 489 185<-4 961>
Fore
674 961 m 1
 674 -4 l 1
 489 -4 l 1
 489 72 l 1
 467 39 439 15 405 -2 c 0
 364 -21 331 -30 306 -30 c 4
 269 -32 233 -27 197 -13 c 0
 164 -2 135 16 111 40 c 0
 88 63 67 95 49 135 c 0
 14 212 -4 278 -4 334 c 0
 -6 414 8 491 40 563 c 0
 87 669 169 723 285 725 c 0
 390 725 458 689 489 616 c 1
 489 961 l 1
 674 961 l 1
336 568 m 0
 283 568 242 541 211 486 c 1
 191 442 181 396 181 347 c 0
 181 300 191 253 211 206 c 1
 241 154 283 128 336 128 c 0
 389 128 430 154 458 206 c 1
 479 250 489 297 489 347 c 0
 489 402 479 449 458 486 c 0
 430 541 390 568 336 568 c 0
EndSplineSet
EndChar
StartChar: e
Encoding: 101 101 71
Width: 689
Flags: HW
HStem: -31 150<315 352> 297 125<173 648> 571 153<317 342>
VStem: -11 184<278 297>
Fore
648 297 m 5
 173 297 l 5
 173 247 181 209 197 184 c 4
 214 160 234 143 259 134 c 4
 287 124 318 119 352 119 c 5
 380 127 405 137 424 149 c 5
 442 165 454 182 458 200 c 5
 641 200 l 5
 629 154 606 114 572 80 c 4
 536 44 495 17 449 -1 c 4
 402 -21 357 -31 315 -31 c 4
 257 -31 195 -14 130 22 c 5
 96 47 69 72 51 99 c 5
 28 129 12 160 3 193 c 5
 -4 227 -9 256 -11 279 c 5
 -11 344 -9 395 -4 432 c 4
 9 515 35 580 74 624 c 4
 110 667 150 695 193 708 c 4
 229 718 271 724 317 724 c 4
 385 724 441 710 484 684 c 5
 527 660 562 627 588 584 c 4
 611 548 625 517 630 490 c 4
 638 458 643 427 646 397 c 5
 648 297 l 5
173 422 m 5
 458 422 l 5
 458 457 449 491 431 522 c 4
 410 555 376 571 329 571 c 4
 279 573 240 558 213 527 c 4
 186 494 173 459 173 422 c 5
EndSplineSet
EndChar
StartChar: f
Encoding: 102 102 72
Width: 412
Flags: HW
HStem: -1 21G<93 278> 575 122<-7 93 278 388> 820 139<267 382>
VStem: 93 185<-1 575 697 783>
Fore
-7 575 m 1
 -7 697 l 1
 93 697 l 1
 93 781 l 2
 93 836 107 881 137 913 c 1
 168 944 211 959 267 959 c 2
 382 959 l 1
 382 820 l 1
 318 820 l 2
 291 820 278 804 278 772 c 2
 278 697 l 1
 388 697 l 1
 388 575 l 1
 278 575 l 1
 278 -1 l 5
 93 -1 l 1
 93 575 l 1
 -7 575 l 1
EndSplineSet
EndChar
StartChar: g
Encoding: 103 103 73
Width: 761
Flags: HW
HStem: -289 127<315 338.431> -31 148<303 334> 558 166<306 334>
VStem: 1 166<318 352> 14 192<-95.1873 -84.0625> 498 171<318 713>
Fore
495 713 m 5
 669 713 l 5
 669 -18 l 6
 669 -62 659 -104 637 -144 c 4
 616 -181 589 -211 555 -234 c 4
 497 -273 402 -292 268 -289 c 4
 201 -287 141 -264 89 -220 c 4
 39 -180 14 -134 14 -84 c 5
 206 -84 l 5
 206 -124 242 -150 315 -162 c 5
 367 -162 410 -148 445 -120 c 4
 479 -93 495 -62 495 -26 c 6
 495 75 l 5
 481 58 463 39 440 18 c 4
 425 3 406 -8 382 -16 c 5
 362 -26 336 -31 303 -31 c 4
 253 -31 215 -25 190 -14 c 4
 162 -2 132 18 100 49 c 4
 78 70 60 97 47 128 c 5
 30 159 19 192 12 225 c 4
 4 263 1 299 1 333 c 4
 1 394 10 451 28 504 c 4
 47 561 74 606 107 638 c 5
 159 696 226 724 306 724 c 4
 333 724 357 721 376 715 c 4
 385 712 400 703 422 689 c 5
 454 658 l 6
 460 651 474 634 495 607 c 5
 495 713 l 5
334 558 m 4
 278 558 234 532 202 479 c 5
 178 429 167 382 167 338 c 4
 167 291 178 245 202 199 c 4
 230 145 274 117 334 117 c 4
 393 117 437 145 466 199 c 4
 487 240 498 287 498 338 c 4
 498 386 487 433 466 479 c 5
 434 532 390 558 334 558 c 4
EndSplineSet
EndChar
StartChar: h
Encoding: 104 104 74
Width: 758
Flags: HW
HStem: -1 21G<42 227 482 667> 561 162<391 433> 939 20G<42 213>
VStem: 42 171<-1 959> 42 185<-1 432> 482 185<-1 520>
Fore
213 959 m 1
 213 619 l 1
 260 688 333 723 433 723 c 0
 496 723 551 707 597 674 c 0
 644 641 667 590 667 520 c 2
 667 -1 l 5
 482 -1 l 1
 482 450 l 2
 482 474 476 499 466 524 c 1
 453 543 428 555 391 561 c 1
 345 561 306 550 276 526 c 0
 244 501 227 464 227 416 c 2
 227 -1 l 1
 42 -1 l 1
 42 959 l 1
 213 959 l 1
EndSplineSet
EndChar
StartChar: i
Encoding: 105 105 75
Width: 344
Flags: HW
HStem: -1 21G<67 252> 795 164<67 252>
VStem: 67 185<-1 712 795 959>
Fore
67 795 m 1
 67 959 l 1
 252 959 l 1
 252 795 l 1
 67 795 l 1
67 -1 m 1
 67 712 l 1
 252 712 l 5
 252 -1 l 1
 67 -1 l 1
EndSplineSet
EndChar
StartChar: j
Encoding: 106 106 76
Width: 348
Flags: HW
HStem: -290 153<-12 18.588> 796 164<77 260>
VStem: 77 183<-99 712 796 960>
Fore
77 796 m 5
 77 960 l 5
 260 960 l 5
 260 796 l 5
 77 796 l 5
77 -86 m 6
 77 712 l 5
 260 712 l 5
 260 -135 l 6
 260 -158 255 -178 245 -197 c 4
 235 -221 223 -238 209 -250 c 5
 192 -267 174 -276 153 -279 c 4
 104 -286 49 -290 -12 -290 c 5
 -12 -137 l 5
 22 -137 46 -134 58 -128 c 5
 71 -120 77 -106 77 -86 c 6
EndSplineSet
EndChar
StartChar: k
Encoding: 107 107 77
Width: 685
Flags: HW
HStem: -1 21G<33 215 458 676> 939 20G<33 215>
VStem: 33 182<-1 221 -1 959>
Fore
33 959 m 1
 215 959 l 1
 215 434 l 1
 449 712 l 1
 660 712 l 1
 419 441 l 1
 676 -1 l 1
 458 -1 l 1
 292 304 l 1
 215 221 l 1
 215 -1 l 5
 33 -1 l 1
 33 959 l 1
EndSplineSet
EndChar
StartChar: l
Encoding: 108 108 78
Width: 344
Flags: HW
HStem: -1 21G<67 252> 939 20G<67 252>
VStem: 67 185<-1 959>
Fore
67 959 m 1
 252 959 l 1
 252 -1 l 5
 67 -1 l 1
 67 959 l 1
EndSplineSet
EndChar
StartChar: m
Encoding: 109 109 79
Width: 1103
Flags: HW
HStem: -1 21G<12 194 423 606 834 1019> 566 162<741 783>
VStem: 12 182<-1 448 -1 712> 423 183<-1 448> 834 185<-1 496>
Fore
194 -1 m 5
 12 -1 l 5
 12 712 l 5
 194 712 l 5
 194 606 l 5
 224 648 255 678 287 695 c 5
 317 714 360 723 417 723 c 5
 460 719 492 709 512 695 c 4
 533 679 558 653 586 619 c 5
 608 653 635 680 666 701 c 5
 697 719 736 728 783 728 c 5
 836 723 l 5
 958 708 1019 631 1019 494 c 6
 1019 -1 l 5
 834 -1 l 5
 834 489 l 6
 834 534 803 560 741 566 c 5
 698 566 665 552 641 525 c 4
 618 494 606 465 606 436 c 6
 606 -1 l 5
 423 -1 l 5
 423 489 l 5
 412 538 378 564 322 566 c 4
 287 566 257 555 231 531 c 5
 206 511 194 479 194 436 c 6
 194 -1 l 5
EndSplineSet
EndChar
StartChar: n
Encoding: 110 110 80
Width: 758
Flags: HW
HStem: -1 21G<37 220 488 673> 576 148<354 398>
VStem: 37 183<-1 464 -1 712> 488 185<-1 478>
Fore
37 -1 m 5
 37 712 l 5
 220 712 l 5
 220 606 l 5
 240 645 265 674 296 693 c 4
 327 713 361 724 398 724 c 4
 582 724 673 642 673 478 c 6
 673 -1 l 5
 488 -1 l 5
 488 437 l 6
 488 481 481 515 466 538 c 4
 449 563 412 576 354 576 c 5
 306 569 272 554 252 532 c 4
 231 508 220 483 220 455 c 6
 220 -1 l 5
 37 -1 l 5
EndSplineSet
EndChar
StartChar: o
Encoding: 111 111 81
Width: 758
Flags: HW
HStem: -31 160<352 370> 569 157<352 370>
VStem: 1 185<349 370> 519 185<349 370>
Fore
352 -31 m 4
 252 -31 170 -1 104 58 c 4
 73 87 48 130 29 185 c 4
 10 242 1 296 1 349 c 4
 1 409 10 464 29 516 c 5
 45 571 70 612 104 641 c 5
 166 698 249 726 352 726 c 4
 454 726 535 698 597 641 c 4
 633 608 660 566 679 516 c 5
 696 461 704 405 704 349 c 4
 704 296 696 241 679 185 c 4
 661 135 634 92 597 58 c 4
 534 -1 452 -31 352 -31 c 4
352 569 m 4
 294 569 250 543 221 490 c 4
 198 447 186 400 186 349 c 4
 186 300 198 254 221 210 c 4
 250 157 294 129 352 129 c 4
 407 129 451 157 484 210 c 5
 507 261 519 307 519 349 c 4
 519 402 507 449 484 490 c 4
 455 543 411 569 352 569 c 4
EndSplineSet
EndChar
StartChar: p
Encoding: 112 112 82
Width: 756
Flags: HW
HStem: -31 154<369 405> 563 162<369 401>
VStem: 29 182<-289 75 -289 352 -289 713> 522 185<318 352>
Fore
29 713 m 5
 211 713 l 5
 211 607 l 5
 248 650 l 6
 259 663 272 676 288 689 c 4
 301 700 317 708 334 715 c 4
 350 721 372 725 401 725 c 4
 482 725 549 696 602 638 c 4
 635 604 661 560 679 507 c 4
 698 449 707 391 707 333 c 4
 707 281 698 227 681 174 c 4
 665 123 641 81 610 49 c 4
 580 19 550 -2 519 -14 c 4
 494 -25 456 -31 405 -31 c 4
 371 -31 345 -26 325 -16 c 5
 305 -10 287 1 270 16 c 4
 259 23 240 43 211 75 c 5
 211 -289 l 5
 29 -289 l 5
 29 713 l 5
369 563 m 4
 315 563 272 536 241 481 c 5
 221 430 211 384 211 342 c 4
 211 301 221 255 241 203 c 5
 272 150 315 123 369 123 c 4
 421 123 462 150 491 203 c 5
 512 252 522 298 522 342 c 4
 522 387 512 433 491 481 c 5
 461 536 420 563 369 563 c 4
EndSplineSet
EndChar
StartChar: q
Encoding: 113 113 83
Width: 761
Flags: HW
HStem: -31 141<297 334> 558 166<299 334>
VStem: -6 185<318 352> 489 183<-289 711>
Fore
672 711 m 5
 672 -289 l 5
 489 -289 l 5
 489 75 l 5
 475 58 456 39 434 18 c 4
 419 3 399 -8 376 -16 c 5
 356 -26 329 -31 297 -31 c 4
 245 -31 206 -25 182 -14 c 4
 148 0 118 21 91 49 c 4
 60 79 36 121 19 174 c 4
 2 227 -6 281 -6 333 c 4
 -6 394 3 451 21 504 c 4
 41 562 67 607 98 638 c 4
 121 663 148 684 182 702 c 4
 209 717 249 724 299 724 c 4
 353 722 392 711 418 692 c 5
 445 673 469 645 489 607 c 5
 489 711 l 5
 672 711 l 5
334 558 m 4
 281 558 240 531 211 477 c 5
 190 431 179 384 179 336 c 4
 179 285 190 237 211 192 c 4
 237 138 278 110 334 110 c 4
 388 110 428 138 456 192 c 4
 478 233 489 281 489 336 c 4
 489 391 478 438 456 477 c 5
 428 531 388 558 334 558 c 4
EndSplineSet
EndChar
StartChar: r
Encoding: 114 114 84
Width: 478
Flags: HW
HStem: -1 21G<51 234> 541 183<389 453>
VStem: 51 183<-1 402 -1 712>
Fore
51 -1 m 5
 51 712 l 5
 234 712 l 5
 234 576 l 5
 244 600 254 620 263 633 c 4
 275 648 295 666 323 686 c 4
 356 711 400 724 453 724 c 5
 453 536 l 5
 389 541 l 5
 347 541 313 531 289 511 c 4
 261 490 243 454 234 402 c 5
 234 -1 l 5
 51 -1 l 5
EndSplineSet
EndChar
StartChar: s
Encoding: 115 115 85
Width: 689
Flags: HW
HStem: -31 139<310 338> 584 139<297 317>
VStem: 23 179<483 513> 447 179<483 503.345> 451 192<182 222>
Fore
-4 209 m 5
 179 209 l 5
 186 184 197 165 213 152 c 4
 226 139 242 129 261 122 c 4
 288 112 313 108 338 108 c 4
 410 106 448 130 451 182 c 4
 451 195 447 208 440 222 c 4
 433 233 421 240 405 242 c 5
 177 309 l 6
 116 326 76 350 56 381 c 4
 34 414 23 448 23 483 c 4
 23 560 52 622 109 670 c 5
 153 706 216 723 299 723 c 4
 391 725 464 709 519 673 c 4
 563 644 592 615 606 584 c 4
 619 554 626 520 626 483 c 5
 447 483 l 5
 447 508 443 528 435 540 c 5
 425 554 406 565 378 573 c 4
 351 581 329 584 310 584 c 4
 279 584 252 578 230 564 c 5
 211 555 202 538 202 513 c 4
 202 489 215 474 243 467 c 6
 509 395 l 6
 531 389 552 377 574 360 c 4
 596 342 614 322 626 300 c 4
 638 273 643 247 643 222 c 4
 643 177 632 133 608 89 c 4
 583 45 543 13 488 -8 c 4
 472 -13 444 -18 405 -24 c 4
 373 -29 342 -31 310 -31 c 4
 247 -29 194 -20 153 -3 c 5
 53 41 0 112 -4 209 c 5
EndSplineSet
EndChar
StartChar: t
Encoding: 116 116 86
Width: 413
Flags: HW
HStem: -26 144<281 301> 581 122<-6 85 270 372>
VStem: 85 185<115 581 703 898>
Fore
-6 703 m 1
 85 703 l 1
 85 898 l 1
 270 898 l 1
 270 703 l 1
 372 703 l 1
 372 581 l 1
 270 581 l 1
 270 181 l 2
 270 138 280 118 301 118 c 2
 369 115 l 1
 369 -9 l 1
 336 -20 306 -26 281 -26 c 4
 248 -28 220 -25 197 -16 c 1
 133 2 96 46 85 115 c 1
 85 581 l 1
 -6 581 l 1
 -6 703 l 1
EndSplineSet
EndChar
StartChar: u
Encoding: 117 117 87
Width: 759
Flags: HW
HStem: 0 21G<482 667>
VStem: 31 182<218 713> 482 185<0 713>
Fore
667 713 m 5
 667 0 l 5
 482 0 l 5
 482 88 l 5
 454 44 428 16 405 2 c 4
 386 -11 353 -22 306 -31 c 5
 254 -29 211 -23 177 -14 c 4
 139 -5 106 18 80 55 c 5
 48 95 31 149 31 218 c 6
 31 713 l 5
 213 713 l 5
 213 271 l 6
 213 227 221 194 237 171 c 4
 252 147 289 134 348 134 c 5
 398 141 432 155 450 176 c 5
 471 199 482 225 482 252 c 6
 482 713 l 5
 667 713 l 5
EndSplineSet
EndChar
StartChar: v
Encoding: 118 118 88
Width: 689
Flags: HW
HStem: -1 21G<222 417>
Fore
-24 712 m 5
 171 712 l 5
 319 189 l 5
 470 712 l 5
 665 712 l 5
 417 -1 l 5
 222 -1 l 5
 -24 712 l 5
EndSplineSet
EndChar
StartChar: w
Encoding: 119 119 89
Width: 964
Flags: HW
HStem: -1 21G<147 337 562 752>
DStem: 354 712 451 501 249 211 337 -1 451 501 546 712 562 -1 648 211
Fore
-52 712 m 5
 138 712 l 5
 249 211 l 5
 354 712 l 5
 546 712 l 5
 648 211 l 5
 759 712 l 5
 951 712 l 5
 752 -1 l 5
 562 -1 l 5
 451 501 l 5
 337 -1 l 5
 147 -1 l 5
 -52 712 l 5
EndSplineSet
EndChar
StartChar: x
Encoding: 120 120 90
Width: 689
Flags: HW
HStem: -1 21G<-21 199 442 662>
Fore
-13 712 m 5
 208 712 l 5
 324 496 l 5
 442 712 l 5
 660 712 l 5
 428 355 l 5
 662 -1 l 5
 442 -1 l 5
 324 209 l 5
 199 -1 l 5
 -21 -1 l 5
 213 355 l 5
 -13 712 l 5
EndSplineSet
EndChar
StartChar: y
Encoding: 121 121 91
Width: 689
Flags: HW
HStem: -291 151<69 103.269>
Fore
-30 712 m 5
 173 712 l 5
 329 193 l 5
 477 712 l 5
 667 712 l 5
 363 -149 l 5
 356 -178 339 -208 310 -240 c 4
 293 -259 258 -273 206 -279 c 4
 152 -287 106 -291 69 -291 c 5
 69 -140 l 5
 126 -140 164 -134 183 -121 c 5
 213 -105 228 -79 228 -43 c 4
 228 -26 225 -12 220 -1 c 5
 -30 712 l 5
EndSplineSet
EndChar
StartChar: z
Encoding: 122 122 92
Width: 619
Flags: HW
HStem: -1 150<219 579> 562 150<16 343>
DStem: 343 562 570 562 -9 149 219 149
Fore
16 712 m 5
 570 712 l 5
 570 562 l 5
 219 149 l 5
 579 149 l 5
 579 -1 l 5
 -9 -1 l 5
 -9 149 l 5
 343 562 l 5
 16 562 l 5
 16 712 l 5
EndSplineSet
EndChar
StartChar: braceleft
Encoding: 123 123 93
Width: 483
Flags: HW
HStem: -253 130<326.304 390> 306 123<22 45.0328> 845 130<278 390>
VStem: 130 150<-72 244 482 796>
Fore
22 306 m 1
 22 429 l 1
 94 429 130 450 130 491 c 2
 130 794 l 2
 130 850 147 894 181 926 c 0
 216 958 248 975 278 975 c 2
 390 975 l 1
 390 845 l 1
 342 845 l 2
 314 845 297 839 291 829 c 0
 284 819 280 801 280 776 c 2
 280 495 l 2
 280 424 239 381 156 366 c 1
 187 362 217 351 244 334 c 1
 269 314 280 278 280 227 c 2
 280 -53 l 2
 280 -74 285 -91 293 -103 c 0
 300 -116 316 -123 342 -123 c 2
 390 -123 l 1
 390 -253 l 1
 278 -253 l 2
 250 -253 217 -236 181 -204 c 0
 147 -172 130 -128 130 -72 c 2
 130 229 l 2
 130 280 94 306 22 306 c 1
EndSplineSet
EndChar
StartChar: bar
Encoding: 124 124 94
Width: 346
Flags: HW
HStem: 955 20G<111 215>
VStem: 111 104<-253 975>
Fore
215 975 m 1
 215 -253 l 1
 111 -253 l 1
 111 975 l 1
 215 975 l 1
EndSplineSet
EndChar
StartChar: braceright
Encoding: 125 125 95
Width: 478
Flags: HW
HStem: 955 20G<63 174>
VStem: 171 153<-74 244 482 796>
Fore
431 429 m 1
 431 306 l 1
 397 306 371 300 354 290 c 0
 334 278 324 257 324 229 c 2
 324 -72 l 2
 324 -129 306 -173 271 -204 c 0
 236 -236 204 -253 174 -253 c 2
 63 -253 l 1
 63 -123 l 1
 111 -123 l 2
 139 -123 155 -116 162 -103 c 0
 168 -94 171 -77 171 -53 c 2
 171 227 l 2
 171 312 214 359 299 368 c 1
 269 370 239 380 209 398 c 0
 184 413 171 446 171 495 c 2
 171 776 l 2
 171 801 168 819 162 829 c 0
 155 841 138 847 111 847 c 2
 63 847 l 1
 63 975 l 1
 174 975 l 2
 192 975 213 969 239 957 c 1
 261 941 281 920 299 893 c 1
 316 865 324 831 324 794 c 2
 324 493 l 2
 324 450 360 429 431 429 c 1
EndSplineSet
EndChar
StartChar: asciitilde
Encoding: 126 126 96
Width: 723
Flags: HW
Fore
128 248 m 1
 35 248 l 1
 44 315 67 366 104 401 c 0
 136 429 168 443 199 443 c 0
 222 443 248 435 276 419 c 2
 409 343 l 2
 438 326 461 317 479 317 c 0
 518 317 537 345 537 401 c 1
 639 401 l 1
 639 376 635 350 627 324 c 0
 621 302 604 278 577 250 c 0
 549 221 520 206 488 206 c 0
 461 206 429 217 394 237 c 2
 248 315 l 2
 224 328 205 334 190 334 c 0
 168 334 154 325 146 308 c 0
 138 289 132 269 128 248 c 1
EndSplineSet
EndChar
StartChar: uni0E10.descless
Encoding: 128 63232 97
Width: 687
Flags: HW
HStem: 0 21G<407 553> 188 93<204 206> 403 97<204 217.192> 644 107<544 561.454> 705 99<269 303>
VStem: 49 95<343 353> 420 133<272 405>
Fore
407 0 m 5
 401 38 384 87 359 149 c 5
 336 209 323 239 320 239 c 5
 313 230 301 219 285 207 c 5
 265 195 238 188 204 188 c 4
 154 188 116 204 91 235 c 5
 63 265 49 301 49 343 c 4
 49 387 63 423 91 452 c 4
 118 482 156 498 204 500 c 4
 248 500 284 492 310 476 c 4
 334 459 354 429 369 385 c 5
 401 316 l 5
 420 272 l 5
 420 381 l 6
 420 438 413 475 398 491 c 4
 384 507 351 522 299 535 c 4
 220 556 166 568 137 573 c 6
 14 591 l 5
 14 642 l 5
 51 692 91 732 135 763 c 4
 178 790 227 804 283 804 c 4
 334 804 384 796 433 778 c 5
 494 760 531 751 544 751 c 4
 570 751 599 758 632 772 c 5
 641 732 l 5
 648 709 653 686 655 665 c 5
 610 651 573 644 544 644 c 5
 489 648 l 5
 415 674 l 5
 338 697 l 6
 323 702 306 705 285 705 c 4
 265 705 245 700 225 690 c 4
 203 680 190 672 188 665 c 5
 281 652 l 5
 325 644 357 636 376 630 c 4
 453 610 502 582 524 547 c 4
 543 514 553 460 553 385 c 6
 553 0 l 5
 407 0 l 5
204 281 m 5
 224 281 238 287 248 299 c 4
 259 310 264 324 264 343 c 4
 264 361 259 375 248 385 c 4
 238 397 224 403 204 403 c 4
 184 403 170 397 160 385 c 4
 149 375 144 361 144 343 c 4
 144 329 149 315 160 301 c 5
 171 290 186 283 204 281 c 5
EndSplineSet
EndChar
StartChar: uni0E34.left
Encoding: 129 63233 98
Width: 0
Flags: HW
HStem: 915 97<-675 -619.247>
Fore
-541 1177 m 0
 -486 1177 -438 1161 -395 1130 c 1
 -357 1105 -329 1075 -311 1040 c 0
 -289 997 -275 960 -269 929 c 1
 -251 841 l 1
 -358 873 l 1
 -413 886 -469 897 -526 905 c 0
 -564 912 -614 915 -677 915 c 1
 -795 911 l 1
 -872 903 l 1
 -860 982 -823 1047 -762 1097 c 1
 -701 1152 -627 1179 -541 1177 c 0
-541 1084 m 1
 -584 1084 -620 1076 -651 1061 c 0
 -685 1044 -705 1026 -711 1008 c 1
 -675 1012 l 1
 -619 1012 l 1
 -538 1008 l 1
 -495 1003 -458 996 -426 989 c 1
 -373 968 l 1
 -407 1036 -462 1075 -541 1084 c 1
EndSplineSet
EndChar
StartChar: uni0E35.left
Encoding: 130 63234 99
Width: 0
Flags: HW
VStem: -400 123<1120 1259>
DStem: -627 1012 -627 1012 -696 1010 -557 1007
Fore
-560 1176 m 0
 -525 1176 -490 1168 -456 1153 c 1
 -430 1140 -412 1129 -400 1120 c 1
 -400 1259 l 1
 -277 1259 l 1
 -277 940 l 1
 -274 940 -266 905 -252 836 c 1
 -377 873 l 2
 -418 884 -475 895 -546 906 c 0
 -585 912 -636 915 -699 915 c 2
 -785 912 l 1
 -851 908 l 1
 -891 902 l 1
 -885 947 -866 993 -835 1039 c 0
 -807 1080 -768 1114 -719 1138 c 0
 -666 1166 -613 1178 -560 1176 c 0
-562 1083 m 1
 -603 1083 -638 1076 -668 1060 c 0
 -704 1043 -725 1025 -731 1005 c 1
 -696 1010 l 1
 -627 1012 l 1
 -557 1007 l 2
 -522 1004 -486 997 -449 988 c 1
 -394 968 l 1
 -407 997 -426 1022 -451 1041 c 0
 -475 1062 -512 1076 -562 1083 c 1
EndSplineSet
EndChar
StartChar: uni0E36.left
Encoding: 131 63235 100
Width: 0
Flags: HW
HStem: 914 97<-694 -637.966> 1082 93<-586 -558> 1182 90<-394 -376>
VStem: -345 95<1136 1157>
Fore
-250 1157 m 1
 -250 1088 -271 1043 -312 1022 c 1
 -294 987 -283 964 -280 953 c 0
 -268 922 -258 882 -250 835 c 1
 -375 872 l 2
 -416 883 -473 894 -544 905 c 0
 -583 911 -634 914 -697 914 c 2
 -783 912 l 1
 -849 907 l 1
 -889 902 l 1
 -883 947 -864 992 -833 1038 c 0
 -805 1080 -766 1113 -717 1138 c 0
 -669 1163 -616 1175 -558 1175 c 1
 -531 1173 l 1
 -511 1168 l 1
 -509 1189 -497 1211 -476 1235 c 0
 -457 1260 -425 1272 -381 1272 c 0
 -345 1272 -315 1262 -292 1241 c 0
 -271 1219 -257 1192 -250 1157 c 1
-560 1082 m 1
 -601 1082 -636 1075 -666 1060 c 0
 -702 1042 -723 1025 -729 1007 c 1
 -694 1011 l 1
 -637 1011 l 1
 -555 1007 l 1
 -520 1003 -484 996 -447 987 c 1
 -392 967 l 1
 -405 996 -424 1021 -449 1040 c 0
 -473 1062 -510 1076 -560 1082 c 1
-385 1102 m 0
 -373 1102 -363 1106 -356 1115 c 0
 -349 1123 -345 1132 -345 1142 c 0
 -345 1152 -349 1161 -356 1168 c 0
 -363 1177 -373 1182 -385 1182 c 0
 -410 1182 -423 1169 -423 1142 c 0
 -423 1115 -410 1102 -385 1102 c 0
EndSplineSet
EndChar
StartChar: uni0E37.left
Encoding: 132 63236 101
Width: 0
Flags: HW
HStem: 1083 93<-557 -540>
VStem: -379 116<1116 1259>
DStem: -612 1012 -612 1012 -681 1010 -542 1007
Fore
-379 1116 m 1
 -379 1259 l 1
 -263 1259 l 1
 -263 940 l 1
 -260 940 -251 905 -237 836 c 1
 -362 873 l 2
 -403 884 -460 895 -531 906 c 0
 -570 912 -621 915 -684 915 c 2
 -770 912 l 1
 -836 908 l 1
 -876 902 l 1
 -848 1014 -802 1087 -739 1123 c 0
 -676 1158 -610 1176 -540 1176 c 1
 -540 1259 l 1
 -432 1259 l 1
 -432 1149 l 1
 -428 1149 -410 1138 -379 1116 c 1
-547 1083 m 1
 -588 1083 -623 1076 -653 1060 c 0
 -689 1043 -710 1025 -716 1005 c 1
 -681 1010 l 1
 -612 1012 l 1
 -542 1007 l 2
 -507 1004 -471 997 -434 988 c 1
 -379 968 l 1
 -392 997 -411 1022 -436 1041 c 0
 -460 1062 -497 1076 -547 1083 c 1
EndSplineSet
EndChar
StartChar: ellipsis
Encoding: 133 8230 102
Width: 1076
Flags: HW
HStem: -24 21G<150.5 222.5>
VStem: 79 216<64 73> 414 216<60 73> 752 216<60 64>
Fore
630 64 m 4
 630 14 596 -15 526 -24 c 5
 459 -24 421 4 414 61 c 5
 414 122 451 153 524 153 c 4
 556 153 582 144 602 126 c 4
 621 110 630 90 630 64 c 4
968 64 m 5
 968 14 933 -15 862 -24 c 5
 796 -24 759 4 752 61 c 5
 752 122 788 153 860 153 c 4
 891 153 917 144 940 126 c 5
 956 110 966 90 968 64 c 5
295 64 m 4
 295 5 259 -24 186 -24 c 4
 115 -24 79 5 79 64 c 4
 79 123 115 153 186 153 c 4
 259 153 295 123 295 64 c 4
EndSplineSet
EndChar
StartChar: uni0E48.low_left
Encoding: 134 63237 103
Width: 0
Flags: HW
VStem: -430 134<848 1200>
Fore
-430 848 m 1
 -430 1200 l 1
 -296 1200 l 1
 -296 848 l 1
 -430 848 l 1
EndSplineSet
EndChar
StartChar: uni0E49.low_left
Encoding: 135 63238 104
Width: 0
Flags: HW
HStem: 1153 97<-633 -629>
VStem: -774 95<1107 1117> -590 107<1098 1115> -339 128<1188 1241>
Fore
-483 1098 m 4
 -485 1060 -492 1029 -502 1003 c 5
 -514 981 -522 969 -527 968 c 6
 -500 973 l 5
 -463 987 l 6
 -444 995 -428 1004 -416 1012 c 4
 -398 1026 -386 1040 -379 1052 c 4
 -353 1106 -339 1151 -339 1188 c 5
 -342 1241 l 5
 -211 1241 l 5
 -211 1070 -266 959 -377 906 c 4
 -442 875 -516 860 -597 860 c 5
 -661 862 l 5
 -680 864 -692 866 -699 869 c 5
 -699 915 l 5
 -688 919 -678 926 -668 936 c 5
 -655 947 -648 957 -646 968 c 5
 -690 980 l 6
 -712 986 -732 1003 -750 1029 c 4
 -766 1052 -774 1080 -774 1112 c 4
 -774 1151 -762 1183 -736 1209 c 4
 -710 1237 -676 1250 -633 1250 c 4
 -598 1250 -570 1243 -551 1228 c 4
 -527 1211 -510 1191 -500 1167 c 5
 -489 1147 -483 1124 -483 1098 c 4
-633 1063 m 4
 -619 1063 -608 1068 -602 1078 c 4
 -594 1087 -590 1098 -590 1109 c 4
 -590 1120 -594 1130 -602 1140 c 4
 -608 1149 -619 1153 -633 1153 c 4
 -648 1153 -659 1149 -666 1140 c 5
 -675 1131 -679 1121 -679 1109 c 4
 -679 1099 -675 1089 -666 1078 c 4
 -659 1068 -648 1063 -633 1063 c 4
EndSplineSet
EndChar
StartChar: uni0E4A.low_left
Encoding: 136 63239 105
Width: 0
Flags: HW
HStem: 841 71<-672 -667> 955 20G<-683 -667.5> 1086 86<-670 -647>
VStem: -642 77<933 949> -455 93<1002 1033> -305 95<1080 1108>
Fore
-670 841 m 4
 -711 843 -743 861 -767 894 c 4
 -795 932 -809 974 -806 1019 c 4
 -806 1058 -793 1094 -767 1128 c 4
 -744 1157 -712 1172 -670 1172 c 4
 -639 1172 -617 1166 -605 1155 c 5
 -587 1142 -577 1134 -575 1130 c 5
 -545 1155 l 6
 -530 1166 -510 1172 -484 1172 c 4
 -443 1172 -412 1159 -393 1134 c 4
 -372 1110 -362 1076 -362 1033 c 4
 -362 995 -371 960 -389 929 c 5
 -384 930 -375 936 -362 947 c 4
 -348 958 -337 971 -329 984 c 4
 -313 1019 -305 1051 -305 1081 c 4
 -305 1102 -307 1123 -311 1144 c 5
 -219 1176 l 5
 -213 1164 -210 1142 -210 1108 c 4
 -210 1042 -226 986 -258 940 c 5
 -280 906 -312 883 -353 871 c 4
 -389 860 -438 854 -499 854 c 5
 -501 873 l 5
 -503 892 l 5
 -490 905 -480 918 -473 929 c 4
 -461 948 -455 973 -455 1002 c 4
 -453 1055 -470 1081 -506 1081 c 4
 -519 1081 -532 1078 -543 1070 c 4
 -548 1067 -555 1061 -565 1051 c 5
 -573 1058 -583 1066 -596 1072 c 4
 -610 1081 -627 1086 -647 1086 c 4
 -683 1086 -702 1069 -705 1035 c 5
 -687 1040 l 5
 -656 1044 l 5
 -624 1042 -602 1032 -589 1015 c 4
 -574 994 -565 967 -565 933 c 4
 -565 908 -576 886 -596 868 c 4
 -616 850 -641 841 -670 841 c 4
-672 975 m 4
 -694 975 -705 965 -705 945 c 4
 -705 937 -702 930 -696 924 c 4
 -689 916 -681 912 -672 912 c 4
 -663 912 -655 915 -649 922 c 4
 -645 929 -642 936 -642 945 c 4
 -642 951 -645 959 -649 966 c 5
 -655 972 -663 975 -672 975 c 4
EndSplineSet
EndChar
StartChar: uni0E4B.low_left
Encoding: 137 63240 106
Width: 0
Flags: HW
HStem: 1001 123<-639 -505 -377 -243>
VStem: -505 128<869 1001 1124 1255>
Fore
-505 1001 m 5
 -639 1001 l 5
 -639 1124 l 5
 -505 1124 l 5
 -505 1255 l 5
 -377 1255 l 5
 -377 1124 l 5
 -243 1124 l 5
 -243 1001 l 5
 -377 1001 l 5
 -377 869 l 5
 -505 869 l 5
 -505 1001 l 5
EndSplineSet
EndChar
StartChar: uni0E4C.low_left
Encoding: 138 63241 107
Width: 0
Flags: HW
HStem: 849 93<-426 -415> 1030 92<-426 -415>
VStem: -596 124<986 1016> -382 97<986 998>
Fore
-214 1138 m 4
 -280 1128 -347 1122 -417 1122 c 4
 -377 1122 -346 1110 -324 1085 c 5
 -298 1060 -285 1030 -285 995 c 4
 -283 957 -294 923 -320 893 c 4
 -344 864 -377 849 -419 849 c 4
 -471 847 -514 861 -548 893 c 4
 -580 923 -596 964 -596 1016 c 4
 -594 1104 -558 1166 -488 1202 c 5
 -456 1216 -411 1224 -356 1226 c 4
 -298 1231 -258 1238 -236 1248 c 4
 -213 1257 -201 1281 -201 1319 c 5
 -86 1319 l 5
 -86 1271 -95 1232 -115 1202 c 4
 -137 1168 -170 1147 -214 1138 c 4
-426 1030 m 4
 -439 1030 -450 1026 -460 1018 c 5
 -468 1009 -472 998 -472 986 c 4
 -472 976 -468 966 -460 956 c 4
 -451 947 -439 942 -426 942 c 4
 -411 942 -400 947 -393 956 c 5
 -385 964 -382 974 -382 986 c 4
 -382 1015 -396 1030 -426 1030 c 4
EndSplineSet
EndChar
StartChar: uni0E48.low
Encoding: 139 63242 108
Width: 0
Flags: HW
VStem: -245 134<848 1200>
Fore
-245 848 m 5
 -245 1200 l 5
 -111 1200 l 5
 -111 848 l 5
 -245 848 l 5
EndSplineSet
EndChar
StartChar: uni0E49.low
Encoding: 140 63243 109
Width: 0
Flags: HW
HStem: 1153 97<-358 -340>
VStem: -485 93<1107 1117> -300 104<1098 1117> -50 126<1193 1241>
Fore
-196 1098 m 0
 -198 1050 -205 1017 -215 1001 c 1
 -225 980 -233 969 -238 968 c 1
 -231 968 -219 971 -201 978 c 1
 -179 983 -159 991 -141 1001 c 0
 -123 1011 -106 1028 -90 1052 c 1
 -63 1103 -50 1150 -50 1193 c 1
 -53 1241 l 1
 76 1241 l 1
 76 1070 21 959 -90 906 c 0
 -153 875 -226 860 -308 860 c 1
 -372 862 l 1
 -405 875 -403 866 -410 869 c 5
 -410 915 l 1
 -399 919 -389 926 -379 936 c 1
 -366 947 -359 957 -356 968 c 1
 -403 980 l 2
 -425 986 -445 1003 -463 1029 c 0
 -478 1052 -485 1080 -485 1112 c 0
 -485 1148 -472 1181 -446 1209 c 0
 -421 1237 -387 1250 -344 1250 c 0
 -296 1250 -259 1234 -233 1202 c 0
 -208 1173 -196 1138 -196 1098 c 0
-346 1063 m 0
 -333 1063 -321 1068 -312 1078 c 1
 -304 1091 -300 1102 -300 1109 c 0
 -300 1118 -304 1128 -312 1140 c 1
 -321 1149 -333 1153 -346 1153 c 0
 -361 1153 -372 1149 -379 1140 c 1
 -388 1131 -392 1121 -392 1109 c 0
 -392 1099 -388 1089 -379 1078 c 0
 -372 1068 -361 1063 -346 1063 c 0
EndSplineSet
EndChar
StartChar: uni0E4A.low
Encoding: 141 63244 110
Width: 0
Flags: HW
HStem: 843 81<-503 -486> 1107 94<-503 -478>
VStem: -457 67<942 960> -269 102<1017 1049> -103 101<1106 1137>
Fore
-503 843 m 4
 -549 843 -584 863 -611 903 c 4
 -640 946 -654 990 -651 1035 c 4
 -651 1079 -638 1118 -611 1153 c 4
 -585 1185 -549 1201 -503 1201 c 4
 -488 1201 -472 1199 -457 1194 c 5
 -428 1181 l 5
 -408 1167 l 5
 -399 1156 l 5
 -392 1163 -380 1173 -364 1183 c 4
 -348 1195 -327 1201 -302 1201 c 4
 -262 1201 -228 1188 -200 1163 c 5
 -179 1133 -167 1095 -167 1049 c 4
 -167 1011 -179 973 -200 936 c 5
 -170 954 l 5
 -155 967 -143 981 -134 995 c 4
 -113 1026 -103 1065 -103 1112 c 4
 -103 1138 -108 1163 -117 1188 c 5
 -11 1209 l 5
 -5 1190 -2 1166 -2 1137 c 4
 -2 1061 -20 997 -57 947 c 4
 -84 908 -118 884 -159 873 c 4
 -204 861 -257 854 -318 854 c 5
 -318 871 l 5
 -321 896 l 5
 -312 904 -302 918 -291 938 c 4
 -277 960 -269 986 -269 1017 c 4
 -269 1075 -288 1104 -326 1104 c 4
 -344 1104 -360 1099 -375 1090 c 4
 -386 1084 -395 1077 -402 1070 c 5
 -402 1070 l 5
 -402 1072 -405 1075 -411 1081 c 5
 -439 1099 l 5
 -452 1105 -466 1107 -478 1107 c 4
 -519 1107 -541 1089 -543 1053 c 5
 -523 1061 l 5
 -488 1066 l 5
 -457 1063 -433 1052 -416 1031 c 4
 -399 1006 -390 977 -390 942 c 4
 -390 917 -401 894 -423 873 c 4
 -443 853 -469 843 -503 843 c 4
-492 991 m 4
 -515 991 -527 980 -527 958 c 4
 -527 936 -515 924 -492 924 c 4
 -469 924 -457 936 -457 958 c 4
 -457 968 -460 976 -465 982 c 4
 -471 988 -480 991 -492 991 c 4
EndSplineSet
EndChar
StartChar: uni0E4B.low
Encoding: 142 63245 111
Width: 0
Flags: HW
HStem: 1001 123<-381 -245 -120 15>
VStem: -245 125<869 1001 1124 1255>
Fore
-245 1001 m 5
 -381 1001 l 5
 -381 1124 l 5
 -245 1124 l 5
 -245 1255 l 5
 -120 1255 l 5
 -120 1124 l 5
 15 1124 l 5
 15 1001 l 5
 -120 1001 l 5
 -120 869 l 5
 -245 869 l 5
 -245 1001 l 5
EndSplineSet
EndChar
StartChar: uni0E4C.low
Encoding: 143 63246 112
Width: 0
Flags: HW
HStem: 849 90<-278 -255> 1030 90<-266 -257>
VStem: -222 97<986 996> -41 115<1297.25 1316.87>
Fore
-55 1136 m 4
 -79 1132 -115 1128 -164 1125 c 6
 -257 1120 l 5
 -217 1120 -186 1108 -164 1083 c 5
 -138 1060 -125 1030 -125 993 c 5
 -123 955 -134 921 -159 891 c 4
 -185 863 -218 849 -259 849 c 4
 -315 849 -359 865 -391 895 c 5
 -424 929 -440 969 -437 1014 c 4
 -437 1052 -427 1090 -407 1127 c 4
 -391 1157 -365 1181 -328 1199 c 4
 -298 1213 -255 1222 -197 1227 c 4
 -142 1229 -101 1235 -74 1246 c 4
 -52 1253 -41 1277 -41 1317 c 5
 74 1317 l 5
 74 1214 31 1153 -55 1136 c 4
-266 1030 m 4
 -280 1030 -292 1025 -301 1016 c 4
 -308 1007 -312 996 -312 986 c 4
 -312 978 -308 967 -301 954 c 4
 -294 944 -282 939 -266 939 c 4
 -251 939 -240 944 -233 954 c 4
 -225 964 -222 975 -222 986 c 4
 -222 998 -225 1009 -233 1019 c 5
 -244 1026 -255 1030 -266 1030 c 4
EndSplineSet
EndChar
StartChar: uni0E0D.descless
Encoding: 144 63247 113
Width: 1044
Flags: HW
HStem: -15 85<208 231> -1 120<423 752> 195 86<209 231> 709 95<333 368> 765 20G<800 934>
VStem: 69 85<128 137> 69 137<135 402> 282 84<133 146> 500 133<119 591> 800 134<160 785>
Fore
934 785 m 5
 934 149 l 6
 934 108 928 76 916 52 c 4
 904 31 885 17 858 10 c 4
 830 2 792 -1 745 -1 c 6
 423 -1 l 5
 423 119 l 5
 500 119 l 5
 500 591 l 6
 500 628 485 656 456 677 c 4
 426 696 386 707 335 709 c 4
 311 709 281 704 244 692 c 4
 203 680 175 664 160 644 c 5
 181 640 204 634 229 626 c 4
 262 616 291 601 317 582 c 5
 317 517 l 5
 291 517 266 509 242 494 c 4
 218 478 206 444 206 390 c 6
 206 279 l 5
 210 281 l 5
 217 281 l 6
 249 281 276 274 298 260 c 4
 321 245 338 226 348 204 c 4
 360 184 366 160 366 133 c 4
 366 107 360 83 348 61 c 4
 337 38 320 20 298 5 c 4
 275 -8 248 -15 217 -15 c 4
 169 -15 133 0 109 29 c 5
 82 57 69 92 69 135 c 6
 69 381 l 6
 69 427 75 461 85 485 c 4
 96 511 116 533 143 551 c 5
 129 558 111 564 87 570 c 4
 56 579 26 585 -1 586 c 5
 -1 630 l 5
 16 657 55 694 116 739 c 4
 175 782 259 804 368 804 c 4
 422 804 465 796 498 781 c 4
 535 763 562 744 578 723 c 4
 599 697 613 672 620 646 c 4
 629 619 633 594 633 570 c 6
 633 119 l 5
 745 119 l 6
 769 119 785 123 794 131 c 5
 798 138 800 156 800 186 c 6
 800 785 l 5
 934 785 l 5
220 70 m 4
 230 70 242 73 255 80 c 5
 264 88 271 95 275 103 c 4
 279 112 282 122 282 133 c 4
 282 153 276 169 266 179 c 4
 255 190 240 195 220 195 c 4
 201 195 185 189 173 177 c 4
 160 163 154 148 154 133 c 4
 154 118 160 104 173 91 c 4
 185 77 201 70 220 70 c 4
EndSplineSet
EndChar
StartChar: quoteleft
Encoding: 145 8216 114
Width: 291
Flags: HW
Fore
33 787 m 4
 30 851 52 902 97 942 c 5
 141 984 185 1007 227 1012 c 5
 243 979 l 5
 209 961 186 946 174 935 c 5
 155 921 143 898 139 868 c 5
 164 868 188 861 211 847 c 4
 233 834 245 808 248 769 c 5
 248 744 240 720 222 696 c 5
 207 678 184 669 156 669 c 4
 114 669 84 680 65 701 c 5
 44 723 33 751 33 787 c 4
EndSplineSet
EndChar
StartChar: quoteright
Encoding: 146 8217 115
Width: 290
Flags: HW
Fore
254 880 m 4
 268 818 256 763 218 716 c 5
 182 667 143 636 103 624 c 5
 81 653 l 5
 111 677 131 696 141 708 c 4
 157 726 165 750 164 781 c 5
 139 776 114 779 89 789 c 4
 65 798 48 821 38 859 c 4
 34 883 38 908 51 934 c 4
 63 956 83 968 112 973 c 4
 153 980 184 976 206 958 c 5
 231 941 247 915 254 880 c 4
EndSplineSet
EndChar
StartChar: quotedblleft
Encoding: 147 8220 116
Width: 587
Flags: HW
Fore
31 783 m 4
 27 845 48 897 93 939 c 5
 136 982 178 1006 220 1011 c 5
 237 980 l 5
 205 961 182 946 168 935 c 4
 150 920 139 897 136 866 c 5
 161 866 185 860 208 848 c 4
 231 835 243 808 246 768 c 4
 247 742 239 718 222 697 c 4
 207 678 185 668 156 668 c 4
 115 666 85 677 65 698 c 4
 43 720 31 748 31 783 c 4
309 790 m 4
 305 852 326 904 371 946 c 5
 412 988 454 1012 497 1017 c 5
 515 987 l 5
 483 968 460 952 446 940 c 4
 429 926 418 903 413 872 c 5
 437 872 462 866 485 853 c 4
 508 840 521 814 524 775 c 4
 525 748 517 724 500 703 c 4
 485 684 463 674 434 674 c 4
 392 673 361 683 342 704 c 5
 321 724 309 753 309 790 c 4
EndSplineSet
EndChar
StartChar: quotedblright
Encoding: 148 8221 117
Width: 588
Flags: HW
HStem: 976 21G<105 140 383 417.5>
Fore
520 857 m 4
 523 795 501 744 455 702 c 4
 411 661 368 638 325 633 c 5
 309 665 l 5
 341 683 365 698 379 709 c 4
 397 724 409 747 413 777 c 5
 388 777 364 784 342 797 c 4
 319 810 307 836 305 876 c 4
 305 903 313 926 331 947 c 4
 346 966 369 976 397 976 c 4
 438 976 468 965 488 943 c 5
 509 921 520 892 520 857 c 4
242 857 m 4
 245 795 223 744 177 702 c 5
 134 661 91 638 48 633 c 5
 31 665 l 5
 63 683 87 698 101 709 c 4
 118 723 130 746 136 777 c 5
 112 777 88 784 64 797 c 4
 41 811 29 837 27 876 c 4
 27 903 35 926 53 947 c 4
 68 966 91 976 119 976 c 4
 161 976 192 965 210 943 c 5
 231 923 242 894 242 857 c 4
EndSplineSet
EndChar
StartChar: bullet
Encoding: 149 8226 118
Width: 370
Flags: HW
Fore
174 205 m 0
 113 205 64 225 28 265 c 0
 -6 304 -23 349 -23 402 c 0
 -23 437 -15 469 -0 497 c 0
 18 529 41 554 68 572 c 0
 97 590 133 599 174 599 c 0
 217 599 253 590 282 572 c 0
 311 553 334 529 350 499 c 1
 364 470 371 437 371 402 c 0
 371 348 354 301 320 263 c 0
 286 225 237 205 174 205 c 0
EndSplineSet
EndChar
StartChar: endash
Encoding: 150 8211 119
Width: 1090
Flags: HW
HStem: 343 67<-67 1091>
Fore
-67 410 m 1
 1091 410 l 1
 1091 343 l 1
 -67 343 l 1
 -67 410 l 1
EndSplineSet
EndChar
StartChar: emdash
Encoding: 151 8212 120
Width: 2183
Flags: HW
HStem: 343 67<-133 2183>
Fore
-133 410 m 1
 2183 410 l 1
 2183 343 l 1
 -133 343 l 1
 -133 410 l 1
EndSplineSet
EndChar
StartChar: uni0E31.left
Encoding: 152 63248 121
Width: 0
Flags: HW
HStem: 847 112<-361 -339> 977 21G<-494 -474> 1088 93<-484 -476>
VStem: -637 97<1030 1040> -429 88<1022 1040>
Fore
-484 1181 m 0
 -438 1181 -403 1166 -378 1138 c 0
 -353 1110 -341 1074 -341 1030 c 0
 -341 1014 -343 999 -347 986 c 0
 -352 975 -356 965 -361 959 c 1
 -304 959 -251 972 -202 999 c 0
 -153 1026 -111 1079 -76 1160 c 1
 35 1118 l 1
 22 1065 -5 1017 -44 975 c 0
 -88 929 -133 897 -179 880 c 0
 -233 858 -290 847 -350 847 c 1
 -398 849 l 1
 -458 855 -514 874 -568 907 c 1
 -616 938 -639 979 -637 1030 c 0
 -637 1071 -623 1107 -595 1138 c 0
 -570 1166 -533 1181 -484 1181 c 0
-484 977 m 0
 -464 977 -451 982 -442 993 c 0
 -433 1005 -429 1018 -429 1032 c 0
 -429 1047 -433 1060 -442 1072 c 0
 -451 1082 -464 1088 -484 1088 c 0
 -504 1088 -518 1082 -526 1072 c 0
 -535 1060 -540 1047 -540 1032 c 0
 -540 1018 -535 1005 -526 993 c 0
 -518 982 -504 977 -484 977 c 0
EndSplineSet
EndChar
StartChar: uni0E4D.left
Encoding: 153 63249 122
Width: 0
Flags: HW
HStem: 903 95<-456.165 -441> 1121 95<-456.734 -441>
VStem: -602 97<1048.27 1064> -384 95<1048.27 1064>
Fore
-444 1216 m 4
 -395 1216 -356 1201 -329 1170 c 4
 -302 1141 -289 1105 -289 1061 c 4
 -289 1019 -303 982 -331 949 c 5
 -360 918 -398 903 -444 903 c 4
 -492 903 -531 918 -560 949 c 5
 -588 983 -602 1021 -602 1061 c 4
 -602 1102 -588 1138 -560 1170 c 4
 -533 1201 -494 1216 -444 1216 c 4
-444 998 m 4
 -426 998 -412 1004 -401 1017 c 4
 -390 1028 -384 1042 -384 1061 c 4
 -384 1078 -390 1091 -401 1102 c 4
 -412 1115 -426 1121 -444 1121 c 4
 -463 1121 -477 1115 -488 1104 c 4
 -499 1094 -505 1079 -505 1061 c 4
 -505 1042 -499 1028 -488 1017 c 4
 -477 1004 -462 998 -444 998 c 4
EndSplineSet
EndChar
StartChar: uni0E47.left
Encoding: 154 63250 123
Width: 0
Flags: HW
HStem: 842 84<-365 -358> 954 104<-589 -575> 998 82<-365 -354> 1100 93<-446 -414.133> 1104 95<-599 -543>
VStem: -791 114<1007 1043> -328 84<963 967>
Fore
-365 842 m 0
 -388 842 -408 848 -425 859 c 1
 -441 867 -461 881 -485 900 c 0
 -513 922 -531 935 -539 939 c 0
 -554 949 -570 954 -587 954 c 0
 -602 954 -615 942 -626 917 c 0
 -637 893 -643 867 -643 838 c 1
 -672 838 l 1
 -704 855 -731 884 -754 924 c 1
 -778 961 -791 1001 -791 1043 c 0
 -791 1066 -788 1085 -782 1100 c 0
 -765 1139 -743 1165 -716 1178 c 0
 -690 1192 -651 1199 -599 1199 c 2
 -541 1197 l 1
 -442 1193 l 1
 -399 1193 -369 1199 -354 1213 c 1
 -335 1224 -325 1251 -325 1294 c 1
 -219 1294 l 1
 -219 1225 -237 1176 -272 1146 c 0
 -308 1115 -366 1100 -446 1100 c 1
 -543 1104 l 1
 -591 1104 -626 1098 -647 1085 c 0
 -667 1075 -677 1049 -677 1007 c 1
 -675 1017 -665 1028 -650 1039 c 0
 -632 1052 -607 1058 -575 1058 c 0
 -545 1058 -523 1052 -508 1041 c 2
 -473 1014 l 1
 -458 1058 -421 1080 -365 1080 c 0
 -326 1080 -296 1070 -274 1049 c 0
 -254 1028 -244 999 -244 963 c 0
 -244 928 -255 899 -277 877 c 0
 -299 854 -328 842 -365 842 c 0
-365 926 m 0
 -354 926 -344 930 -337 937 c 0
 -331 943 -328 952 -328 963 c 0
 -328 974 -331 982 -337 988 c 0
 -343 995 -353 998 -365 998 c 0
 -373 998 -381 994 -390 986 c 0
 -397 980 -400 972 -400 963 c 0
 -400 952 -397 943 -390 937 c 0
 -382 930 -374 926 -365 926 c 0
EndSplineSet
EndChar
StartChar: uni0E48.left
Encoding: 155 63251 124
Width: 0
Flags: HW
VStem: -396 123<1297 1568>
Fore
-396 1297 m 1
 -396 1568 l 1
 -273 1568 l 1
 -273 1297 l 5
 -396 1297 l 1
EndSplineSet
EndChar
StartChar: uni0E49.left
Encoding: 156 63252 125
Width: 0
Flags: HW
HStem: 1552 80<-491 -469>
VStem: -598 78<1504 1524> -441 88<1503 1518>
Fore
-353 1503 m 4
 -355 1463 -361 1436 -370 1422 c 5
 -378 1404 -384 1394 -388 1391 c 5
 -358 1399 l 6
 -342 1404 -325 1411 -307 1422 c 4
 -292 1431 -277 1445 -263 1464 c 5
 -248 1488 -240 1511 -238 1533 c 5
 -233 1555 -231 1585 -231 1623 c 5
 -125 1623 l 5
 -125 1475 -170 1381 -260 1338 c 4
 -318 1312 -379 1299 -443 1299 c 4
 -454 1299 -472 1301 -499 1304 c 6
 -534 1309 l 5
 -534 1347 l 5
 -509 1364 l 5
 -498 1370 -492 1379 -490 1391 c 5
 -527 1402 l 6
 -550 1409 -567 1423 -578 1442 c 4
 -591 1464 -598 1488 -598 1515 c 4
 -598 1547 -587 1575 -564 1598 c 4
 -542 1621 -514 1632 -478 1632 c 4
 -438 1632 -407 1619 -386 1594 c 5
 -364 1564 -353 1533 -353 1503 c 4
-481 1473 m 4
 -454 1473 -441 1486 -441 1512 c 4
 -441 1524 -444 1533 -450 1540 c 4
 -457 1548 -467 1552 -481 1552 c 4
 -493 1552 -503 1548 -511 1540 c 4
 -517 1533 -520 1524 -520 1512 c 4
 -520 1503 -516 1494 -509 1484 c 5
 -500 1477 -491 1473 -481 1473 c 4
EndSplineSet
EndChar
StartChar: uni0E4A.left
Encoding: 157 63253 126
Width: 0
Flags: HW
HStem: 1286 69<-588 -584> 1412 68<-588 -574> 1518 81<-586 -562 -431 -412>
VStem: -718 100<1385 1454> -557 71<1375 1392> -382 88<1440 1470> -239 91<1515 1544>
Fore
-586 1286 m 4
 -624 1288 -656 1306 -680 1339 c 4
 -705 1370 -718 1409 -718 1454 c 5
 -713 1496 -700 1531 -678 1558 c 4
 -657 1586 -626 1599 -586 1599 c 4
 -567 1599 -553 1598 -541 1593 c 5
 -506 1573 l 5
 -495 1560 l 5
 -495 1560 l 5
 -491 1567 -480 1576 -465 1586 c 4
 -451 1595 -433 1599 -412 1599 c 4
 -372 1599 -342 1588 -323 1565 c 4
 -304 1543 -294 1511 -294 1470 c 4
 -294 1434 -302 1400 -319 1368 c 5
 -315 1370 -307 1377 -294 1390 c 5
 -279 1402 -269 1412 -264 1421 c 4
 -247 1453 -239 1485 -239 1516 c 4
 -239 1534 -241 1553 -245 1575 c 5
 -157 1604 l 5
 -151 1589 -148 1569 -148 1544 c 4
 -148 1477 -164 1423 -197 1381 c 5
 -219 1348 -249 1326 -287 1315 c 4
 -323 1305 -370 1299 -426 1299 c 5
 -426 1317 l 5
 -428 1337 l 5
 -422 1343 -412 1354 -400 1370 c 4
 -390 1385 -384 1408 -382 1440 c 4
 -382 1463 -385 1482 -391 1496 c 4
 -398 1509 -411 1516 -431 1516 c 4
 -444 1516 -455 1512 -465 1505 c 5
 -477 1498 -484 1492 -486 1487 c 5
 -486 1487 l 5
 -486 1489 -489 1492 -495 1496 c 6
 -526 1512 l 6
 -537 1516 -550 1518 -564 1518 c 4
 -599 1518 -618 1503 -621 1472 c 4
 -620 1473 -613 1475 -601 1478 c 5
 -574 1480 l 6
 -548 1480 -526 1471 -509 1452 c 4
 -494 1434 -486 1409 -486 1375 c 4
 -486 1352 -495 1332 -513 1313 c 5
 -535 1295 -559 1286 -586 1286 c 4
-588 1412 m 4
 -608 1412 -618 1403 -618 1385 c 4
 -618 1365 -608 1355 -588 1355 c 4
 -567 1355 -557 1365 -557 1385 c 4
 -557 1403 -567 1412 -588 1412 c 4
EndSplineSet
EndChar
StartChar: uni0E4B.left
Encoding: 158 63254 127
Width: 0
Flags: HW
HStem: 1409 106<-522 -407 -291 -175>
VStem: -407 116<1309 1409 1515 1617>
Fore
-407 1409 m 5
 -522 1409 l 5
 -522 1515 l 5
 -407 1515 l 5
 -407 1617 l 5
 -291 1617 l 5
 -291 1515 l 5
 -175 1515 l 5
 -175 1409 l 5
 -291 1409 l 5
 -291 1309 l 5
 -407 1309 l 5
 -407 1409 l 5
EndSplineSet
EndChar
StartChar: uni0E4C.left
Encoding: 159 63255 128
Width: 0
Flags: HW
HStem: 1237 79<-383 -372> 1392 77<-383 -373>
VStem: -526 106<1356 1378> -345 85<1356 1364>
Fore
-202 1482 m 4
 -207 1482 -248 1478 -325 1471 c 5
 -373 1469 l 5
 -340 1469 -312 1459 -292 1438 c 4
 -271 1415 -260 1390 -260 1363 c 4
 -258 1328 -268 1299 -290 1274 c 4
 -312 1250 -341 1237 -376 1237 c 4
 -421 1235 -457 1248 -484 1277 c 5
 -512 1302 -526 1336 -526 1378 c 4
 -526 1456 -495 1508 -433 1535 c 4
 -403 1549 -366 1557 -320 1559 c 4
 -278 1561 -244 1567 -219 1575 c 4
 -198 1582 -188 1602 -188 1635 c 5
 -91 1635 l 5
 -91 1594 -100 1561 -119 1535 c 5
 -137 1505 -165 1487 -202 1482 c 4
-383 1392 m 4
 -407 1392 -420 1380 -420 1356 c 4
 -420 1329 -407 1316 -383 1316 c 4
 -358 1316 -345 1329 -345 1356 c 4
 -345 1366 -349 1375 -355 1381 c 4
 -363 1388 -372 1392 -383 1392 c 4
EndSplineSet
EndChar
StartChar: uni0E01
Encoding: 161 3585 130
Width: 807
Flags: HW
HStem: -1 21G<84 221 563 696> 703 102<349 384>
VStem: 84 137<-1 400> 563 133<-1 553>
Fore
157 551 m 1
 144 558 125 564 102 570 c 0
 70 579 41 585 14 586 c 1
 14 630 l 1
 42 665 l 2
 53 677 75 697 109 723 c 1
 146 747 184 766 225 781 c 0
 266 796 319 805 382 805 c 0
 445 805 499 795 544 776 c 0
 591 755 628 726 656 688 c 0
 683 649 696 601 696 544 c 2
 696 -1 l 1
 563 -1 l 5
 563 533 l 2
 563 589 545 631 510 661 c 0
 474 689 428 703 371 703 c 0
 305 703 240 682 176 642 c 1
 206 635 l 2
 212 634 231 629 263 619 c 0
 288 610 310 598 331 582 c 1
 331 517 l 1
 306 517 281 509 257 494 c 0
 233 479 221 444 221 390 c 2
 221 -1 l 1
 84 -1 l 1
 84 381 l 2
 84 427 89 461 100 485 c 0
 111 511 130 533 157 551 c 1
EndSplineSet
EndChar
StartChar: uni0E02
Encoding: 162 3586 131
Width: 792
Flags: HW
HStem: -1 120<167 493> 444 95<127.835 143> 660 145<140 220> 766 20G<545 682>
VStem: -20 101<585 608> 200 97<599 608> 260 137<119 368> 359 116<587 608> 545 137<174 786>
Fore
359 587 m 1
 359 627 350 655 332 673 c 1
 310 690 288 699 267 702 c 1
 273 692 280 680 286 666 c 0
 293 645 297 624 297 602 c 0
 295 555 280 517 253 488 c 1
 224 459 186 444 140 444 c 0
 95 444 56 459 24 490 c 0
 -6 520 -20 558 -20 602 c 0
 -20 644 -9 681 15 713 c 0
 40 744 70 767 105 782 c 0
 140 798 178 805 220 805 c 0
 297 805 359 784 406 742 c 0
 452 702 475 653 475 596 c 0
 475 563 473 540 467 525 c 0
 461 511 450 492 436 470 c 2
 406 419 l 1
 400 404 397 384 397 358 c 2
 397 119 l 1
 482 119 l 2
 510 119 527 122 536 131 c 1
 542 139 545 157 545 186 c 2
 545 786 l 1
 682 786 l 1
 682 149 l 2
 682 86 667 46 637 29 c 1
 609 9 557 -1 482 -1 c 2
 167 -1 l 5
 167 119 l 1
 260 119 l 1
 260 353 l 2
 260 380 264 403 272 424 c 0
 279 440 291 459 308 481 c 0
 323 498 334 514 343 530 c 0
 349 538 354 557 359 587 c 1
140 539 m 0
 160 539 175 545 186 558 c 0
 195 569 200 583 200 599 c 0
 200 617 195 631 186 643 c 0
 176 654 160 660 140 660 c 0
 122 660 107 653 96 640 c 0
 85 630 81 616 81 599 c 0
 81 582 85 569 96 558 c 0
 107 545 122 539 140 539 c 0
EndSplineSet
EndChar
StartChar: uni0E03
Encoding: 163 3587 132
Width: 874
Flags: HW
HStem: -1 120<250 594> 337 93<147.639 164> 550 92<148.557 164> 766 20G<630 764>
VStem: 220 95<489 499> 345 134<119 482> 442 114<643 656> 630 134<187 786>
Fore
162 337 m 0
 101 337 57 356 28 394 c 1
 -3 432 -18 481 -18 540 c 0
 -18 564 -16 585 -13 603 c 0
 -10 643 7 679 35 712 c 0
 58 740 86 763 121 781 c 0
 150 797 176 805 197 805 c 1
 285 756 l 1
 384 805 l 5
 424 798 463 779 500 749 c 0
 537 718 556 683 556 644 c 0
 556 619 550 598 537 580 c 1
 497 533 l 1
 485 517 479 495 479 469 c 2
 479 119 l 1
 567 119 l 2
 594 119 612 123 620 132 c 1
 626 140 630 158 630 187 c 2
 630 786 l 1
 764 786 l 1
 764 187 l 2
 764 119 753 71 731 43 c 1
 712 14 666 -1 594 -1 c 2
 250 -1 l 1
 250 119 l 1
 345 119 l 1
 345 480 l 2
 345 546 369 591 417 617 c 1
 434 629 442 640 442 650 c 0
 442 667 425 684 391 701 c 1
 285 650 l 1
 176 701 l 1
 154 697 134 686 118 668 c 1
 105 650 97 636 95 626 c 1
 99 630 105 633 113 635 c 0
 126 640 142 642 162 642 c 0
 193 642 220 635 243 622 c 1
 263 612 280 595 294 571 c 0
 308 545 315 520 315 496 c 0
 317 454 304 416 276 381 c 1
 249 351 211 337 162 337 c 0
159 430 m 0
 179 430 194 435 204 448 c 0
 215 460 220 474 220 489 c 0
 220 507 215 522 204 533 c 1
 194 545 180 550 159 550 c 0
 144 550 130 544 115 531 c 0
 105 521 100 507 100 489 c 0
 100 473 105 459 115 448 c 0
 129 435 144 430 159 430 c 0
EndSplineSet
EndChar
StartChar: uni0E04
Encoding: 164 3588 133
Width: 800
Flags: HW
HStem: -2 21G<138 275 556 690> 506 95<339 353.309> 699 106<329 363>
VStem: 10 116<489 518> 138 137<-2 302> 399 95<432.12 448> 556 134<-2 529>
Fore
339 288 m 1
 301 293 l 1
 283 297 275 300 275 302 c 2
 275 -2 l 1
 138 -2 l 1
 138 129 l 2
 138 164 132 196 121 224 c 0
 107 256 91 288 72 319 c 0
 58 342 42 375 26 416 c 0
 15 443 10 477 10 518 c 0
 12 579 30 632 63 675 c 0
 96 720 139 752 191 772 c 0
 245 794 300 805 357 805 c 4
 416 805 471 795 522 774 c 0
 571 754 611 722 644 679 c 0
 675 637 690 586 690 527 c 2
 690 -2 l 1
 556 -2 l 1
 556 520 l 2
 556 577 536 621 496 652 c 0
 454 683 406 699 350 699 c 0
 292 699 240 682 195 650 c 0
 149 615 126 570 126 513 c 0
 126 480 132 449 142 421 c 0
 150 396 156 383 158 383 c 1
 158 386 l 2
 158 430 170 476 195 522 c 1
 219 573 266 599 339 601 c 0
 385 601 422 587 452 557 c 0
 480 527 494 490 494 445 c 0
 494 403 480 367 452 337 c 0
 424 307 386 291 339 288 c 1
339 383 m 0
 358 383 373 389 385 401 c 1
 394 413 399 428 399 445 c 0
 399 463 394 478 385 489 c 0
 374 501 359 506 339 506 c 0
 321 506 306 500 295 487 c 0
 284 477 279 463 279 445 c 0
 279 427 284 413 295 401 c 0
 307 389 321 383 339 383 c 0
EndSplineSet
EndChar
StartChar: uni0E05
Encoding: 165 3589 134
Width: 800
Flags: HW
HStem: -1 21G<138 275 556 690> 513 95<339 352.421>
VStem: 10 116<496 536> 138 137<-1 309> 399 95<452 464> 556 134<-1 544>
Fore
246 800 m 5
 367 749 l 1
 496 800 l 1
 541 787 579 765 610 735 c 0
 641 704 662 671 672 635 c 0
 684 595 690 561 690 533 c 2
 690 -1 l 1
 556 -1 l 1
 556 529 l 2
 556 564 552 595 544 622 c 0
 538 643 518 663 487 681 c 1
 367 637 l 1
 251 688 l 1
 211 672 180 650 158 622 c 1
 137 590 126 556 126 520 c 0
 126 487 132 456 142 427 c 0
 150 402 156 390 158 390 c 1
 158 392 l 2
 158 437 170 482 195 529 c 1
 219 579 266 606 339 608 c 0
 385 608 422 593 452 564 c 0
 480 534 494 496 494 452 c 0
 494 410 480 374 452 344 c 0
 424 313 386 297 339 295 c 1
 301 299 l 1
 283 304 275 307 275 309 c 2
 275 -1 l 1
 138 -1 l 1
 138 136 l 2
 138 171 132 203 121 231 c 0
 107 263 91 295 72 325 c 0
 58 349 42 381 26 423 c 0
 15 450 10 484 10 524 c 0
 12 659 91 751 246 800 c 5
339 390 m 0
 358 390 373 396 385 408 c 1
 394 420 399 435 399 452 c 0
 399 470 394 485 385 496 c 0
 374 507 359 513 339 513 c 0
 321 513 306 507 295 494 c 0
 284 483 279 469 279 452 c 0
 279 434 284 419 295 408 c 0
 307 396 321 390 339 390 c 0
EndSplineSet
EndChar
StartChar: uni0E06
Encoding: 166 3590 135
Width: 1002
Flags: HW
HStem: -16 104<312 334> -0 21G<758 892> 335 91<156 164> 548 90<156 163> 766 20G<758 892>
VStem: 161 106<145.695 164> 217 97<488 496> 343 134<120 252 363 481> 440 114<637 649> 758 134<0 786>
Fore
477 465 m 2
 477 364 l 1
 521 357 558 347 586 335 c 0
 606 328 641 309 691 278 c 1
 724 255 747 236 758 220 c 1
 758 786 l 1
 892 786 l 1
 892 -0 l 1
 758 -0 l 1
 758 13 746 40 723 79 c 0
 699 120 666 158 626 192 c 0
 587 225 537 245 477 252 c 1
 477 120 l 2
 477 81 465 49 438 22 c 0
 413 -3 378 -16 334 -16 c 0
 280 -16 237 2 207 37 c 0
 176 72 161 113 161 161 c 0
 161 212 178 257 210 296 c 0
 242 336 286 358 343 364 c 1
 343 479 l 2
 343 544 367 590 416 616 c 1
 432 622 440 632 440 645 c 0
 440 665 424 683 390 698 c 1
 283 647 l 1
 175 698 l 1
 151 694 131 683 115 664 c 0
 100 645 90 629 85 616 c 1
 89 620 98 625 113 629 c 0
 122 633 138 636 161 638 c 1
 206 638 242 624 270 596 c 0
 299 567 314 532 314 493 c 0
 316 451 301 414 270 382 c 0
 239 351 203 335 161 335 c 0
 101 338 56 356 27 391 c 0
 -4 428 -19 476 -19 534 c 0
 -19 556 -18 578 -15 599 c 0
 -6 657 23 706 71 744 c 0
 118 782 159 801 195 801 c 1
 283 755 l 1
 383 801 l 5
 421 796 460 779 499 748 c 0
 536 717 554 682 554 643 c 0
 554 623 551 607 544 594 c 1
 517 556 l 1
 487 516 l 1
 481 505 477 488 477 465 c 2
281 108 m 0
 288 95 300 88 316 88 c 0
 334 88 343 99 343 120 c 2
 343 256 l 1
 323 254 304 244 288 225 c 1
 274 203 267 181 267 159 c 0
 267 142 272 125 281 108 c 0
156 426 m 0
 173 426 188 432 200 444 c 0
 211 454 217 469 217 488 c 0
 217 505 212 519 202 530 c 0
 190 542 175 548 156 548 c 0
 139 548 125 542 113 530 c 0
 101 519 96 505 96 488 c 0
 96 469 101 454 113 444 c 0
 125 432 139 426 156 426 c 0
EndSplineSet
EndChar
StartChar: uni0E07
Encoding: 167 3591 136
Width: 641
Flags: HW
HStem: -22 115<381 390> 491 93<358.987 372> 706 95<360.431 385>
VStem: 214 97<645 655> 397 134<121 653> 432 99<633 655>
DStem: -11 493 96 563 249 53 174 431 -11 493 174 431 249 53 291 236
Fore
371 801 m 4
 417 801 455 787 487 760 c 1
 517 729 531 694 531 653 c 2
 531 113 l 2
 531 72 518 39 492 14 c 1
 462 -10 428 -22 390 -22 c 0
 325 -22 278 3 249 53 c 2
 -11 493 l 1
 96 563 l 1
 174 431 l 1
 291 236 l 1
 353 126 l 1
 364 104 374 93 383 93 c 0
 392 93 397 108 397 137 c 2
 397 493 l 1
 390 493 l 1
 371 491 l 1
 326 491 288 506 255 537 c 1
 228 567 214 603 214 645 c 0
 214 688 228 725 255 755 c 0
 285 786 323 801 371 801 c 4
371 584 m 0
 390 584 405 589 415 601 c 0
 426 613 432 627 432 645 c 0
 432 664 426 679 415 690 c 1
 407 701 392 706 371 706 c 0
 356 706 341 700 327 687 c 0
 316 677 311 663 311 645 c 0
 311 627 316 613 327 601 c 0
 340 589 355 584 371 584 c 0
EndSplineSet
EndChar
StartChar: uni0E08
Encoding: 168 3592 137
Width: 755
Flags: HW
HStem: -10 97<495 501> 236 95<231 243> 450 95<231 243> 695 110<310 357>
VStem: 75 95<378.933 393> 511 134<127 551>
Fore
645 157 m 2
 645 88 631 43 603 22 c 0
 578 1 543 -10 499 -10 c 0
 462 -10 432 -1 409 18 c 0
 385 34 367 62 356 101 c 1
 331 201 l 1
 312 260 l 1
 311 258 303 253 289 245 c 0
 277 239 258 236 231 236 c 0
 179 238 141 253 117 282 c 1
 89 312 75 348 75 390 c 0
 75 430 89 467 117 499 c 0
 144 530 182 545 231 545 c 0
 313 545 365 510 390 439 c 0
 393 430 l 2
 481 117 l 1
 483 97 489 87 497 87 c 0
 506 87 511 102 511 129 c 2
 511 540 l 2
 511 597 494 636 460 659 c 0
 427 683 384 695 333 695 c 0
 237 695 156 652 88 566 c 1
 2 628 l 1
 74 746 185 805 338 805 c 0
 427 805 500 782 559 737 c 0
 616 694 645 630 645 545 c 2
 645 157 l 2
231 331 m 0
 251 331 266 336 278 346 c 1
 287 358 291 372 291 390 c 0
 291 408 287 423 278 434 c 1
 266 445 251 450 231 450 c 0
 212 450 197 444 187 432 c 0
 176 421 170 407 170 390 c 0
 170 374 176 360 187 349 c 0
 199 337 214 331 231 331 c 0
EndSplineSet
EndChar
StartChar: uni0E09
Encoding: 169 3593 138
Width: 867
Flags: HW
HStem: -17 99<680 706> -1 21G<159 289> 438 95<137 152> 695 110<351 385>
VStem: -16 97<366 384> 159 135<-1 394> 201 93<366 394> 553 133<109 257 356 560> 746 92<152 165>
Fore
139 533 m 0
 181 533 217 520 247 494 c 0
 278 469 294 435 294 394 c 2
 294 206 l 1
 321 245 359 277 408 301 c 1
 453 327 501 345 553 357 c 1
 553 538 l 2
 553 590 538 629 507 656 c 0
 476 682 429 695 366 695 c 0
 326 695 286 682 245 656 c 0
 207 631 172 600 141 564 c 1
 51 626 l 1
 84 675 129 719 187 756 c 1
 244 788 307 805 377 805 c 0
 471 805 547 781 604 734 c 1
 659 686 686 621 686 540 c 2
 686 357 l 1
 735 348 773 325 799 288 c 0
 827 245 841 200 838 153 c 1
 838 102 822 61 792 31 c 0
 762 -1 724 -17 680 -17 c 0
 646 -17 617 -7 592 12 c 0
 566 34 553 66 553 109 c 2
 553 257 l 1
 483 240 423 206 373 156 c 0
 324 107 296 54 289 -1 c 1
 159 -1 l 1
 159 226 l 1
 150 223 l 1
 139 221 l 1
 90 223 53 240 26 270 c 0
 -2 298 -16 334 -16 376 c 0
 -16 416 -2 452 26 484 c 0
 53 517 90 533 139 533 c 0
746 165 m 0
 746 190 740 211 729 228 c 0
 718 243 703 253 686 257 c 1
 686 112 l 1
 688 92 695 82 706 82 c 1
 713 84 720 89 726 96 c 1
 740 131 l 1
 744 144 746 155 746 165 c 0
141 316 m 0
 160 316 175 322 187 334 c 1
 196 345 201 360 201 378 c 0
 201 396 196 411 187 422 c 0
 177 433 161 438 141 438 c 0
 124 438 109 432 97 420 c 0
 86 409 81 395 81 378 c 0
 81 361 86 347 97 336 c 0
 108 323 123 316 141 316 c 0
EndSplineSet
EndChar
StartChar: uni0E0A
Encoding: 170 3594 139
Width: 799
Flags: HW
HStem: -1 120<181 521> 443 97<157 163> 575 97<470 483> 782 20G<213 258.5>
VStem: 0 102<589 608> 222 97<589 608> 278 134<119 368> 556 133<174 470>
Fore
373 591 m 4
 375 627 366 655 344 675 c 5
 327 694 307 705 285 707 c 5
 287 705 294 693 307 670 c 5
 315 647 319 626 319 606 c 4
 319 560 306 521 278 489 c 4
 248 458 209 443 159 443 c 4
 115 443 76 458 44 489 c 4
 14 519 0 557 0 606 c 4
 0 644 12 678 37 707 c 5
 60 737 89 760 125 776 c 4
 162 794 197 802 229 802 c 4
 288 802 340 790 384 765 c 4
 429 739 458 709 470 672 c 5
 489 672 519 684 560 707 c 5
 602 728 645 776 689 853 c 5
 786 790 l 5
 764 738 735 699 699 672 c 4
 666 648 639 632 618 624 c 5
 630 618 645 605 664 582 c 5
 681 559 689 519 689 464 c 6
 689 149 l 6
 689 106 685 74 676 52 c 4
 666 31 650 17 627 10 c 4
 602 3 567 -1 521 -1 c 6
 181 -1 l 5
 181 119 l 5
 278 119 l 5
 278 359 l 6
 278 383 282 404 289 423 c 4
 297 441 308 459 324 478 c 5
 358 527 l 5
 368 543 373 565 373 591 c 4
161 540 m 4
 179 540 194 547 205 559 c 4
 217 570 222 583 222 600 c 4
 222 619 217 634 205 644 c 4
 195 655 180 661 161 661 c 4
 144 661 130 655 118 642 c 4
 107 631 102 617 102 600 c 4
 102 583 107 570 118 559 c 4
 130 547 144 540 161 540 c 4
483 575 m 5
 481 541 477 518 472 508 c 4
 464 490 455 476 446 467 c 5
 439 455 430 439 421 418 c 4
 415 403 412 379 412 346 c 6
 412 119 l 5
 490 119 l 6
 519 119 537 123 546 131 c 4
 552 139 556 157 556 186 c 6
 556 452 l 6
 556 500 546 533 527 549 c 5
 512 566 497 575 483 575 c 5
EndSplineSet
EndChar
StartChar: uni0E0B
Encoding: 171 3595 140
Width: 847
Flags: HW
HStem: -1 120<228 571> 341 93<139 149> 555 92<139 149>
VStem: -36 118<494 545> 202 97<494 504> 325 134<119 372> 606 133<174 473>
Fore
369 809 m 5
 399 807 432 791 469 763 c 4
 504 734 524 704 529 672 c 5
 551 675 579 689 615 712 c 5
 652 733 692 780 737 853 c 5
 836 790 l 5
 814 736 785 697 751 672 c 4
 718 648 691 632 670 624 c 5
 682 619 697 605 714 582 c 5
 731 556 739 516 739 464 c 6
 739 149 l 6
 739 87 728 46 707 27 c 4
 684 8 638 -1 571 -1 c 6
 228 -1 l 5
 228 119 l 5
 325 119 l 5
 325 372 l 6
 325 396 329 417 337 434 c 5
 347 451 359 467 374 483 c 5
 411 531 l 5
 420 545 425 565 427 591 c 5
 427 623 424 646 418 661 c 4
 412 675 399 688 379 702 c 5
 379 703 l 5
 374 705 l 5
 270 654 l 5
 160 705 l 5
 134 701 115 690 103 672 c 4
 90 654 82 640 80 631 c 5
 84 634 90 637 98 640 c 4
 107 644 124 647 147 647 c 4
 176 647 203 640 228 626 c 4
 250 614 267 597 279 575 c 4
 293 551 299 526 299 501 c 4
 301 458 288 420 258 388 c 4
 230 357 194 341 147 341 c 4
 87 341 42 360 10 399 c 5
 -21 440 -36 489 -36 545 c 5
 -32 608 l 5
 -23 649 -7 685 17 714 c 4
 45 746 73 770 103 785 c 4
 134 801 159 809 180 809 c 5
 270 760 l 5
 332 790 l 5
 369 809 l 5
531 575 m 5
 529 549 524 529 518 515 c 4
 510 496 501 482 492 471 c 5
 469 420 l 5
 463 403 459 378 459 346 c 6
 459 119 l 5
 538 119 l 6
 566 119 585 123 593 131 c 4
 602 141 606 159 606 186 c 6
 606 452 l 6
 606 501 595 533 575 549 c 5
 559 566 545 575 531 575 c 5
142 434 m 4
 161 434 177 440 189 452 c 5
 198 465 202 479 202 494 c 4
 202 512 198 527 189 538 c 5
 177 549 162 555 142 555 c 4
 126 555 111 548 98 536 c 4
 88 525 82 511 82 494 c 4
 82 477 88 463 98 452 c 4
 110 440 125 434 142 434 c 4
EndSplineSet
EndChar
StartChar: uni0E0C
Encoding: 172 3596 141
Width: 1044
Flags: HW
HStem: -14 80<500 513> -14 85<208 231> -1 21G<800 934> 196 86<209 231> 710 95<333 368> 766 20G<800 934>
VStem: 69 85<125 138> 69 137<136 403> 282 84<134 147> 392 75<125 147> 500 133<292 592> 520 113<78 182> 800 134<185 786>
Fore
633 92 m 2
 633 61 623 36 604 15 c 0
 583 -4 553 -14 513 -14 c 0
 473 -14 443 -0 423 28 c 0
 403 55 392 91 392 136 c 0
 392 173 401 207 418 238 c 0
 435 264 462 283 500 293 c 1
 500 592 l 2
 500 628 485 657 456 677 c 0
 426 697 386 708 335 710 c 0
 311 710 281 705 244 693 c 0
 203 681 175 665 160 645 c 1
 181 641 204 635 229 627 c 0
 262 617 291 602 317 583 c 1
 317 518 l 1
 291 518 266 510 242 494 c 0
 218 479 206 445 206 390 c 2
 206 280 l 1
 210 282 l 1
 217 282 l 2
 249 282 276 275 298 260 c 0
 321 245 338 227 348 205 c 0
 360 185 366 161 366 134 c 0
 366 108 360 83 348 62 c 0
 337 39 320 21 298 6 c 0
 275 -7 248 -14 217 -14 c 0
 169 -14 133 1 109 30 c 1
 82 58 69 93 69 136 c 2
 69 381 l 2
 69 427 75 462 85 485 c 0
 96 512 116 534 143 552 c 1
 129 559 111 565 87 571 c 0
 55 580 26 586 -1 587 c 1
 -1 631 l 1
 16 658 55 694 116 740 c 0
 175 783 259 805 368 805 c 4
 422 805 465 797 498 781 c 0
 535 764 562 745 578 724 c 0
 599 698 613 673 620 647 c 0
 629 620 633 595 633 571 c 2
 633 286 l 1
 662 280 688 268 712 251 c 0
 745 231 765 218 772 212 c 0
 786 201 795 192 800 185 c 1
 800 786 l 1
 934 786 l 1
 934 -1 l 1
 800 -1 l 1
 789 25 770 59 743 101 c 1
 711 145 674 172 633 182 c 1
 633 92 l 2
220 71 m 0
 230 71 242 74 255 81 c 1
 264 88 271 96 275 103 c 0
 279 112 282 123 282 134 c 0
 282 154 276 170 266 180 c 0
 255 191 240 196 220 196 c 0
 201 196 185 190 173 178 c 0
 160 164 154 149 154 134 c 0
 154 119 160 105 173 92 c 0
 185 78 201 71 220 71 c 0
520 79 m 1
 520 205 l 1
 500 203 486 195 478 182 c 0
 471 170 467 151 467 127 c 0
 467 111 472 97 481 85 c 1
 488 73 497 66 507 66 c 0
 513 66 518 70 520 79 c 1
EndSplineSet
EndChar
StartChar: uni0E0D
Encoding: 173 3597 142
Width: 1044
Flags: HW
HStem: -383 115<635 666> -121 85<544 546> -15 85<208 231> -1 120<423 756> 195 86<209 231> 709 95<333 368> 765 20G<800 934>
VStem: 69 85<128 137> 69 137<135 402> 282 84<133 146> 392 88<-184 -171.763> 500 133<119 591> 608 81<-192 -174> 800 134<160 785>
Fore
934 785 m 5
 934 149 l 6
 934 108 928 76 916 52 c 4
 904 31 885 17 858 10 c 4
 830 2 792 -1 745 -1 c 6
 423 -1 l 5
 423 119 l 5
 500 119 l 5
 500 591 l 6
 500 628 485 656 456 677 c 4
 426 696 386 707 335 709 c 4
 311 709 281 704 244 692 c 4
 203 680 175 664 160 644 c 5
 181 640 204 634 229 626 c 4
 262 616 291 601 317 582 c 5
 317 517 l 5
 291 517 266 509 242 494 c 4
 218 478 206 444 206 390 c 6
 206 279 l 5
 210 281 l 5
 217 281 l 6
 249 281 276 274 298 260 c 4
 321 245 338 226 348 204 c 4
 360 184 366 160 366 133 c 4
 366 107 360 83 348 61 c 4
 337 38 320 20 298 5 c 4
 275 -8 248 -15 217 -15 c 4
 169 -15 133 0 109 29 c 5
 82 57 69 92 69 135 c 6
 69 381 l 6
 69 427 75 461 85 485 c 4
 96 511 116 533 143 551 c 5
 129 558 111 564 87 570 c 4
 56 579 26 585 -1 586 c 5
 -1 630 l 5
 16 657 55 694 116 739 c 4
 175 782 259 804 368 804 c 4
 422 804 465 796 498 781 c 4
 535 763 562 744 578 723 c 4
 599 697 613 672 620 646 c 4
 629 619 633 594 633 570 c 6
 633 119 l 5
 745 119 l 6
 769 119 785 123 794 131 c 5
 798 138 800 156 800 186 c 6
 800 785 l 5
 934 785 l 5
666 -268 m 1
 693 -268 722 -254 754 -226 c 1
 783 -197 798 -136 798 -45 c 1
 930 -45 l 1
 930 -130 916 -198 886 -249 c 0
 855 -300 818 -335 774 -353 c 1
 733 -373 687 -383 635 -383 c 0
 592 -383 558 -378 531 -367 c 0
 479 -349 443 -325 423 -295 c 0
 400 -261 390 -224 392 -184 c 0
 392 -145 406 -111 434 -80 c 1
 459 -51 496 -36 544 -36 c 0
 593 -36 630 -51 655 -80 c 0
 678 -111 689 -146 689 -187 c 0
 689 -221 682 -248 666 -268 c 1
544 -247 m 0
 563 -247 579 -241 592 -229 c 0
 603 -217 608 -203 608 -184 c 0
 608 -166 603 -151 592 -140 c 0
 578 -128 562 -121 544 -121 c 0
 526 -121 510 -128 498 -140 c 0
 486 -151 480 -166 480 -184 c 0
 480 -201 487 -216 500 -229 c 0
 512 -241 527 -247 544 -247 c 0
220 70 m 4
 230 70 242 73 255 80 c 5
 264 88 271 95 275 103 c 4
 279 112 282 122 282 133 c 4
 282 153 276 169 266 179 c 4
 255 190 240 195 220 195 c 4
 201 195 185 189 173 177 c 4
 160 163 154 148 154 133 c 4
 154 118 160 104 173 91 c 4
 185 77 201 70 220 70 c 4
EndSplineSet
EndChar
StartChar: uni0E0E
Encoding: 174 3598 143
Width: 880
Flags: HW
HStem: -378 114<240 251> -149 113<271 293> 205 88<141 152> 703 102<421 467>
VStem: -14 88<133 151> 79 108<-213 -206> 207 86<133 151> 636 134<-195 555>
Fore
509 -109 m 5
 557 -136 583 -152 587 -155 c 6
 636 -195 l 5
 636 534 l 6
 636 589 617 631 580 662 c 4
 544 689 499 703 444 703 c 4
 412 703 379 698 344 686 c 4
 310 677 279 663 249 642 c 5
 317 627 l 6
 343 621 372 606 404 582 c 5
 404 518 l 5
 380 518 356 510 333 494 c 4
 306 478 293 444 293 390 c 6
 293 141 l 6
 293 95 280 58 254 30 c 5
 230 1 193 -14 141 -16 c 5
 89 -14 51 1 28 30 c 5
 0 59 -14 94 -14 136 c 4
 -14 181 0 218 28 247 c 5
 53 278 90 293 141 293 c 6
 152 293 l 5
 157 291 l 5
 157 381 l 6
 157 425 163 460 176 485 c 4
 188 512 206 535 231 552 c 5
 219 558 201 564 176 571 c 4
 142 580 112 585 85 587 c 5
 85 631 l 5
 115 666 l 6
 129 682 152 701 183 724 c 4
 216 747 254 766 296 781 c 4
 338 797 392 805 455 805 c 4
 517 805 572 795 618 775 c 5
 666 756 703 727 728 686 c 5
 756 647 770 600 770 545 c 6
 770 -378 l 5
 636 -378 l 5
 604 -333 573 -299 543 -276 c 4
 510 -249 486 -232 472 -223 c 5
 454 -266 426 -302 388 -332 c 4
 344 -365 295 -380 242 -378 c 4
 199 -378 161 -361 127 -327 c 5
 95 -297 79 -257 79 -206 c 4
 81 -154 99 -114 134 -84 c 4
 169 -54 214 -38 271 -36 c 4
 305 -36 348 -44 399 -61 c 5
 410 -23 l 5
 423 43 l 5
 536 17 l 5
 525 -54 l 5
 509 -109 l 5
141 71 m 4
 161 71 177 78 189 92 c 4
 201 106 207 122 207 138 c 4
 207 158 202 174 192 187 c 4
 179 199 163 205 141 205 c 4
 120 205 104 199 92 187 c 4
 80 173 74 156 74 138 c 4
 74 122 80 106 92 92 c 4
 104 78 120 71 141 71 c 4
293 -255 m 5
 317 -244 335 -230 346 -211 c 4
 358 -193 366 -180 368 -170 c 5
 338 -156 307 -149 273 -149 c 4
 247 -149 225 -155 210 -167 c 4
 195 -179 187 -194 187 -213 c 5
 192 -235 l 5
 198 -254 218 -264 251 -264 c 4
 271 -264 285 -261 293 -255 c 5
EndSplineSet
EndChar
StartChar: uni0E0F
Encoding: 175 3599 144
Width: 880
Flags: HW
HStem: -380 99<200 224> -179 97<205 227> 205 88<129 143> 703 102<430 467>
VStem: -14 80<131 149> 66 97<-223 -213> 201 93<131 149> 636 134<-199 554>
Fore
555 -118 m 5
 636 -199 l 5
 636 534 l 6
 636 589 617 632 580 662 c 4
 544 690 499 703 444 703 c 4
 412 703 379 698 344 687 c 4
 310 677 279 663 249 642 c 5
 317 627 l 6
 343 621 372 606 404 583 c 5
 404 518 l 5
 380 518 356 510 333 494 c 4
 306 479 294 444 294 390 c 6
 294 141 l 6
 294 95 280 58 254 30 c 5
 230 1 193 -14 141 -16 c 5
 89 -14 51 1 28 30 c 5
 0 59 -14 94 -14 136 c 4
 -14 181 0 218 28 247 c 5
 53 278 90 293 141 293 c 6
 152 293 l 5
 157 291 l 5
 157 381 l 6
 157 425 163 460 176 485 c 4
 188 513 206 535 231 552 c 5
 219 558 201 564 176 571 c 4
 142 580 112 586 85 587 c 5
 85 631 l 5
 115 666 l 6
 129 682 152 701 183 724 c 4
 216 747 254 766 296 781 c 4
 338 797 392 805 455 805 c 4
 517 805 572 795 618 775 c 5
 666 757 703 727 728 687 c 5
 756 647 770 600 770 545 c 6
 770 -378 l 5
 642 -378 l 5
 548 -264 l 5
 441 -378 l 5
 429 -352 416 -330 402 -312 c 4
 391 -299 380 -286 368 -274 c 5
 357 -297 341 -318 322 -338 c 4
 296 -366 258 -380 207 -380 c 4
 166 -380 133 -365 108 -336 c 4
 80 -304 66 -263 66 -213 c 5
 71 -172 88 -139 117 -116 c 4
 148 -93 183 -82 222 -82 c 4
 260 -82 297 -92 331 -114 c 5
 337 -98 343 -77 349 -51 c 4
 358 -10 364 20 366 39 c 5
 465 22 l 5
 449 -73 432 -140 414 -179 c 5
 432 -195 l 5
 453 -221 l 5
 518 -158 l 6
 543 -133 555 -120 555 -118 c 5
141 71 m 5
 163 74 179 82 187 94 c 4
 196 106 201 120 201 138 c 4
 201 158 195 174 185 187 c 4
 173 199 154 205 129 205 c 5
 110 203 94 196 83 185 c 4
 72 173 66 158 66 141 c 4
 66 120 73 104 88 92 c 5
 100 78 117 71 141 71 c 5
242 -274 m 4
 255 -268 267 -256 277 -237 c 5
 289 -211 l 5
 289 -211 l 5
 262 -190 238 -179 218 -179 c 4
 191 -179 173 -191 163 -215 c 5
 163 -259 179 -281 212 -281 c 4
 223 -281 233 -278 242 -274 c 4
EndSplineSet
EndChar
StartChar: uni0E10
Encoding: 176 3600 145
Width: 665
Flags: HW
HStem: -443 81<48 62> -297 78<414 426> -277 79<48 66> -114 80<413 435> 0 21G<407 553> 188 93<204 217> 403 97<204 217.192> 644 107<544 561.454> 705 99<279 301>
VStem: -68 83<-325 -311> 49 95<343 345> 291 84<-172 -156> 420 133<272 405> 439 116<-323 -295> 477 78<-172 -156>
Fore
407 0 m 5
 401 38 384 87 359 149 c 5
 336 209 323 239 320 239 c 5
 313 230 301 219 285 207 c 5
 265 195 238 188 204 188 c 4
 154 188 116 204 91 235 c 5
 63 265 49 301 49 343 c 4
 49 387 63 423 91 452 c 4
 118 482 156 498 204 500 c 4
 248 500 284 492 310 476 c 4
 334 459 354 429 369 385 c 5
 401 316 l 5
 420 272 l 5
 420 381 l 6
 420 438 413 475 398 491 c 4
 384 507 351 522 299 535 c 4
 220 556 166 568 137 573 c 6
 14 591 l 5
 14 642 l 5
 51 692 91 732 135 763 c 4
 178 790 227 804 283 804 c 4
 334 804 384 796 433 778 c 5
 494 760 531 751 544 751 c 4
 570 751 599 758 632 772 c 5
 641 732 l 5
 648 709 653 686 655 665 c 5
 610 651 573 644 544 644 c 5
 489 648 l 5
 415 674 l 5
 338 697 l 6
 323 702 306 705 285 705 c 4
 265 705 245 700 225 690 c 4
 203 680 190 672 188 665 c 5
 281 652 l 5
 325 644 357 636 376 630 c 4
 453 610 502 582 524 547 c 4
 543 514 553 460 553 385 c 6
 553 0 l 5
 407 0 l 5
204 281 m 5
 224 281 238 287 248 299 c 4
 259 310 264 324 264 343 c 4
 264 361 259 375 248 385 c 4
 238 397 224 403 204 403 c 4
 184 403 170 397 160 385 c 4
 149 375 144 361 144 343 c 4
 144 329 149 315 160 301 c 5
 171 290 186 283 204 281 c 5
402 -348 m 1
 439 -323 l 1
 439 -295 l 1
 423 -297 l 1
 381 -297 349 -284 326 -257 c 1
 303 -233 291 -202 291 -165 c 0
 291 -128 304 -97 328 -72 c 0
 352 -46 383 -34 423 -34 c 0
 462 -34 493 -46 518 -70 c 0
 542 -93 555 -123 555 -158 c 2
 555 -297 l 2
 555 -320 548 -339 534 -352 c 1
 521 -369 504 -383 483 -394 c 2
 406 -438 l 1
 316 -387 l 1
 238 -436 l 1
 175 -374 l 1
 154 -422 112 -445 51 -443 c 0
 20 -443 -9 -430 -35 -403 c 1
 -57 -377 -68 -346 -68 -311 c 0
 -68 -278 -54 -251 -26 -230 c 0
 0 -208 30 -198 64 -198 c 0
 96 -198 126 -208 152 -230 c 1
 164 -170 l 1
 168 -140 170 -105 170 -65 c 1
 258 -65 l 1
 258 -114 255 -155 249 -191 c 0
 243 -232 232 -268 217 -297 c 1
 254 -334 l 1
 287 -316 l 2
 306 -304 316 -297 316 -295 c 1
 402 -348 l 1
62 -277 m 0
 45 -277 34 -281 27 -290 c 0
 19 -300 15 -311 15 -323 c 0
 15 -349 31 -362 62 -362 c 0
 78 -362 92 -355 104 -341 c 0
 113 -328 119 -317 122 -308 c 1
 117 -302 110 -295 101 -288 c 0
 89 -280 75 -277 62 -277 c 0
426 -219 m 0
 441 -219 453 -213 462 -202 c 1
 472 -193 477 -181 477 -167 c 0
 477 -153 472 -141 462 -131 c 0
 454 -120 441 -114 426 -114 c 0
 407 -114 394 -120 388 -131 c 1
 379 -142 375 -154 375 -167 c 0
 375 -181 379 -193 388 -202 c 1
 395 -213 408 -219 426 -219 c 0
EndSplineSet
EndChar
StartChar: uni0E11
Encoding: 177 3601 146
Width: 1027
Flags: HW
HStem: -2 21G<321 447 783 917> 341 93<122.417 140> 554 92<132 150> 683 106<751 756>
VStem: -43 118<493 542> 195 95<482 500> 321 134<-2 500> 418 108<647 658> 783 134<-2 630>
DStem: 591 656 718 652 455 323 447 -2
Fore
455 478 m 2
 455 323 l 1
 591 656 l 1
 613 707 633 741 649 760 c 0
 667 780 701 789 753 789 c 4
 826 789 871 773 890 741 c 0
 908 709 917 663 917 603 c 2
 917 -2 l 1
 783 -2 l 1
 783 593 l 2
 783 626 781 650 778 665 c 0
 776 674 768 680 756 683 c 1
 744 683 735 679 727 672 c 1
 718 652 l 1
 447 -2 l 1
 321 -2 l 1
 321 484 l 2
 321 550 344 595 392 621 c 1
 409 632 418 643 418 654 c 0
 418 669 401 686 367 705 c 1
 261 654 l 1
 151 705 l 1
 128 700 109 689 93 672 c 1
 81 654 73 640 71 630 c 1
 75 634 81 637 89 639 c 0
 100 644 116 646 138 646 c 0
 168 646 195 639 219 626 c 0
 242 614 259 597 272 575 c 0
 282 555 288 530 290 500 c 1
 290 455 276 417 248 387 c 0
 221 356 184 341 138 341 c 0
 78 341 33 359 3 396 c 0
 -28 435 -43 484 -43 542 c 0
 -43 566 -42 588 -39 607 c 0
 -30 648 -14 684 10 716 c 1
 36 747 65 770 96 785 c 0
 124 801 150 809 173 809 c 1
 261 760 l 1
 360 809 l 1
 400 802 438 783 473 753 c 0
 509 722 526 687 526 648 c 0
 526 631 524 617 519 605 c 1
 491 570 l 2
 483 560 474 547 464 531 c 0
 458 521 455 503 455 478 c 2
135 434 m 0
 154 434 170 439 182 452 c 1
 191 464 195 478 195 493 c 0
 195 511 191 526 182 537 c 1
 170 549 155 554 135 554 c 0
 119 554 104 548 91 535 c 0
 81 525 75 511 75 493 c 0
 75 477 81 463 91 452 c 0
 103 439 118 434 135 434 c 0
EndSplineSet
EndChar
StartChar: uni0E12
Encoding: 178 3602 147
Width: 1082
Flags: HW
HStem: -14 80<538 552> 0 21G<112 230 834 969> 514 95<329 337> 766 20G<836 969>
VStem: -16 115<493 516> 172 97<449 457> 389 95<453 467> 428 77<127 138> 537 134<292 565> 556 115<78 183> 836 133<185 786>
Fore
205 163 m 1
 250 233 l 1
 296 300 l 1
 264 302 235 319 209 349 c 0
 184 378 172 414 172 455 c 0
 172 499 187 535 216 565 c 0
 245 594 283 609 329 609 c 0
 377 609 414 595 440 567 c 0
 469 532 484 494 484 453 c 0
 486 403 472 358 442 317 c 1
 230 0 l 1
 112 0 l 1
 112 76 106 137 93 183 c 1
 58 254 l 2
 37 294 19 337 2 384 c 1
 -10 426 -16 470 -16 516 c 0
 -13 580 14 639 66 693 c 1
 115 748 168 784 225 801 c 1
 350 748 l 1
 477 803 l 1
 556 764 608 726 632 689 c 1
 658 654 671 603 671 534 c 2
 671 287 l 1
 708 278 742 262 773 238 c 1
 836 185 l 1
 836 786 l 1
 969 786 l 1
 969 0 l 1
 834 0 l 1
 823 28 804 62 778 101 c 0
 750 144 714 171 671 183 c 1
 671 92 l 2
 671 64 661 38 640 15 c 0
 619 -4 590 -14 552 -14 c 0
 512 -14 482 0 461 28 c 0
 437 58 426 94 428 136 c 0
 428 172 438 206 457 238 c 0
 473 264 500 283 537 293 c 1
 537 552 l 2
 537 596 531 627 519 647 c 0
 508 666 491 681 470 693 c 1
 350 647 l 1
 225 693 l 1
 141 650 99 589 99 511 c 0
 99 455 121 383 165 296 c 0
 179 268 189 239 197 210 c 1
 205 163 l 1
556 79 m 1
 556 205 l 1
 522 201 505 175 505 127 c 0
 505 112 509 98 517 85 c 1
 527 73 536 66 543 66 c 0
 549 66 554 70 556 79 c 1
329 391 m 0
 349 391 363 397 373 409 c 0
 384 420 389 435 389 453 c 0
 389 472 384 486 373 497 c 1
 365 508 350 514 329 514 c 0
 311 514 296 507 285 495 c 0
 274 484 269 470 269 453 c 0
 269 435 274 420 285 409 c 0
 297 397 312 391 329 391 c 0
EndSplineSet
EndChar
StartChar: uni0E13
Encoding: 179 3603 148
Width: 1073
Flags: HW
HStem: -36 20G<900.5 940.5> -14 85<200 222> 0 21G<491 620> 196 86<201 222> 710 95<324 359> 766 20G<792 926>
VStem: 61 85<127 145> 61 136<136 401> 273 84<134 145> 491 133<0 592> 792 134<102 257 357 786> 984 93<152 179>
Fore
491 0 m 1
 491 592 l 2
 491 629 476 657 447 678 c 0
 418 697 377 708 326 710 c 0
 302 710 272 705 236 693 c 0
 194 681 166 665 151 645 c 1
 172 641 195 635 220 627 c 0
 253 617 282 602 308 583 c 1
 308 518 l 1
 282 518 258 510 233 495 c 0
 209 479 197 445 197 391 c 2
 197 280 l 1
 202 282 l 1
 209 282 l 2
 240 282 267 275 289 261 c 0
 312 246 329 227 340 205 c 0
 351 185 357 161 357 134 c 0
 357 108 351 84 340 62 c 0
 328 39 311 21 289 6 c 0
 266 -7 240 -14 209 -14 c 0
 160 -14 124 1 100 30 c 1
 74 58 61 93 61 136 c 2
 61 382 l 2
 61 427 66 462 76 485 c 0
 88 512 107 534 134 552 c 1
 120 559 102 565 79 571 c 0
 46 580 17 586 -9 587 c 1
 -9 631 l 1
 7 658 46 695 107 740 c 0
 166 783 250 805 359 805 c 0
 413 805 456 797 489 782 c 0
 527 764 553 745 569 724 c 0
 590 698 604 673 611 647 c 0
 620 620 624 595 624 571 c 2
 624 245 l 1
 646 271 673 295 706 317 c 0
 741 340 770 354 792 358 c 1
 792 786 l 1
 926 786 l 1
 926 358 l 1
 973 349 1011 326 1039 289 c 0
 1064 253 1077 209 1077 154 c 0
 1077 104 1061 63 1030 32 c 0
 1000 0 963 -16 918 -16 c 0
 883 -16 853 -6 829 13 c 0
 804 33 792 66 792 110 c 2
 792 258 l 1
 746 240 708 206 679 157 c 0
 646 104 626 52 620 0 c 1
 491 0 l 1
211 71 m 0
 221 71 233 74 246 81 c 1
 256 88 262 96 266 104 c 0
 271 113 273 123 273 134 c 0
 273 154 268 170 257 180 c 0
 247 191 231 196 211 196 c 0
 192 196 177 190 165 178 c 0
 152 164 146 149 146 134 c 0
 146 119 152 105 165 92 c 0
 177 78 192 71 211 71 c 0
984 166 m 0
 984 189 977 209 965 227 c 0
 953 243 940 254 926 258 c 1
 926 113 l 2
 926 93 931 83 942 83 c 0
 955 85 965 94 973 110 c 0
 980 129 984 148 984 166 c 0
EndSplineSet
EndChar
StartChar: uni0E14
Encoding: 180 3604 149
Width: 799
Flags: HW
HStem: -1 21G<129 247 554 688> 511 95<346 357> 688 116<339 373>
VStem: 4 115<489 515> 189 97<446 454> 406 95<450 464> 554 134<-1 546>
Fore
351 804 m 0
 466 802 551 775 605 723 c 0
 661 670 688 607 688 533 c 2
 688 -1 l 1
 554 -1 l 1
 554 544 l 2
 554 592 535 628 496 654 c 1
 456 677 409 688 355 688 c 0
 294 688 239 671 191 637 c 0
 143 603 119 557 119 498 c 0
 119 454 140 386 182 295 c 0
 196 267 206 238 214 209 c 1
 222 163 l 1
 267 230 l 2
 265 229 281 251 313 297 c 1
 281 299 252 315 226 346 c 0
 201 375 189 410 189 452 c 0
 189 495 204 532 233 561 c 0
 262 591 300 606 346 606 c 0
 394 606 431 592 457 564 c 0
 486 529 501 491 501 450 c 0
 503 400 489 355 459 314 c 1
 247 -1 l 1
 129 -1 l 1
 129 75 123 137 110 182 c 1
 75 253 l 1
 57 292 40 335 24 383 c 1
 10 433 4 477 4 515 c 0
 6 563 22 608 52 652 c 0
 82 697 122 734 173 763 c 0
 225 790 284 804 351 804 c 0
346 390 m 0
 366 390 380 396 390 408 c 0
 401 419 406 433 406 450 c 0
 406 468 401 483 390 494 c 1
 382 505 367 511 346 511 c 0
 329 511 315 504 302 491 c 0
 291 481 286 467 286 450 c 0
 286 433 291 419 302 408 c 0
 314 396 329 390 346 390 c 0
EndSplineSet
EndChar
StartChar: uni0E15
Encoding: 181 3605 150
Width: 799
Flags: HW
HStem: -1 21G<129 247 554 688> 513 95<346 354>
VStem: 1 115<492 515> 189 97<446 464> 406 95<452 464> 554 134<-1 564>
Fore
688 -1 m 1
 554 -1 l 1
 554 551 l 2
 554 595 548 627 536 646 c 0
 525 665 508 681 487 693 c 1
 368 646 l 1
 242 693 l 1
 159 649 116 588 116 511 c 0
 116 454 139 382 182 295 c 0
 196 267 206 238 214 209 c 1
 222 163 l 1
 267 233 l 1
 313 299 l 1
 281 302 252 318 226 348 c 0
 201 377 189 413 189 454 c 0
 189 498 204 534 233 564 c 0
 263 593 300 608 346 608 c 0
 394 608 431 594 457 566 c 0
 486 531 501 493 501 452 c 0
 503 402 489 357 459 316 c 1
 247 -1 l 1
 129 -1 l 1
 129 76 123 137 110 182 c 1
 75 253 l 2
 55 293 36 336 20 383 c 1
 8 425 1 469 1 515 c 0
 4 579 31 638 83 693 c 1
 132 748 185 783 242 800 c 1
 368 747 l 1
 494 802 l 5
 573 763 625 725 649 688 c 1
 675 653 688 602 688 533 c 2
 688 -1 l 1
346 390 m 0
 366 390 380 396 390 408 c 0
 401 419 406 434 406 452 c 0
 406 471 401 485 390 496 c 1
 382 507 367 513 346 513 c 0
 328 513 313 507 302 494 c 0
 292 483 286 469 286 452 c 0
 286 434 292 419 302 408 c 0
 314 396 329 390 346 390 c 0
EndSplineSet
EndChar
StartChar: uni0E16
Encoding: 182 3606 151
Width: 807
Flags: HW
HStem: -14 88<237 250> -1 21G<563 696> 207 88<239 255.123> 703 102<349 396>
VStem: 84 95<141 147> 84 137<141 403> 312 84<129 147> 563 133<-1 554>
Fore
221 295 m 1
 239 295 l 2
 288 295 327 280 354 249 c 0
 382 218 396 182 396 141 c 0
 396 97 382 61 354 32 c 1
 327 1 288 -14 239 -14 c 4
 192 -14 155 1 128 32 c 1
 98 61 84 97 84 141 c 2
 84 381 l 2
 84 427 89 462 100 485 c 0
 111 512 130 534 157 552 c 1
 144 559 125 565 102 571 c 0
 70 580 41 586 14 587 c 1
 14 631 l 1
 42 666 l 2
 53 678 75 697 109 724 c 1
 146 748 184 767 225 781 c 0
 266 797 319 805 382 805 c 0
 445 805 499 796 544 777 c 0
 591 756 628 726 656 689 c 0
 683 650 696 602 696 545 c 2
 696 -1 l 1
 563 -1 l 1
 563 534 l 2
 563 590 545 632 510 662 c 0
 474 689 428 703 371 703 c 0
 305 703 240 683 176 642 c 1
 206 636 l 2
 212 635 231 630 263 620 c 0
 288 611 310 598 331 583 c 1
 331 518 l 1
 306 518 281 510 257 494 c 0
 233 479 221 445 221 390 c 2
 221 295 l 1
250 74 m 1
 268 76 283 83 294 94 c 0
 306 106 312 121 312 138 c 0
 312 158 306 175 294 189 c 0
 282 201 263 207 239 207 c 1
 218 205 204 198 195 187 c 0
 184 176 179 161 179 141 c 0
 179 124 185 109 197 94 c 0
 208 81 226 74 250 74 c 1
EndSplineSet
EndChar
StartChar: uni0E17
Encoding: 183 3607 152
Width: 875
Flags: HW
HStem: -1 21G<173 300 635 769> 684 106<599 608> 705 95<147 153>
VStem: -8 95<638 656> 173 133<-1 640> 207 99<638 658> 635 134<-1 624>
DStem: 443 657 571 652 306 323 300 -1
Fore
173 -1 m 1
 173 492 l 1
 122 489 l 1
 83 494 51 512 27 542 c 0
 4 573 -8 607 -8 646 c 0
 -8 689 6 726 34 756 c 1
 59 785 97 800 147 800 c 4
 197 800 236 785 266 754 c 0
 293 724 306 686 306 640 c 2
 306 323 l 1
 443 657 l 2
 464 707 483 742 501 763 c 1
 520 781 555 790 606 790 c 0
 680 790 726 774 741 741 c 1
 760 710 769 664 769 603 c 2
 769 -1 l 1
 635 -1 l 1
 635 593 l 2
 635 626 634 651 631 666 c 0
 629 675 622 681 608 684 c 1
 596 684 587 680 582 672 c 0
 578 668 574 661 571 652 c 1
 300 -1 l 1
 173 -1 l 1
147 582 m 0
 167 582 181 588 191 600 c 0
 202 611 207 626 207 644 c 0
 207 663 202 678 191 688 c 1
 183 700 168 705 147 705 c 0
 131 705 116 699 103 686 c 0
 92 675 87 661 87 644 c 0
 87 626 92 611 103 600 c 0
 115 588 130 582 147 582 c 0
EndSplineSet
EndChar
StartChar: uni0E18
Encoding: 184 3608 153
Width: 690
Flags: HW
HStem: -1 120<32 129 262 401> 540 95<87 216> 646 103<536 554> 703 99<260 286>
VStem: 129 133<119 487> 446 134<174 400>
Fore
138 633 m 1
 159 635 l 1
 216 635 l 2
 354 635 455 610 520 559 c 1
 560 525 580 467 580 383 c 2
 580 149 l 2
 580 86 569 45 547 27 c 1
 528 8 482 -1 411 -1 c 1
 285 -0 158 1 32 -1 c 5
 32 119 l 1
 129 119 l 1
 129 487 l 1
 262 487 l 1
 262 119 l 1
 384 119 l 2
 411 119 428 123 437 131 c 1
 443 139 446 158 446 186 c 2
 446 385 l 2
 446 412 443 434 439 450 c 0
 434 465 421 482 399 498 c 1
 385 512 347 522 284 529 c 0
 214 536 148 540 87 540 c 2
 -7 538 l 1
 -7 619 l 1
 19 667 57 709 106 747 c 0
 155 784 214 802 282 802 c 0
 325 802 376 794 437 776 c 0
 492 758 529 749 545 749 c 0
 573 749 602 757 631 772 c 1
 661 672 l 1
 621 655 584 646 552 646 c 0
 526 646 481 656 419 675 c 0
 352 693 302 703 267 703 c 0
 232 703 203 694 180 677 c 0
 162 663 148 649 138 633 c 1
EndSplineSet
EndChar
StartChar: uni0E19
Encoding: 185 3609 154
Width: 859
Flags: HW
HStem: -16 99<680 706> 0 21G<159 289> 495 92<137 141 141 159> 710 95<137 152> 766 20G<553 686>
VStem: -16 97<649 657> 159 134<0 666> 201 92<639 666> 553 133<110 258 357 786> 746 92<153 166>
Fore
553 786 m 5
 686 786 l 5
 686 358 l 5
 735 349 773 326 799 289 c 4
 827 246 841 201 838 154 c 5
 838 103 822 62 792 32 c 4
 762 0 724 -16 680 -16 c 4
 646 -16 617 -6 592 13 c 4
 566 35 553 67 553 110 c 6
 553 258 l 5
 495 241 439 205 386 150 c 4
 333 96 300 46 289 0 c 5
 159 0 l 5
 159 497 l 5
 150 497 l 5
 139 495 l 5
 91 495 54 511 26 543 c 4
 -2 573 -16 609 -16 649 c 4
 -16 692 -2 729 26 759 c 4
 54 790 92 805 139 805 c 4
 182 805 218 793 247 768 c 5
 278 739 293 705 293 666 c 6
 293 201 l 5
 324 241 363 275 410 300 c 4
 459 328 507 347 553 358 c 5
 553 786 l 5
141 587 m 4
 161 587 176 594 187 606 c 4
 196 618 201 632 201 649 c 4
 201 667 196 682 187 693 c 4
 177 705 161 710 141 710 c 4
 123 710 108 704 97 691 c 4
 86 681 81 667 81 649 c 4
 81 631 86 617 97 606 c 4
 108 594 123 587 141 587 c 4
746 166 m 4
 746 191 740 212 729 229 c 4
 718 244 703 254 686 258 c 5
 686 113 l 5
 688 93 695 83 706 83 c 5
 713 85 720 90 726 97 c 5
 740 132 l 5
 744 145 746 156 746 166 c 4
EndSplineSet
EndChar
StartChar: uni0E1A
Encoding: 186 3610 155
Width: 831
Flags: HW
HStem: 0 120<52 534> 490 93<103 134> 706 95<117.505 134> 766 20G<584 721>
VStem: -27 95<639 657> 154 134<120 641> 189 99<639 657> 584 137<175 786>
Fore
154 120 m 5
 154 493 l 5
 148 491 131 490 103 490 c 5
 64 495 33 513 8 543 c 4
 -15 575 -27 610 -27 647 c 4
 -27 675 -21 701 -10 724 c 4
 2 749 20 768 43 780 c 4
 67 794 96 801 129 801 c 4
 178 801 217 786 246 755 c 4
 274 725 288 687 288 641 c 6
 288 120 l 5
 513 120 l 6
 543 120 563 125 573 134 c 4
 581 142 584 160 584 187 c 6
 584 786 l 5
 721 786 l 5
 721 152 l 6
 721 93 705 53 672 33 c 4
 637 11 584 0 513 0 c 6
 52 0 l 5
 52 120 l 5
 154 120 l 5
129 583 m 4
 145 583 159 589 173 601 c 4
 184 612 189 627 189 645 c 4
 189 664 184 679 173 689 c 4
 162 701 147 706 129 706 c 4
 112 706 98 700 85 687 c 4
 74 676 68 662 68 645 c 4
 68 627 74 612 85 601 c 4
 97 589 112 583 129 583 c 4
EndSplineSet
EndChar
StartChar: uni0E1B
Encoding: 187 3611 156
Width: 831
Flags: HW
HStem: -1 120<52 534> 489 93<103 134> 705 95<117.505 134>
VStem: -27 95<638 656> 154 134<119 640> 189 99<638 656> 584 137<174 1094>
Fore
154 119 m 5
 154 492 l 5
 148 490 131 489 103 489 c 5
 64 494 33 512 8 543 c 4
 -15 574 -27 609 -27 647 c 4
 -27 674 -21 700 -10 723 c 4
 2 748 20 767 43 779 c 4
 67 793 96 800 129 800 c 4
 178 800 217 785 246 754 c 4
 274 724 288 686 288 640 c 6
 288 119 l 5
 513 119 l 6
 543 119 563 124 573 133 c 4
 581 141 584 159 584 187 c 6
 584 1094 l 5
 721 1094 l 5
 721 152 l 6
 721 92 705 52 672 32 c 4
 637 10 584 -1 513 -1 c 6
 52 -1 l 5
 52 119 l 5
 154 119 l 5
129 582 m 4
 145 582 159 588 173 600 c 4
 184 611 189 626 189 644 c 4
 189 663 184 678 173 688 c 4
 162 700 147 705 129 705 c 4
 112 705 98 699 85 686 c 4
 74 676 68 662 68 644 c 4
 68 626 74 611 85 600 c 4
 97 588 112 582 129 582 c 4
EndSplineSet
EndChar
StartChar: uni0E1C
Encoding: 188 3612 157
Width: 814
Flags: HW
HStem: -1 21G<61 189 573 705> 705 95<209.896 235> 765 20G<571 705>
VStem: 61 99<-1 656> 61 128<-1 27.8486> 61 134<-1 492> 281 95<638 656> 573 132<-1 25.0527 266 785>
Fore
189 -1 m 1
 61 -1 l 1
 61 640 l 2
 61 684 75 722 103 754 c 0
 132 785 172 800 221 800 c 4
 255 800 284 793 308 779 c 0
 332 764 349 745 359 723 c 0
 371 700 376 674 376 646 c 0
 376 607 365 573 341 542 c 0
 317 512 285 494 246 489 c 1
 195 492 l 1
 195 266 l 1
 383 458 l 1
 571 266 l 1
 571 785 l 1
 705 785 l 1
 705 -1 l 1
 573 -1 l 1
 573 61 557 109 527 145 c 2
 381 309 l 1
 233 145 l 2
 203 113 189 64 189 -1 c 1
221 705 m 0
 205 705 190 699 177 686 c 0
 166 675 160 661 160 644 c 0
 160 626 166 611 177 600 c 0
 189 588 204 582 221 582 c 0
 237 582 252 588 265 600 c 0
 276 611 281 626 281 644 c 0
 281 663 276 678 265 688 c 0
 254 700 239 705 221 705 c 0
EndSplineSet
EndChar
StartChar: uni0E1D
Encoding: 189 3613 158
Width: 814
Flags: HW
HStem: -1 21G<61 189 573 705> 705 95<209.896 235>
VStem: 61 99<-1 656> 61 128<-1 28.1672> 61 134<-1 492> 281 95<638 656> 573 132<-1 25.0527 266 1094>
Fore
189 -1 m 5
 61 -1 l 5
 61 640 l 6
 61 684 75 722 103 754 c 4
 132 785 172 800 221 800 c 4
 255 800 284 793 308 779 c 4
 332 764 349 745 359 723 c 4
 371 700 376 674 376 647 c 4
 376 607 365 573 341 543 c 4
 317 512 285 494 246 489 c 5
 195 492 l 5
 195 266 l 5
 383 458 l 5
 571 266 l 5
 571 1094 l 5
 705 1094 l 5
 705 -1 l 5
 573 -1 l 5
 573 61 557 109 527 145 c 6
 381 309 l 5
 233 145 l 6
 203 113 189 65 189 -1 c 5
221 705 m 4
 205 705 190 699 177 686 c 4
 166 676 160 662 160 644 c 4
 160 626 166 611 177 600 c 4
 189 588 204 582 221 582 c 4
 237 582 252 588 265 600 c 4
 276 611 281 626 281 644 c 4
 281 663 276 678 265 688 c 4
 254 700 239 705 221 705 c 4
EndSplineSet
EndChar
StartChar: uni0E1E
Encoding: 190 3614 159
Width: 932
Flags: HW
HStem: -1 21G<141 273 687 821> 490 93<93 124> 706 95<107.366 124> 766 20G<687 821>
VStem: -37 95<638 656> 141 136<-1 641> 178 99<638 656> 687 134<360 786>
DStem: 481 768 481 502 277 360 291 105
Fore
277 360 m 1
 481 768 l 1
 687 360 l 1
 687 786 l 1
 821 786 l 1
 821 -1 l 1
 687 -1 l 1
 682 50 l 1
 680 71 676 89 669 105 c 1
 481 502 l 1
 291 105 l 1
 285 89 279 71 277 50 c 1
 273 -1 l 1
 141 -1 l 1
 141 493 l 1
 137 491 120 490 93 490 c 1
 53 495 22 513 -2 543 c 0
 -26 575 -37 610 -37 647 c 0
 -37 675 -32 701 -20 724 c 0
 -10 747 8 765 33 780 c 0
 57 794 85 801 119 801 c 4
 168 801 207 786 236 755 c 0
 264 725 277 687 277 641 c 2
 277 360 l 1
119 583 m 0
 135 583 149 589 161 601 c 0
 173 612 178 627 178 645 c 0
 178 664 173 679 161 689 c 0
 151 701 137 706 119 706 c 0
 102 706 87 700 74 687 c 0
 63 676 58 662 58 645 c 0
 58 627 63 612 74 601 c 0
 87 589 101 583 119 583 c 0
EndSplineSet
EndChar
StartChar: uni0E1F
Encoding: 191 3615 160
Width: 932
Flags: HW
HStem: -1 21G<141 273 687 821> 490 93<93 124> 706 95<107.366 124>
VStem: -37 95<638 656> 141 136<-1 641> 178 99<638 656> 687 134<360 1094>
DStem: 481 768 481 502 277 360 291 105
Fore
277 360 m 1
 481 768 l 1
 687 360 l 1
 687 1094 l 1
 821 1094 l 1
 821 -1 l 1
 687 -1 l 1
 682 50 l 1
 680 71 676 89 669 105 c 1
 481 502 l 1
 291 105 l 1
 285 89 279 71 277 50 c 1
 273 -1 l 1
 141 -1 l 1
 141 493 l 1
 137 491 120 490 93 490 c 1
 53 495 22 513 -2 544 c 0
 -26 575 -37 610 -37 648 c 0
 -37 675 -32 701 -20 724 c 0
 -10 747 8 765 33 780 c 0
 57 794 85 801 119 801 c 4
 168 801 207 786 236 755 c 0
 264 725 277 687 277 641 c 2
 277 360 l 1
119 583 m 0
 135 583 149 589 161 601 c 0
 173 612 178 627 178 645 c 0
 178 664 173 679 161 689 c 0
 151 701 137 706 119 706 c 0
 102 706 87 700 74 687 c 0
 63 677 58 663 58 645 c 0
 58 627 63 612 74 601 c 0
 87 589 101 583 119 583 c 0
EndSplineSet
EndChar
StartChar: uni0E20
Encoding: 192 3616 161
Width: 876
Flags: HW
HStem: -1 21G<632 766> 204 88<137 148> 703 102<429 463>
VStem: -18 87<126 144> 203 86<126 144> 632 134<-1 553>
Fore
137 292 m 6
 148 292 l 5
 153 290 l 5
 153 381 l 6
 153 424 159 459 172 484 c 5
 184 515 201 537 225 551 c 5
 210 558 191 564 169 570 c 4
 136 579 107 585 81 586 c 5
 81 630 l 5
 111 665 l 6
 125 681 148 700 179 723 c 4
 212 746 250 765 292 781 c 4
 334 796 388 805 451 805 c 4
 513 805 568 794 614 774 c 5
 662 756 699 726 724 686 c 5
 752 646 766 599 766 544 c 6
 766 -1 l 5
 632 -1 l 5
 632 533 l 6
 632 590 614 632 579 661 c 4
 543 689 497 703 440 703 c 4
 408 703 375 697 340 686 c 4
 306 677 275 662 245 642 c 5
 311 626 l 5
 312 626 l 6
 338 620 368 605 400 582 c 5
 400 517 l 5
 376 517 352 509 329 494 c 4
 302 478 289 443 289 390 c 6
 289 140 l 6
 289 94 276 57 250 29 c 5
 226 0 189 -15 137 -17 c 5
 85 -15 47 0 23 29 c 5
 -5 58 -18 94 -18 135 c 4
 -18 180 -5 217 23 246 c 4
 49 277 87 292 137 292 c 6
137 70 m 4
 159 70 175 77 188 91 c 4
 198 102 203 117 203 138 c 4
 203 182 181 204 137 204 c 4
 116 204 100 198 88 186 c 4
 75 171 69 155 69 138 c 4
 69 122 75 106 88 91 c 4
 100 77 116 70 137 70 c 4
EndSplineSet
EndChar
StartChar: uni0E21
Encoding: 193 3617 162
Width: 842
Flags: HW
HStem: 0 21G<602 731> 706 95<153.036 177> 766 20G<597 731>
VStem: 9 95<645 657> 14 102<153 166> 183 134<111 252 363 662> 225 92<639 662> 597 134<212 786>
Fore
597 786 m 5
 731 786 l 5
 731 0 l 5
 602 0 l 5
 595 28 579 60 553 97 c 4
 531 129 497 163 451 196 c 4
 411 227 366 245 317 252 c 5
 317 120 l 6
 317 74 306 41 281 20 c 4
 253 -4 223 -16 193 -16 c 4
 141 -18 97 -2 63 33 c 4
 30 65 14 106 14 155 c 4
 12 207 27 256 60 300 c 5
 93 339 134 360 183 364 c 5
 183 493 l 5
 177 493 l 5
 164 490 l 5
 118 490 81 506 51 537 c 4
 23 567 9 603 9 645 c 4
 9 689 23 726 49 757 c 5
 78 786 116 801 164 801 c 4
 205 801 241 788 274 761 c 4
 303 736 317 703 317 662 c 6
 317 360 l 5
 402 348 467 326 510 294 c 4
 556 259 585 232 597 212 c 5
 597 786 l 5
164 583 m 4
 182 583 196 589 208 601 c 4
 220 612 225 627 225 645 c 4
 225 664 220 679 208 689 c 4
 198 700 183 706 164 706 c 4
 148 706 134 700 121 687 c 4
 110 676 104 662 104 645 c 4
 104 627 110 612 121 601 c 4
 133 589 148 583 164 583 c 4
183 259 m 5
 162 256 146 247 135 231 c 4
 122 213 116 191 116 166 c 4
 116 115 132 88 164 86 c 4
 177 86 183 95 183 113 c 6
 183 259 l 5
EndSplineSet
EndChar
StartChar: uni0E22
Encoding: 194 3618 163
Width: 779
Flags: HW
HStem: -1 120<199 499> 503 93<255 273> 707 95<255 273> 766 20G<532 669>
VStem: 64 135<-1 208> 320 89<641.145 663> 532 137<174 786>
Fore
176 376 m 5
 139 388 109 412 86 450 c 5
 61 485 48 526 48 573 c 4
 48 607 54 637 64 661 c 4
 81 706 106 742 141 767 c 5
 177 791 217 802 261 802 c 4
 306 802 342 788 368 760 c 4
 395 730 409 695 409 654 c 4
 409 614 396 578 370 547 c 5
 344 517 307 503 261 503 c 4
 242 503 220 508 194 520 c 5
 174 524 164 529 164 533 c 5
 166 533 l 5
 166 502 187 476 229 454 c 4
 268 435 309 425 353 423 c 5
 353 323 l 5
 297 323 257 311 234 288 c 5
 210 268 199 235 199 191 c 6
 199 119 l 5
 461 119 l 6
 491 119 511 123 521 133 c 4
 528 141 532 158 532 186 c 6
 532 786 l 5
 669 786 l 5
 669 149 l 6
 669 86 658 45 636 27 c 4
 614 8 568 -1 499 -1 c 6
 64 -1 l 5
 64 191 l 6
 64 237 73 274 90 302 c 4
 104 327 121 346 139 359 c 4
 151 367 163 372 176 376 c 5
263 596 m 4
 283 596 297 601 305 612 c 4
 315 624 320 638 320 652 c 4
 320 665 315 678 305 690 c 4
 297 702 283 707 263 707 c 4
 244 707 231 702 222 690 c 5
 211 680 205 667 205 652 c 4
 205 638 211 625 222 615 c 5
 233 602 246 596 263 596 c 4
EndSplineSet
EndChar
StartChar: uni0E23
Encoding: 195 3619 164
Width: 676
Flags: HW
HStem: -14 95<399 417> 555 87<-16 134> 650 102<529.789 561> 706 99<248 273>
VStem: 250 95<141 147> 468 102<129 147>
Fore
570 384 m 2
 570 145 l 2
 570 101 554 63 523 32 c 0
 490 1 450 -14 404 -14 c 4
 354 -14 316 1 291 32 c 1
 263 61 250 97 250 141 c 0
 250 184 263 221 291 249 c 0
 318 279 356 295 404 298 c 1
 433 295 l 1
 433 384 l 2
 433 409 430 430 426 446 c 0
 421 462 408 479 386 497 c 0
 374 508 348 518 307 527 c 0
 267 534 216 541 155 547 c 0
 99 553 42 555 -16 555 c 1
 -16 627 l 1
 10 676 46 718 92 752 c 0
 141 787 199 805 268 805 c 0
 316 805 369 796 428 779 c 0
 485 761 524 752 543 752 c 0
 573 752 602 760 631 775 c 1
 662 675 l 1
 621 659 582 650 546 650 c 0
 513 650 465 659 402 677 c 0
 341 696 292 706 254 706 c 0
 216 706 189 698 170 682 c 0
 152 665 140 652 134 642 c 1
 312 642 436 614 506 558 c 0
 548 522 570 464 570 384 c 2
407 81 m 0
 425 81 440 86 451 97 c 0
 462 108 468 123 468 141 c 0
 468 158 463 173 453 185 c 0
 442 195 427 201 407 201 c 0
 389 201 374 195 360 182 c 0
 350 172 345 158 345 141 c 0
 345 123 350 109 360 99 c 0
 374 87 389 81 407 81 c 0
EndSplineSet
EndChar
StartChar: uni0E24
Encoding: 196 3620 165
Width: 807
Flags: HW
HStem: -14 88<239 241> 207 88<221 255> 703 102<349 397>
VStem: 84 90<140 151> 84 137<140 407> 305 90<140 151> 563 133<-410 555>
Fore
221 295 m 5
 239 295 l 6
 288 295 327 280 354 249 c 4
 382 218 395 182 395 140 c 4
 395 97 382 61 354 32 c 5
 327 1 288 -14 239 -14 c 4
 192 -14 155 1 128 32 c 5
 98 61 84 97 84 140 c 6
 84 381 l 6
 84 427 89 462 100 485 c 4
 111 511 130 534 157 552 c 5
 144 559 125 565 102 571 c 4
 70 580 41 585 14 587 c 5
 14 631 l 5
 42 666 l 6
 53 678 75 697 109 724 c 5
 146 748 184 767 225 781 c 4
 266 797 319 805 382 805 c 4
 445 805 499 795 544 777 c 4
 591 756 628 726 656 688 c 4
 683 649 696 601 696 545 c 6
 696 -410 l 5
 563 -410 l 5
 563 534 l 6
 563 589 545 632 510 661 c 4
 474 689 428 703 371 703 c 4
 305 703 240 683 176 642 c 5
 206 635 l 6
 212 635 231 629 263 620 c 4
 288 611 310 598 331 582 c 5
 331 518 l 5
 306 518 281 510 257 494 c 4
 233 479 221 444 221 390 c 6
 221 295 l 5
239 74 m 4
 261 74 278 81 289 94 c 4
 300 105 305 120 305 140 c 4
 305 185 283 207 239 207 c 4
 218 207 202 201 192 189 c 4
 180 175 174 159 174 140 c 4
 174 124 180 108 192 94 c 4
 204 81 219 74 239 74 c 4
EndSplineSet
EndChar
StartChar: uni0E25
Encoding: 197 3621 166
Width: 773
Flags: HW
HStem: -16 93<222.906 236> 0 21G<529 666> 701 102<332 351>
VStem: 66 114<287 321.425> 295 95<139 146> 529 137<349 561>
Fore
235 -16 m 4
 189 -16 151 -2 121 26 c 4
 89 55 73 88 70 125 c 4
 67 161 66 228 66 329 c 5
 73 397 93 452 127 495 c 5
 159 540 204 562 260 562 c 4
 317 565 367 550 408 518 c 4
 447 488 476 454 496 417 c 5
 529 349 l 5
 529 539 l 6
 529 592 512 632 478 660 c 4
 442 687 393 701 332 701 c 4
 281 701 236 689 196 664 c 4
 160 641 129 612 103 578 c 5
 26 645 l 5
 50 684 90 721 145 755 c 4
 201 787 263 803 332 803 c 4
 427 803 507 780 571 733 c 4
 634 686 666 622 666 541 c 6
 666 0 l 5
 529 0 l 5
 524 27 508 86 483 178 c 5
 456 257 426 322 392 375 c 4
 354 434 312 463 267 461 c 4
 209 458 180 400 180 287 c 5
 202 291 l 5
 235 293 l 5
 286 291 324 277 348 252 c 4
 376 222 390 186 390 143 c 4
 392 99 378 61 348 30 c 5
 325 2 287 -14 235 -16 c 4
235 77 m 4
 254 77 270 83 282 95 c 5
 291 106 295 121 295 139 c 4
 295 157 291 171 282 183 c 4
 271 193 256 199 235 199 c 4
 216 199 201 193 191 180 c 4
 181 170 175 156 175 139 c 4
 175 121 181 107 191 97 c 4
 202 83 217 77 235 77 c 4
EndSplineSet
EndChar
StartChar: uni0E26
Encoding: 198 3622 167
Width: 876
Flags: HW
HStem: 205 88<137 148> 703 102<429 463>
VStem: -18 87<133 151> 203 86<133 151> 632 134<-410 555>
Fore
137 293 m 6
 148 293 l 5
 153 291 l 5
 153 381 l 6
 153 425 159 459 172 485 c 5
 184 515 201 537 225 552 c 5
 210 559 191 565 169 571 c 4
 136 580 107 585 81 587 c 5
 81 631 l 5
 111 666 l 6
 125 682 148 701 179 724 c 4
 212 747 250 766 292 781 c 4
 334 797 388 805 451 805 c 4
 513 805 568 795 614 774 c 5
 662 756 699 727 724 686 c 5
 752 647 766 600 766 545 c 6
 766 -410 l 5
 632 -410 l 5
 632 534 l 6
 632 590 614 633 579 661 c 4
 543 689 497 703 440 703 c 4
 408 703 375 698 340 686 c 4
 306 677 275 662 245 642 c 5
 311 626 l 5
 312 626 l 6
 338 620 368 606 400 582 c 5
 400 518 l 5
 376 518 352 510 329 494 c 4
 302 478 289 444 289 390 c 6
 289 140 l 6
 289 94 276 58 250 30 c 5
 226 1 189 -14 137 -17 c 5
 85 -14 47 1 23 30 c 5
 -5 59 -18 94 -18 136 c 4
 -18 180 -5 217 23 247 c 4
 49 278 87 293 137 293 c 6
137 70 m 4
 159 70 175 78 188 92 c 4
 198 102 203 118 203 138 c 4
 203 183 181 205 137 205 c 4
 116 205 100 199 88 187 c 4
 75 172 69 156 69 138 c 4
 69 122 75 107 88 92 c 4
 100 78 116 70 137 70 c 4
EndSplineSet
EndChar
StartChar: uni0E27
Encoding: 199 3623 168
Width: 704
Flags: HW
HStem: -16 93<424.495 440> 198 95<423.668 438> 693 112<276 294>
VStem: 279 97<139 147> 459 134<291 545> 496 97<127 147>
Fore
437 293 m 1
 459 291 l 1
 459 534 l 2
 459 592 442 632 408 655 c 0
 372 681 328 693 276 693 c 0
 189 696 113 651 50 560 c 1
 -43 631 l 1
 -13 679 28 721 82 757 c 1
 137 789 203 805 279 805 c 4
 380 805 457 781 512 733 c 0
 566 683 593 618 593 536 c 2
 593 143 l 2
 593 96 579 59 550 30 c 0
 520 -1 482 -16 437 -16 c 0
 388 -16 349 -1 320 30 c 0
 290 63 276 102 279 145 c 1
 279 184 295 219 325 252 c 0
 353 279 390 293 437 293 c 1
437 77 m 0
 455 77 471 82 483 94 c 1
 492 106 496 120 496 139 c 0
 496 157 492 171 483 183 c 0
 472 193 457 198 437 198 c 0
 417 198 402 192 392 180 c 0
 382 170 376 156 376 139 c 0
 376 121 382 107 392 97 c 0
 404 83 418 77 437 77 c 0
EndSplineSet
EndChar
StartChar: uni0E28
Encoding: 200 3624 169
Width: 796
Flags: HW
HStem: -2 21G<133 270 551 685> 507 97<334 347.971> 696 109<330 356>
VStem: 3 116<495 518> 133 137<-2 302> 394 95<446 460.486> 551 134<-2 531>
Fore
595 723 m 1
 598 723 605 735 619 759 c 0
 633 787 643 814 648 838 c 1
 765 783 l 1
 758 752 744 720 723 688 c 0
 700 654 683 631 670 620 c 1
 679 589 l 1
 683 575 685 555 685 527 c 2
 685 -2 l 1
 551 -2 l 1
 551 494 l 1
 551 531 l 1
 532 518 508 507 480 500 c 1
 485 481 l 2
 488 468 489 457 489 446 c 0
 487 402 473 365 447 335 c 0
 424 306 386 291 334 288 c 1
 297 293 l 1
 279 297 270 300 270 302 c 2
 270 -2 l 1
 133 -2 l 1
 133 129 l 2
 133 167 127 198 116 224 c 0
 103 255 87 287 68 321 c 0
 47 358 31 391 19 418 c 0
 8 444 3 477 3 518 c 0
 5 579 23 631 56 675 c 0
 88 719 130 750 182 770 c 1
 231 791 285 803 343 805 c 0
 380 805 413 802 440 796 c 0
 466 791 496 780 531 763 c 0
 555 752 576 739 595 723 c 1
425 575 m 1
 441 575 458 583 476 597 c 2
 515 626 l 1
 495 651 470 669 438 679 c 0
 404 691 367 696 330 696 c 0
 275 694 227 676 186 642 c 1
 142 608 119 565 119 513 c 0
 119 487 126 458 138 425 c 0
 147 397 152 383 153 383 c 1
 153 386 l 2
 153 423 165 468 189 520 c 1
 209 574 257 602 334 604 c 0
 364 604 385 600 396 594 c 0
 409 588 419 581 425 575 c 1
334 383 m 0
 353 383 369 389 381 401 c 1
 390 413 394 428 394 446 c 0
 394 464 390 478 381 490 c 0
 370 501 355 507 334 507 c 0
 316 507 302 500 290 487 c 0
 280 477 274 463 274 446 c 0
 274 427 280 413 290 401 c 0
 302 389 317 383 334 383 c 0
EndSplineSet
EndChar
StartChar: uni0E29
Encoding: 201 3625 170
Width: 837
Flags: HW
HStem: -1 120<58 541> 269 85<539 592> 486 72<447 449> 706 95<135 141> 766 20G<592 726>
VStem: -20 95<638 656> 161 133<119 641> 195 99<638 656> 322 79<434 448> 493 75<442 448> 592 134<174 298 356 786>
Fore
903 569 m 1
 903 523 896 485 882 453 c 0
 868 418 851 392 831 373 c 1
 813 352 793 336 771 324 c 2
 726 298 l 1
 726 151 l 2
 726 92 711 52 678 32 c 0
 646 10 593 -1 519 -1 c 2
 58 -1 l 1
 58 119 l 1
 161 119 l 1
 161 493 l 1
 112 490 l 1
 73 495 41 513 17 543 c 0
 -8 573 -20 607 -20 647 c 0
 -20 690 -6 727 22 757 c 1
 47 786 84 801 135 801 c 0
 188 801 227 786 252 757 c 1
 280 727 294 688 294 641 c 2
 294 119 l 1
 523 119 l 2
 554 119 574 124 581 133 c 0
 589 141 592 160 592 187 c 2
 592 269 l 1
 508 269 446 279 406 300 c 1
 374 323 352 341 343 354 c 0
 331 371 325 398 322 435 c 0
 322 466 332 494 352 519 c 0
 374 545 406 558 447 558 c 0
 482 558 511 547 532 525 c 0
 556 500 568 472 568 442 c 0
 570 406 560 377 539 354 c 1
 570 354 588 354 592 356 c 1
 592 786 l 1
 726 786 l 1
 726 404 l 1
 767 426 788 481 788 569 c 1
 903 569 l 1
447 395 m 0
 463 395 475 400 482 409 c 0
 489 420 493 431 493 442 c 0
 493 455 488 465 479 475 c 0
 472 482 461 486 447 486 c 0
 432 486 422 481 415 472 c 1
 406 463 401 453 401 442 c 0
 401 432 406 421 415 409 c 0
 422 400 432 395 447 395 c 0
135 583 m 0
 154 583 169 589 181 601 c 1
 190 613 195 628 195 645 c 0
 195 663 190 678 181 689 c 0
 170 701 155 706 135 706 c 0
 118 706 103 700 91 687 c 0
 80 676 75 662 75 645 c 0
 75 627 80 612 91 601 c 0
 103 589 117 583 135 583 c 0
EndSplineSet
EndChar
StartChar: uni0E2A
Encoding: 202 3626 171
Width: 770
Flags: HW
HStem: -15 93<220.906 234> 0 21G<526 663> 702 102<330 349>
VStem: 63 114<288 322.425> 292 95<139 147> 524 139<350 572>
Fore
233 78 m 4
 251 78 267 83 279 95 c 5
 288 107 292 121 292 139 c 4
 292 158 288 172 279 184 c 4
 268 194 253 199 233 199 c 4
 213 199 198 193 189 181 c 4
 178 171 173 157 173 139 c 4
 173 122 178 108 189 98 c 4
 200 84 215 78 233 78 c 4
471 650 m 5
 439 685 392 702 330 702 c 4
 279 702 233 690 193 665 c 4
 158 642 127 613 100 579 c 5
 24 646 l 5
 48 685 87 721 142 755 c 4
 198 788 260 804 330 804 c 4
 402 804 467 789 524 760 c 5
 528 760 542 782 566 827 c 5
 587 872 600 894 605 894 c 5
 656 866 l 6
 686 849 704 836 709 829 c 5
 659 755 l 5
 632 715 619 693 619 688 c 5
 633 673 645 653 654 628 c 4
 660 610 663 581 663 542 c 6
 663 0 l 5
 526 0 l 5
 521 28 506 87 480 179 c 5
 454 257 424 323 390 376 c 4
 351 435 309 464 264 462 c 4
 206 459 177 401 177 288 c 5
 200 292 l 5
 233 294 l 5
 284 292 321 278 346 252 c 4
 373 223 387 187 387 144 c 4
 389 100 376 62 346 31 c 5
 322 2 285 -13 233 -15 c 4
 187 -15 149 -1 118 26 c 4
 87 56 70 89 68 126 c 4
 65 161 63 229 63 329 c 5
 70 398 90 453 124 495 c 5
 157 541 201 563 257 563 c 5
 313 565 361 555 401 530 c 5
 404 530 416 550 436 590 c 4
 456 630 468 650 471 650 c 5
522 572 m 5
 517 556 507 537 494 517 c 4
 479 494 471 481 471 477 c 5
 485 459 496 438 505 413 c 5
 526 350 l 5
 524 462 l 5
 522 572 l 5
EndSplineSet
EndChar
StartChar: uni0E2B
Encoding: 203 3627 172
Width: 847
Flags: HW
HStem: -1 21G<142 274 600 737> 467 118<563 586> 489 93<93 122> 705 95<105.431 122 584 600> 802 21G<566 616.5>
VStem: -39 95<637 656> 142 132<-1 48 -1 639> 177 99<637 656> 429 97<646 656> 600 137<-1 400> 646 95<646 656>
Fore
276 359 m 1
 305 407 340 447 380 478 c 0
 417 507 447 526 469 538 c 1
 442 569 429 605 429 646 c 0
 429 692 443 730 471 760 c 0
 499 788 539 802 593 802 c 4
 640 802 677 788 702 758 c 0
 728 727 741 689 741 646 c 0
 741 589 721 547 681 520 c 1
 689 517 701 505 716 482 c 0
 730 462 737 425 737 372 c 2
 737 -1 l 1
 600 -1 l 1
 600 372 l 2
 600 411 595 436 586 447 c 0
 577 460 569 467 563 467 c 1
 476 421 406 355 352 270 c 0
 300 186 274 105 274 29 c 2
 274 -1 l 1
 142 -1 l 1
 142 491 l 1
 137 490 121 489 93 489 c 1
 54 494 23 511 -2 542 c 0
 -26 572 -39 606 -39 646 c 0
 -39 689 -25 726 3 756 c 0
 29 785 67 800 116 800 c 0
 168 800 208 785 237 756 c 1
 263 723 276 685 276 639 c 2
 276 359 l 1
586 585 m 0
 606 585 621 591 630 603 c 1
 641 614 646 628 646 646 c 0
 646 665 641 680 630 690 c 1
 622 702 607 707 586 707 c 0
 568 707 553 701 542 688 c 0
 531 678 526 664 526 646 c 0
 526 628 531 614 542 603 c 0
 553 591 568 585 586 585 c 0
116 582 m 0
 136 582 150 588 160 600 c 0
 171 611 177 626 177 644 c 0
 177 663 171 678 160 688 c 1
 152 699 137 705 116 705 c 0
 101 705 86 699 72 686 c 0
 61 675 56 661 56 644 c 0
 56 626 61 611 72 600 c 0
 85 588 100 582 116 582 c 0
EndSplineSet
EndChar
StartChar: uni0E2C
Encoding: 204 3628 173
Width: 927
Flags: HW
HStem: -1 21G<138 268 682 816> 490 93<88 119> 626 93<676 682> 706 95<103.07 119> 823 93<678 684>
VStem: -42 95<638 658> 138 130<-1 13.3447> 138 134<-1 640> 174 98<638 658> 532 95<769 784> 682 134<342 657>
Fore
816 657 m 5
 816 -1 l 5
 682 -1 l 5
 678 50 l 5
 674 77 670 95 664 106 c 6
 476 458 l 5
 289 106 l 5
 282 94 277 76 275 50 c 5
 271 28 268 11 268 -1 c 5
 138 -1 l 5
 138 492 l 5
 132 490 116 490 88 490 c 5
 49 494 18 512 -7 543 c 4
 -31 574 -42 609 -42 647 c 4
 -42 675 -37 700 -25 724 c 4
 -13 748 4 767 28 779 c 4
 52 793 80 801 114 801 c 4
 163 801 202 785 231 754 c 4
 259 724 272 686 272 640 c 6
 272 342 l 5
 476 691 l 5
 682 342 l 5
 682 626 l 5
 639 626 604 640 576 668 c 5
 549 693 534 727 532 770 c 4
 532 811 545 845 571 874 c 4
 597 902 632 916 678 916 c 4
 732 916 771 900 792 867 c 5
 809 835 819 809 821 788 c 5
 842 805 858 837 870 885 c 5
 971 839 l 5
 964 803 951 774 933 752 c 4
 908 722 886 700 867 686 c 4
 845 669 828 659 816 657 c 5
678 719 m 4
 694 719 707 724 715 735 c 5
 725 743 731 756 731 772 c 4
 731 786 726 798 717 809 c 4
 708 819 695 823 678 823 c 4
 662 823 650 819 641 809 c 4
 632 799 627 787 627 772 c 4
 627 759 632 747 641 735 c 4
 652 724 664 719 678 719 c 4
114 583 m 4
 129 583 144 588 158 600 c 4
 168 612 174 626 174 645 c 4
 174 663 168 678 158 689 c 4
 146 700 132 706 114 706 c 4
 97 706 82 699 70 686 c 4
 58 676 53 662 53 645 c 4
 53 626 58 612 70 600 c 4
 82 588 96 583 114 583 c 4
EndSplineSet
EndChar
StartChar: uni0E2D
Encoding: 205 3629 174
Width: 785
Flags: HW
HStem: -1 120<244 505> 242 95<228 237> 457 94<226 237> 695 110<308 346>
VStem: 66 104<149 402> 66 134<149 244> 290 95<383 401> 538 137<174 553>
Fore
200 244 m 1
 200 186 l 2
 200 158 204 141 211 133 c 0
 219 123 237 119 267 119 c 2
 467 119 l 2
 497 119 517 123 527 133 c 0
 534 141 538 158 538 186 c 2
 538 533 l 2
 538 639 469 692 332 695 c 0
 288 695 247 686 207 668 c 1
 164 644 131 618 107 589 c 1
 21 659 l 1
 49 697 90 732 145 763 c 1
 199 790 263 805 337 805 c 4
 445 805 528 781 586 734 c 0
 645 687 675 621 675 535 c 2
 675 153 l 2
 675 92 663 52 640 31 c 0
 616 10 571 -1 505 -1 c 2
 235 -1 l 2
 191 -1 156 2 131 10 c 0
 107 16 90 30 80 52 c 0
 70 72 66 104 66 149 c 2
 66 385 l 2
 66 432 80 471 110 503 c 0
 140 535 179 551 228 551 c 0
 264 551 293 544 315 529 c 1
 339 515 357 497 369 473 c 0
 380 451 385 427 385 399 c 0
 385 357 371 320 343 288 c 0
 315 257 276 242 228 242 c 1
 211 244 l 1
 200 244 l 1
230 337 m 0
 248 337 263 343 277 355 c 1
 286 367 290 381 290 396 c 0
 290 414 286 429 277 440 c 1
 264 452 249 457 230 457 c 0
 214 457 199 451 186 438 c 0
 175 427 170 413 170 396 c 0
 170 381 175 367 186 355 c 0
 198 343 213 337 230 337 c 0
EndSplineSet
EndChar
StartChar: uni0E2E
Encoding: 206 3630 175
Width: 778
Flags: HW
HStem: -3 120<241 498> 184 95<205 217> 385 95<202 229> 513 86<289 306> 710 95<289 339>
VStem: 34 106<643 654> 59 104<312 334> 59 134<141 186> 270 95<322.072 335> 531 137<156 621>
Fore
769 732 m 1
 735 685 701 649 668 621 c 1
 668 152 l 2
 668 91 656 51 633 30 c 0
 609 8 564 -3 498 -3 c 2
 228 -3 l 2
 184 -3 149 1 124 9 c 0
 99 16 82 29 73 48 c 0
 63 68 59 100 59 143 c 2
 59 312 l 2
 59 359 72 399 100 432 c 0
 128 464 169 480 221 480 c 0
 263 480 297 466 323 438 c 0
 349 408 363 374 365 334 c 1
 365 294 352 259 327 228 c 0
 303 200 268 184 221 182 c 1
 207 184 l 2
 199 184 195 185 193 186 c 1
 193 159 l 2
 193 139 196 127 202 123 c 1
 213 119 233 117 260 117 c 2
 462 117 l 2
 493 117 512 122 520 132 c 0
 527 139 531 147 531 175 c 2
 531 555 l 1
 525 549 504 540 469 529 c 0
 436 518 381 513 304 513 c 0
 232 513 169 524 114 546 c 0
 60 566 34 599 34 645 c 0
 34 678 48 706 78 730 c 1
 103 755 138 774 182 786 c 0
 224 798 265 805 304 805 c 0
 384 805 448 794 498 772 c 0
 541 754 573 736 593 719 c 1
 609 733 636 765 674 814 c 1
 769 732 l 1
217 279 m 0
 234 279 247 284 255 295 c 0
 265 307 270 319 270 332 c 0
 270 346 265 359 255 369 c 0
 247 380 234 385 217 385 c 0
 199 385 186 381 177 372 c 0
 167 360 163 346 163 332 c 0
 163 319 168 307 179 295 c 0
 188 284 200 279 217 279 c 0
306 599 m 0
 358 597 405 603 447 617 c 0
 483 630 500 640 500 645 c 1
 493 655 474 668 443 684 c 0
 413 701 368 710 308 710 c 0
 270 710 232 704 195 694 c 0
 158 682 140 667 140 650 c 0
 140 618 195 601 306 599 c 0
EndSplineSet
EndChar
StartChar: uni0E2F
Encoding: 207 3631 176
Width: 743
Flags: HW
HStem: 333 120<292 323> 490 93<218 227> 706 97<209 227> 766 20G<500 632>
VStem: 281 95<645 656> 498 134<222 441 786 786>
Fore
34 606 m 5
 45 735 106 801 218 803 c 4
 246 803 273 796 297 782 c 5
 322 769 342 750 354 724 c 4
 369 698 376 672 376 645 c 4
 376 603 362 566 334 534 c 5
 305 505 266 490 218 490 c 5
 197 492 l 5
 182 492 l 5
 194 466 241 453 323 453 c 5
 370 460 412 496 447 560 c 4
 483 623 500 698 500 786 c 5
 632 786 l 5
 632 245 l 6
 632 164 614 103 577 64 c 5
 536 24 465 -8 364 -33 c 5
 336 74 l 5
 387 92 424 107 447 119 c 4
 470 132 484 146 489 164 c 4
 495 181 498 211 498 254 c 6
 498 441 l 5
 486 413 461 388 422 368 c 5
 383 345 340 333 292 333 c 5
 241 338 l 5
 180 351 130 382 91 430 c 4
 53 478 34 536 34 606 c 5
220 583 m 4
 237 583 252 589 264 601 c 4
 275 612 281 627 281 645 c 4
 281 664 275 678 264 689 c 4
 254 700 239 706 220 706 c 4
 204 706 190 700 177 687 c 4
 166 676 160 662 160 645 c 4
 160 627 166 612 177 601 c 4
 189 589 203 583 220 583 c 4
EndSplineSet
EndChar
StartChar: uni0E30
Encoding: 208 3632 177
Width: 585
Flags: HW
HStem: -0 113<161 216> 227 95<149 167> 465 111<161 216> 691 95<149 167>
VStem: 8 95<161.011 177 634 645.693>
Fore
159 322 m 0
 205 322 242 308 269 280 c 1
 295 252 309 217 311 174 c 1
 307 141 l 1
 302 110 l 1
 320 113 343 127 371 152 c 0
 399 178 413 231 413 312 c 1
 543 312 l 1
 543 216 518 140 468 83 c 0
 417 28 333 -0 216 -0 c 0
 161 -0 113 15 71 46 c 0
 29 76 8 118 8 172 c 0
 8 215 22 251 48 280 c 0
 74 308 110 322 159 322 c 0
159 786 m 0
 208 786 245 772 269 744 c 0
 295 718 309 682 311 636 c 1
 307 604 l 1
 302 574 l 1
 302 574 l 1
 335 585 l 1
 354 596 372 616 390 647 c 0
 405 677 413 719 413 775 c 1
 543 775 l 1
 543 707 533 653 512 611 c 0
 491 565 457 529 408 504 c 0
 359 478 295 465 216 465 c 0
 164 465 115 481 71 512 c 0
 25 542 4 582 6 634 c 0
 6 676 20 713 48 744 c 0
 73 772 110 786 159 786 c 0
161 113 m 0
 180 113 194 119 203 132 c 0
 212 143 216 156 216 172 c 0
 216 186 212 199 203 210 c 0
 194 221 181 227 161 227 c 0
 141 227 127 221 119 210 c 1
 109 199 103 187 103 172 c 0
 103 156 109 143 119 132 c 1
 128 119 142 113 161 113 c 0
161 576 m 0
 177 576 191 582 203 594 c 1
 212 606 216 619 216 634 c 0
 216 650 212 664 203 676 c 0
 194 686 181 691 161 691 c 0
 144 691 130 686 119 676 c 0
 109 665 103 651 103 634 c 0
 103 619 109 605 119 594 c 0
 131 582 145 576 161 576 c 0
EndSplineSet
EndChar
StartChar: uni0E31
Encoding: 209 3633 178
Width: 0
Flags: HW
HStem: 851 107<-207 -181> 1091 95<-343 -333>
VStem: -494 97<1026 1044> -285 85<1026 1044>
Fore
-343 1186 m 0
 -299 1186 -263 1172 -236 1142 c 1
 -212 1114 -200 1077 -200 1034 c 0
 -200 1021 -202 1007 -207 992 c 1
 -218 963 l 1
 -204 960 l 1
 -183 958 l 1
 -144 958 -102 972 -56 1001 c 0
 -11 1029 29 1082 65 1161 c 1
 178 1122 l 1
 162 1065 136 1018 100 978 c 1
 57 935 11 904 -37 883 c 0
 -94 862 -151 851 -207 851 c 1
 -257 853 l 1
 -319 860 -374 880 -421 912 c 1
 -470 941 -494 982 -494 1034 c 0
 -494 1077 -480 1114 -454 1142 c 0
 -427 1174 -390 1188 -343 1186 c 0
-340 981 m 0
 -323 981 -310 986 -299 996 c 0
 -289 1009 -285 1022 -285 1036 c 0
 -285 1052 -289 1065 -299 1076 c 0
 -310 1086 -323 1091 -340 1091 c 0
 -357 1091 -371 1086 -382 1076 c 0
 -392 1065 -397 1052 -397 1036 c 0
 -397 1022 -392 1009 -382 996 c 0
 -371 986 -357 981 -340 981 c 0
EndSplineSet
EndChar
StartChar: uni0E32
Encoding: 210 3634 179
Width: 650
Flags: HW
HStem: -1 21G<406 540> 699 106<251 271>
VStem: 406 134<-1 576>
Fore
-20 592 m 1
 -5 643 24 692 68 738 c 0
 113 783 180 805 269 805 c 0
 365 803 435 783 478 743 c 0
 520 704 540 645 540 567 c 2
 540 -1 l 1
 406 -1 l 1
 406 569 l 2
 406 656 356 699 255 699 c 0
 174 699 121 653 96 560 c 1
 -20 592 l 1
EndSplineSet
EndChar
StartChar: uni0E33
Encoding: 211 3635 180
Width: 674
Flags: HW
HStem: -1 21G<429 563> 699 106<263 297> 903 95<-255 -247> 1122 95<-265 -247>
VStem: -408 97<1062 1072> -191 93<1062 1072> 429 134<-1 576>
Fore
3 592 m 1
 18 643 48 692 92 738 c 0
 137 783 204 805 293 805 c 0
 389 803 459 783 502 744 c 0
 543 704 563 645 563 567 c 2
 563 -1 l 1
 429 -1 l 1
 429 570 l 2
 429 656 379 699 279 699 c 0
 198 699 145 653 120 560 c 1
 3 592 l 1
-253 1217 m 0
 -203 1217 -165 1202 -140 1172 c 1
 -112 1142 -98 1105 -98 1062 c 0
 -98 1017 -112 980 -140 950 c 0
 -169 919 -206 903 -253 903 c 0
 -300 903 -337 919 -366 950 c 0
 -394 980 -408 1017 -408 1062 c 0
 -408 1105 -394 1142 -366 1172 c 1
 -341 1202 -304 1217 -253 1217 c 0
-251 998 m 0
 -233 998 -218 1005 -207 1018 c 0
 -196 1028 -191 1043 -191 1062 c 0
 -191 1080 -196 1094 -207 1105 c 0
 -217 1116 -232 1122 -251 1122 c 0
 -272 1122 -287 1116 -295 1105 c 1
 -305 1094 -311 1080 -311 1062 c 0
 -311 1043 -305 1028 -295 1018 c 1
 -286 1005 -271 998 -251 998 c 0
EndSplineSet
EndChar
StartChar: uni0E34
Encoding: 212 3636 181
Width: 0
Flags: HW
HStem: 915 97<-506 -452.199>
Fore
-372 1177 m 5
 -314 1175 -266 1159 -226 1130 c 4
 -193 1108 -164 1077 -140 1037 c 5
 -120 1000 -108 963 -102 927 c 5
 -82 841 l 5
 -189 873 l 5
 -242 886 -299 897 -358 905 c 4
 -396 912 -447 915 -511 915 c 5
 -629 911 l 5
 -703 903 l 5
 -696 954 -677 1000 -647 1042 c 4
 -615 1084 -577 1116 -532 1139 c 4
 -485 1164 -432 1177 -372 1177 c 5
-372 1084 m 5
 -415 1084 -453 1076 -483 1061 c 4
 -517 1043 -537 1025 -543 1008 c 5
 -506 1012 l 5
 -451 1012 l 5
 -369 1008 l 5
 -323 1003 -287 996 -261 989 c 5
 -205 968 l 5
 -240 1036 -296 1075 -372 1084 c 5
EndSplineSet
EndChar
StartChar: uni0E35
Encoding: 213 3637 182
Width: 0
Flags: HW
HStem: 968 21G<-224 -224>
VStem: -231 121<1120 1259>
DStem: -461 1012 -461 1012 -527 1010 -391 1007
Fore
-393 1176 m 4
 -357 1176 -321 1168 -287 1153 c 5
 -261 1140 -242 1129 -231 1120 c 5
 -231 1259 l 5
 -110 1259 l 5
 -110 940 l 5
 -105 940 -97 905 -83 836 c 5
 -207 873 l 6
 -249 884 -305 895 -377 906 c 4
 -416 912 -467 915 -529 915 c 6
 -615 912 l 5
 -684 906 l 5
 -724 902 l 5
 -717 955 -699 1001 -668 1041 c 4
 -636 1085 -598 1117 -553 1138 c 5
 -503 1166 -449 1178 -393 1176 c 4
-393 1083 m 5
 -435 1083 -471 1076 -501 1060 c 4
 -536 1042 -556 1024 -562 1005 c 5
 -527 1010 l 5
 -461 1012 l 5
 -391 1007 l 5
 -302 993 l 5
 -245 975 l 5
 -224 968 l 5
 -224 968 l 5
 -258 1033 -314 1072 -393 1083 c 5
EndSplineSet
EndChar
StartChar: uni0E36
Encoding: 214 3638 183
Width: 0
Flags: HW
HStem: 914 97<-525 -470.872> 1082 93<-419 -392> 1182 90<-227 -209>
VStem: -178 92<1136 1157>
Fore
-86 1157 m 5
 -86 1088 -106 1044 -147 1022 c 5
 -114 956 l 5
 -100 923 -90 882 -83 835 c 5
 -209 872 l 6
 -249 883 -306 894 -377 905 c 4
 -416 911 -467 914 -530 914 c 6
 -616 912 l 5
 -683 905 l 5
 -722 902 l 5
 -713 956 -693 1002 -664 1040 c 5
 -636 1083 -599 1116 -551 1138 c 5
 -504 1163 -451 1175 -392 1175 c 5
 -364 1173 l 6
 -353 1170 -348 1169 -348 1168 c 4
 -324 1238 -280 1272 -215 1272 c 4
 -178 1272 -148 1262 -125 1243 c 5
 -103 1219 -90 1191 -86 1157 c 5
-394 1082 m 5
 -435 1082 -472 1075 -503 1060 c 4
 -536 1043 -556 1025 -562 1007 c 5
 -525 1011 l 5
 -470 1011 l 5
 -390 1007 l 5
 -355 1003 -318 996 -280 987 c 5
 -225 967 l 5
 -259 1033 -316 1071 -394 1082 c 5
-218 1102 m 4
 -206 1102 -197 1106 -189 1115 c 4
 -182 1123 -178 1132 -178 1142 c 4
 -178 1154 -181 1162 -187 1168 c 4
 -195 1177 -205 1182 -218 1182 c 4
 -244 1182 -257 1169 -257 1142 c 4
 -257 1115 -244 1102 -218 1102 c 4
EndSplineSet
EndChar
StartChar: uni0E37
Encoding: 215 3639 184
Width: 0
Flags: HW
HStem: 968 21G<-224 -224> 1083 93<-405 -388>
VStem: -227 116<1116 1259>
DStem: -461 1012 -461 1012 -527 1010 -391 1007
Fore
-227 1116 m 5
 -227 1259 l 5
 -111 1259 l 5
 -111 940 l 5
 -106 940 -97 905 -83 836 c 5
 -207 873 l 6
 -249 884 -305 895 -377 906 c 4
 -416 912 -467 915 -529 915 c 6
 -615 912 l 5
 -684 906 l 5
 -724 902 l 5
 -695 1015 -650 1088 -587 1123 c 4
 -525 1158 -458 1176 -388 1176 c 5
 -388 1259 l 5
 -280 1259 l 5
 -280 1149 l 5
 -256 1136 l 5
 -227 1116 l 5
-393 1083 m 5
 -435 1083 -471 1076 -501 1060 c 4
 -536 1042 -556 1024 -562 1005 c 5
 -527 1010 l 5
 -461 1012 l 5
 -391 1007 l 5
 -302 993 l 5
 -245 975 l 5
 -224 968 l 5
 -224 968 l 5
 -258 1033 -314 1072 -393 1083 c 5
EndSplineSet
EndChar
StartChar: uni0E38
Encoding: 216 3640 185
Width: 0
Flags: HW
HStem: -124 95<-278.25 -261>
VStem: -423 95<-186 -173> -235 125<-515 -173> -203 93<-196 -173>
Fore
-110 -515 m 5
 -235 -515 l 5
 -235 -339 l 5
 -291 -341 l 5
 -317 -339 -341 -330 -363 -314 c 5
 -382 -298 -397 -279 -408 -256 c 4
 -418 -236 -423 -212 -423 -186 c 4
 -423 -145 -409 -109 -381 -78 c 4
 -353 -45 -314 -29 -263 -29 c 4
 -235 -29 -210 -34 -189 -45 c 4
 -168 -55 -150 -72 -134 -96 c 4
 -118 -118 -110 -143 -110 -173 c 6
 -110 -515 l 5
-266 -246 m 4
 -247 -246 -232 -240 -220 -228 c 4
 -208 -217 -203 -203 -203 -186 c 4
 -203 -168 -208 -153 -220 -142 c 4
 -232 -130 -247 -124 -266 -124 c 4
 -284 -124 -299 -130 -311 -142 c 4
 -322 -153 -328 -168 -328 -186 c 4
 -328 -203 -322 -217 -311 -228 c 4
 -299 -240 -284 -246 -266 -246 c 4
EndSplineSet
EndChar
StartChar: uni0E39
Encoding: 217 3641 186
Width: 0
Flags: HW
HStem: -529 113<-275 -267> -122 93<-475.276 -458>
VStem: -620 95<-194 -171> -440 132<-398 -339> -400 92<-194 -173> -236 125<-386 -41>
Fore
-440 -398 m 6
 -440 -339 l 5
 -488 -341 l 5
 -514 -339 -539 -330 -560 -314 c 4
 -579 -299 -594 -280 -607 -256 c 5
 -616 -235 -620 -211 -620 -186 c 4
 -620 -144 -606 -108 -579 -78 c 4
 -551 -45 -511 -29 -461 -29 c 4
 -420 -29 -385 -42 -354 -69 c 4
 -323 -95 -308 -130 -308 -173 c 6
 -308 -376 l 6
 -308 -403 -295 -416 -271 -416 c 4
 -248 -416 -236 -403 -236 -378 c 6
 -236 -41 l 5
 -111 -41 l 5
 -111 -398 l 6
 -111 -437 -128 -468 -162 -493 c 4
 -195 -517 -233 -529 -273 -529 c 4
 -315 -529 -353 -517 -386 -493 c 4
 -422 -468 -440 -437 -440 -398 c 6
-463 -246 m 4
 -444 -246 -428 -239 -417 -226 c 5
 -406 -215 -400 -201 -400 -184 c 4
 -400 -168 -406 -154 -417 -140 c 4
 -429 -128 -444 -122 -463 -122 c 4
 -481 -122 -496 -128 -510 -140 c 5
 -520 -154 -525 -168 -525 -184 c 4
 -525 -201 -520 -215 -510 -226 c 4
 -497 -239 -481 -246 -463 -246 c 4
EndSplineSet
EndChar
StartChar: uni0E3A
Encoding: 218 3642 187
Width: 0
Flags: HW
Fore
-179 -61 m 4
 -164 -61 -150 -65 -137 -72 c 0
 -126 -79 -116 -89 -109 -103 c 0
 -103 -112 -100 -125 -100 -141 c 0
 -100 -162 -107 -181 -121 -198 c 0
 -134 -213 -153 -220 -179 -220 c 0
 -204 -220 -224 -213 -236 -198 c 0
 -252 -181 -260 -162 -260 -141 c 0
 -260 -120 -252 -101 -236 -83 c 0
 -224 -68 -204 -61 -179 -61 c 4
EndSplineSet
EndChar
StartChar: dottedcircle
Encoding: 221 9676 188
Width: 1269
VWidth: 1000
Flags: HW
HStem: -19 100<660 662> 31 100<460 470> 45 100<821.788 838> 153 100<328 338> 169 100<942 950> 343 100<990 998> 352 100<279 290> 523 100<942 950> 531 100<338 342> 643 100<805.788 822> 653 100<474 476> 699 100<647.788 663>
VStem: 229 100<402 404> 278 100<192.788 206> 288 100<581 590> 410 100<81 83> 424 100<703 705> 610 100<31 33 749 755> 766 100<693 703> 782 100<95 97> 892 100<208.788 222 562.788 583> 940 100<382.788 404>
Fore
323 603 m 6
459 725 m 6
445 103 m 6
313 225 m 6
817 117 m 6
927 241 m 6
927 595 m 6
801 715 m 6
975 415 m 6
264 424 m 6
643 771 m 6
338 631 m 0
 366 631 388 609 388 581 c 0
 388 553 366 531 338 531 c 0
 310 531 288 553 288 581 c 0
 288 609 310 631 338 631 c 0
338 581 m 0
 338 581 l 0
 338 581 l 0
 338 581 l 0
 338 581 l 0
474 753 m 0
 502 753 524 731 524 703 c 0
 524 675 502 653 474 653 c 0
 446 653 424 675 424 703 c 0
 424 731 446 753 474 753 c 0
474 703 m 0
 474 703 l 0
 474 703 l 0
 474 703 l 0
 474 703 l 0
460 131 m 0
 488 131 510 109 510 81 c 0
 510 53 488 31 460 31 c 0
 432 31 410 53 410 81 c 0
 410 109 432 131 460 131 c 0
460 81 m 0
 460 81 l 0
 460 81 l 0
 460 81 l 0
 460 81 l 0
328 253 m 0
 356 253 378 231 378 203 c 0
 378 175 356 153 328 153 c 0
 300 153 278 175 278 203 c 0
 278 231 300 253 328 253 c 0
328 203 m 0
 328 203 l 0
 328 203 l 0
 328 203 l 0
 328 203 l 0
832 145 m 0
 860 145 882 123 882 95 c 0
 882 67 860 45 832 45 c 0
 804 45 782 67 782 95 c 0
 782 123 804 145 832 145 c 0
832 95 m 0
 832 95 l 0
 832 95 l 0
 832 95 l 0
 832 95 l 0
942 269 m 0
 970 269 992 247 992 219 c 0
 992 191 970 169 942 169 c 0
 914 169 892 191 892 219 c 0
 892 247 914 269 942 269 c 0
942 219 m 0
 942 219 l 0
 942 219 l 0
 942 219 l 0
 942 219 l 0
942 623 m 0
 970 623 992 601 992 573 c 0
 992 545 970 523 942 523 c 0
 914 523 892 545 892 573 c 0
 892 601 914 623 942 623 c 0
942 573 m 0
 942 573 l 0
 942 573 l 0
 942 573 l 0
 942 573 l 0
816 743 m 0
 844 743 866 721 866 693 c 0
 866 665 844 643 816 643 c 0
 788 643 766 665 766 693 c 0
 766 721 788 743 816 743 c 0
816 693 m 0
 816 693 l 0
 816 693 l 0
 816 693 l 0
 816 693 l 0
990 443 m 0
 1018 443 1040 421 1040 393 c 0
 1040 365 1018 343 990 343 c 0
 962 343 940 365 940 393 c 0
 940 421 962 443 990 443 c 0
990 393 m 0
 990 393 l 0
 990 393 l 0
 990 393 l 0
 990 393 l 0
279 452 m 0
 307 452 329 430 329 402 c 0
 329 374 307 352 279 352 c 0
 251 352 229 374 229 402 c 0
 229 430 251 452 279 452 c 0
279 402 m 0
 279 402 l 0
 279 402 l 0
 279 402 l 0
 279 402 l 0
660 81 m 0
 688 81 710 59 710 31 c 0
 710 3 688 -19 660 -19 c 0
 632 -19 610 3 610 31 c 0
 610 59 632 81 660 81 c 0
660 31 m 0
 660 31 l 0
 660 31 l 0
 660 31 l 0
 660 31 l 0
658 799 m 0
 686 799 708 777 708 749 c 0
 708 721 686 699 658 699 c 0
 630 699 608 721 608 749 c 0
 608 777 630 799 658 799 c 0
658 749 m 0
 658 749 l 0
 658 749 l 0
 658 749 l 0
 658 749 l 0
EndSplineSet
EndChar
StartChar: uni0E3F
Encoding: 223 3647 189
Width: 891
Flags: HW
HStem: -20 20G<52 372> 797 164<52 372 465 501>
VStem: 52 197<0 413 0 797> 372 93<-81 0 164 413 577 797 961 1065> 606 189<685 709> 628 190<299 311>
Fore
372 797 m 1
 249 797 l 1
 249 577 l 1
 372 577 l 1
 372 797 l 1
372 413 m 1
 249 413 l 1
 249 164 l 1
 372 164 l 1
 372 413 l 1
465 797 m 1
 465 577 l 1
 473 577 l 2
 517 577 550 587 571 607 c 0
 594 628 606 654 606 685 c 0
 603 760 562 797 482 797 c 2
 465 797 l 1
465 413 m 1
 465 164 l 1
 480 164 l 2
 520 164 555 172 584 188 c 0
 616 205 630 242 628 299 c 0
 628 345 615 376 589 389 c 1
 564 405 529 413 485 413 c 2
 465 413 l 1
372 0 m 5
 52 0 l 1
 52 961 l 1
 372 961 l 1
 372 1065 l 1
 465 1065 l 1
 465 961 l 1
 478 961 l 2
 510 961 551 955 601 943 c 0
 647 930 682 911 707 886 c 1
 735 866 755 845 767 822 c 1
 783 769 l 1
 795 709 l 1
 795 673 788 639 772 607 c 1
 758 572 735 540 703 512 c 1
 733 490 758 462 779 426 c 0
 800 389 813 350 818 310 c 1
 818 254 811 207 795 170 c 0
 778 129 753 94 719 65 c 0
 667 22 589 0 485 0 c 2
 465 0 l 1
 465 -81 l 1
 372 -81 l 1
 372 0 l 5
EndSplineSet
EndChar
StartChar: uni0E40
Encoding: 224 3648 190
Width: 404
Flags: HW
HStem: -14 95<234 240> 201 97<214 240> 766 20G<80 214>
VStem: 80 95<129 148> 298 93<129 146>
Fore
236 -14 m 0
 187 -14 148 2 120 33 c 0
 93 63 80 101 80 146 c 2
 80 786 l 1
 214 786 l 1
 214 298 l 1
 236 298 l 2
 284 298 322 283 351 254 c 1
 375 228 389 192 391 146 c 1
 391 99 378 61 351 33 c 0
 325 2 287 -14 236 -14 c 0
238 81 m 0
 256 81 271 86 281 97 c 0
 293 108 298 122 298 141 c 0
 298 159 294 174 285 185 c 1
 273 196 258 201 238 201 c 0
 219 201 204 195 192 183 c 0
 181 172 175 158 175 141 c 0
 175 124 181 111 194 99 c 0
 206 87 221 81 238 81 c 0
EndSplineSet
EndChar
StartChar: uni0E41
Encoding: 225 3649 191
Width: 752
Flags: HW
HStem: -14 95<213 219 575.367 589> 201 97<193 219 566 589> 766 20G<59 193 432 566>
VStem: 59 95<129 148> 59 134<146 786> 277 93<129 146> 432 95<129 148> 432 134<146 786> 646 95<129 146>
Fore
215 -14 m 0
 166 -14 127 2 98 33 c 0
 72 63 59 101 59 146 c 2
 59 786 l 1
 193 786 l 5
 193 298 l 1
 215 298 l 2
 262 298 301 283 330 254 c 1
 354 228 368 192 370 146 c 1
 370 99 356 61 330 33 c 0
 304 2 265 -14 215 -14 c 0
586 -14 m 0
 536 -14 498 2 473 33 c 1
 446 61 432 99 432 146 c 2
 432 786 l 1
 566 786 l 1
 566 298 l 1
 586 298 l 2
 632 298 670 283 698 252 c 0
 725 223 739 188 741 146 c 1
 741 100 728 62 701 33 c 0
 672 2 634 -14 586 -14 c 0
217 81 m 0
 235 81 249 86 260 97 c 0
 271 108 277 122 277 141 c 0
 277 159 272 174 263 185 c 1
 252 196 237 201 217 201 c 0
 198 201 183 195 171 183 c 0
 159 172 154 158 154 141 c 0
 154 124 160 111 173 99 c 0
 185 87 200 81 217 81 c 0
586 81 m 0
 608 81 622 86 631 97 c 1
 641 108 646 122 646 141 c 0
 646 160 641 175 631 185 c 1
 622 196 608 201 586 201 c 0
 568 201 553 195 542 183 c 0
 532 172 527 158 527 141 c 0
 527 124 532 110 542 99 c 0
 556 87 571 81 586 81 c 0
EndSplineSet
EndChar
StartChar: uni0E42
Encoding: 226 3650 192
Width: 517
Flags: HW
HStem: -14 99<330 336> 196 102<309 336> 1247 115<382 400> 1310 114<169 177>
VStem: 175 99<139 148> 175 134<146 1091> 386 99<130.233 146>
Fore
309 1058 m 6
 309 298 l 5
 330 298 l 6
 379 298 418 283 446 252 c 4
 470 226 483 190 485 146 c 5
 485 101 473 64 446 33 c 4
 418 2 379 -14 330 -14 c 4
 282 -14 243 2 215 33 c 4
 188 64 175 101 175 146 c 6
 175 1062 l 6
 175 1089 174 1113 171 1132 c 5
 167 1143 158 1156 146 1168 c 4
 132 1180 110 1192 80 1206 c 6
 -81 1276 l 5
 -75 1285 -60 1302 -35 1324 c 4
 -14 1345 16 1368 55 1391 c 5
 97 1413 138 1424 177 1424 c 4
 206 1424 227 1421 241 1416 c 6
 312 1386 l 6
 347 1371 374 1362 391 1362 c 4
 413 1362 439 1374 471 1395 c 5
 517 1294 l 5
 475 1263 434 1247 393 1247 c 4
 361 1247 324 1257 284 1276 c 4
 246 1292 220 1302 206 1305 c 6
 173 1310 l 6
 164 1310 155 1308 146 1305 c 5
 133 1296 l 5
 191 1267 229 1247 250 1234 c 5
 268 1218 284 1198 296 1173 c 5
 305 1148 309 1110 309 1058 c 6
330 85 m 4
 349 85 363 91 372 102 c 4
 381 114 386 127 386 141 c 4
 386 155 381 169 372 181 c 4
 363 191 349 196 330 196 c 4
 313 196 300 191 291 181 c 5
 280 170 274 157 274 141 c 4
 274 125 280 112 291 102 c 5
 300 91 313 85 330 85 c 4
EndSplineSet
EndChar
StartChar: uni0E43
Encoding: 227 3651 193
Width: 519
Flags: HW
HStem: -14 99<334 343> 196 99<314 343> 1048 93<32 49> 1048 250<49 53> 1326 104<101 133>
VStem: -90 93<1178 1203> 69 90<1159 1180> 177 102<130.073 148> 177 137<145 1235> 391 99<129 145>
Fore
314 1219 m 6
 314 295 l 5
 334 295 l 6
 381 295 419 281 449 251 c 5
 474 224 488 188 490 145 c 5
 490 101 477 63 451 32 c 4
 422 1 383 -14 334 -14 c 4
 285 -14 246 1 217 32 c 4
 191 63 177 101 177 145 c 6
 177 1221 l 6
 177 1259 174 1286 168 1300 c 4
 161 1317 144 1326 118 1326 c 4
 93 1326 77 1323 71 1316 c 5
 61 1308 55 1302 53 1298 c 5
 88 1298 114 1285 131 1261 c 4
 150 1236 159 1203 159 1159 c 5
 152 1085 116 1048 49 1048 c 4
 18 1048 -8 1055 -31 1068 c 4
 -56 1083 -72 1102 -79 1126 c 4
 -87 1158 -90 1183 -90 1203 c 4
 -90 1265 -70 1318 -31 1362 c 4
 10 1407 60 1430 120 1430 c 4
 182 1430 230 1411 263 1372 c 4
 297 1334 314 1283 314 1219 c 6
334 85 m 4
 352 85 366 91 376 101 c 4
 386 112 391 125 391 141 c 4
 391 157 386 170 376 180 c 4
 366 191 352 196 334 196 c 4
 317 196 304 191 296 180 c 5
 285 170 279 157 279 141 c 4
 279 125 285 112 296 101 c 5
 304 91 317 85 334 85 c 4
34 1214 m 4
 26 1214 19 1210 11 1203 c 4
 5 1197 3 1189 3 1178 c 4
 3 1167 5 1158 11 1152 c 4
 19 1145 26 1141 34 1141 c 4
 57 1141 69 1153 69 1178 c 4
 69 1202 57 1214 34 1214 c 4
EndSplineSet
EndChar
StartChar: uni0E44
Encoding: 228 3652 194
Width: 590
Flags: HW
HStem: -14 99<395 413> 196 102<385 413>
VStem: 251 99<129 147> 251 134<145 1328> 462 99<129 145>
DStem: -38 1296 59 1351 36 1022 117 1141 184 1365 251 1216 117 1141 187 1002
Fore
251 1216 m 5
 187 1002 l 5
 174 962 150 942 115 942 c 4
 94 942 78 948 66 960 c 4
 53 975 43 996 36 1022 c 5
 -38 1296 l 5
 -45 1323 -60 1342 -84 1353 c 5
 -8 1430 l 5
 25 1416 48 1389 59 1351 c 5
 117 1141 l 5
 184 1365 l 6
 197 1407 229 1428 281 1428 c 4
 310 1428 334 1419 355 1402 c 4
 376 1386 385 1362 385 1328 c 6
 385 298 l 5
 404 298 l 6
 453 298 491 283 519 254 c 4
 545 227 559 191 561 145 c 5
 561 99 547 61 519 32 c 5
 492 1 454 -14 404 -14 c 4
 354 -14 316 1 291 32 c 4
 265 62 251 100 251 145 c 6
 251 1216 l 5
406 85 m 4
 426 85 440 91 448 101 c 4
 457 112 462 126 462 141 c 4
 462 156 457 169 448 180 c 4
 440 191 426 196 406 196 c 4
 387 196 373 191 364 180 c 4
 355 169 350 156 350 141 c 4
 350 126 355 112 364 101 c 4
 373 91 387 85 406 85 c 4
EndSplineSet
EndChar
StartChar: uni0E45
Encoding: 229 3653 195
Width: 650
Flags: HW
HStem: 699 106<251 271>
VStem: 406 134<-410 583>
Fore
-20 592 m 1
 -5 643 24 691 68 737 c 0
 113 783 180 805 269 805 c 0
 365 803 435 782 478 743 c 0
 520 703 540 644 540 567 c 2
 540 -410 l 5
 406 -410 l 5
 406 569 l 2
 406 656 356 699 255 699 c 0
 174 699 121 653 96 560 c 1
 -20 592 l 1
EndSplineSet
EndChar
StartChar: uni0E46
Encoding: 230 3654 196
Width: 851
Flags: HW
HStem: 323 97<365 373> 503 99<365 373>
VStem: 407 97<460 469> 608 134<-45 585>
Fore
356 686 m 5
 332 675 315 658 305 633 c 5
 296 618 290 601 286 582 c 5
 314 595 l 6
 325 600 342 602 365 602 c 4
 409 602 444 590 469 566 c 5
 492 539 504 506 504 467 c 4
 504 427 492 393 469 365 c 5
 443 337 409 323 365 323 c 4
 308 325 261 346 224 385 c 4
 186 425 166 478 164 542 c 4
 164 607 183 664 221 714 c 4
 258 762 305 792 360 805 c 5
 427 772 l 6
 453 758 467 750 467 746 c 5
 557 805 l 5
 621 792 669 766 700 725 c 5
 728 685 742 633 742 571 c 6
 742 -43 l 6
 742 -117 717 -175 665 -217 c 5
 610 -259 545 -287 469 -300 c 5
 434 -182 l 5
 504 -158 l 6
 543 -146 570 -132 584 -114 c 5
 600 -99 608 -72 608 -34 c 6
 608 557 l 6
 608 596 605 623 599 637 c 4
 591 656 577 672 557 686 c 5
 467 628 l 5
 467 628 l 5
 425 649 l 5
 356 686 l 5
365 420 m 4
 378 420 387 425 394 434 c 5
 403 441 407 450 407 462 c 4
 407 476 403 485 396 491 c 4
 389 499 378 503 365 503 c 4
 351 503 340 499 332 491 c 4
 326 485 323 476 323 462 c 4
 323 451 327 441 334 434 c 4
 341 425 351 420 365 420 c 4
EndSplineSet
EndChar
StartChar: uni0E47
Encoding: 231 3655 197
Width: 0
Flags: HW
HStem: 837 88<-247.544 -225> 956 108<-472 -457> 1002 85<-245.932 -225> 1106 99<-334 -296> 1110 104<-470 -424>
VStem: -685 120<1011 1046> -199 88<965 977>
Fore
-236 837 m 4
 -259 837 -279 843 -298 856 c 5
 -318 867 -340 881 -364 899 c 4
 -387 919 -406 933 -421 943 c 4
 -436 951 -452 956 -470 956 c 4
 -485 956 -499 942 -512 916 c 5
 -522 890 -528 862 -528 832 c 5
 -560 832 l 5
 -593 848 -622 878 -647 923 c 5
 -672 961 -685 1002 -685 1046 c 4
 -685 1069 -681 1089 -673 1108 c 4
 -658 1146 -633 1174 -599 1192 c 4
 -571 1207 -528 1214 -470 1214 c 6
 -442 1214 l 5
 -421 1212 l 6
 -380 1208 -343 1205 -309 1205 c 4
 -269 1205 -240 1212 -225 1226 c 4
 -206 1242 -196 1271 -196 1312 c 5
 -83 1312 l 5
 -83 1238 -102 1186 -139 1154 c 4
 -176 1122 -237 1106 -324 1106 c 4
 -356 1106 -389 1107 -424 1110 c 5
 -476 1110 -513 1104 -534 1091 c 4
 -555 1078 -565 1052 -565 1011 c 5
 -563 1019 -553 1030 -537 1046 c 5
 -520 1058 -494 1064 -459 1064 c 4
 -425 1064 -401 1059 -386 1048 c 4
 -372 1038 -360 1028 -349 1018 c 5
 -333 1064 -295 1087 -236 1087 c 4
 -195 1087 -164 1075 -143 1053 c 4
 -121 1029 -111 1000 -111 965 c 4
 -111 930 -122 900 -146 874 c 4
 -168 849 -198 837 -236 837 c 4
-236 925 m 4
 -211 925 -199 938 -199 965 c 4
 -199 977 -202 986 -208 992 c 4
 -214 999 -223 1002 -236 1002 c 4
 -248 1002 -258 998 -266 990 c 4
 -273 983 -276 975 -276 965 c 4
 -276 938 -262 925 -236 925 c 4
EndSplineSet
EndChar
StartChar: uni0E48
Encoding: 232 3656 198
Width: 0
Flags: HW
VStem: -231 121<1297 1568>
Fore
-231 1297 m 1
 -231 1568 l 1
 -110 1568 l 1
 -110 1297 l 5
 -231 1297 l 1
EndSplineSet
EndChar
StartChar: uni0E49
Encoding: 233 3657 199
Width: 0
Flags: HW
HStem: 1552 80<-298 -276>
VStem: -405 79<1504 1524> -247 88<1503 1518>
Fore
-159 1503 m 4
 -161 1465 -166 1438 -173 1422 c 4
 -180 1403 -187 1393 -193 1391 c 6
 -162 1399 l 6
 -144 1404 -127 1411 -111 1422 c 4
 -96 1432 -82 1446 -69 1464 c 4
 -52 1490 -43 1513 -41 1533 c 4
 -38 1561 -36 1591 -36 1623 c 5
 75 1623 l 5
 75 1477 27 1382 -67 1338 c 4
 -122 1312 -183 1299 -250 1299 c 5
 -307 1304 l 5
 -339 1309 l 5
 -339 1347 l 5
 -314 1364 l 6
 -304 1372 -298 1381 -296 1391 c 5
 -332 1402 l 6
 -353 1408 -370 1421 -383 1440 c 4
 -397 1461 -405 1486 -405 1515 c 4
 -405 1547 -393 1575 -370 1598 c 5
 -349 1621 -321 1632 -284 1632 c 4
 -244 1632 -213 1619 -191 1594 c 5
 -170 1564 -159 1534 -159 1503 c 4
-286 1473 m 4
 -274 1473 -264 1477 -257 1484 c 4
 -251 1490 -247 1500 -247 1512 c 4
 -247 1523 -251 1532 -259 1540 c 4
 -266 1548 -275 1552 -286 1552 c 4
 -312 1552 -326 1539 -326 1512 c 4
 -326 1503 -322 1494 -314 1484 c 4
 -307 1477 -297 1473 -286 1473 c 4
EndSplineSet
EndChar
StartChar: uni0E4A
Encoding: 234 3658 200
Width: 0
Flags: HW
HStem: 1285 68<-430 -424> 1519 81<-426 -404>
VStem: -397 72<1373 1388> -221 87<1437 1468> -78 91<1519 1542>
Fore
-426 1285 m 4
 -463 1285 -495 1302 -521 1335 c 4
 -547 1372 -559 1412 -557 1454 c 4
 -557 1490 -545 1525 -521 1558 c 5
 -497 1586 -466 1600 -426 1600 c 4
 -400 1600 -380 1595 -365 1586 c 5
 -348 1571 -339 1563 -338 1560 c 5
 -338 1560 -327 1569 -305 1586 c 4
 -291 1595 -273 1600 -252 1600 c 4
 -214 1600 -185 1588 -164 1565 c 4
 -144 1541 -134 1508 -134 1468 c 4
 -134 1440 -136 1421 -141 1412 c 4
 -145 1401 -152 1386 -161 1368 c 5
 -159 1369 -151 1375 -136 1386 c 5
 -122 1395 -112 1407 -106 1421 c 4
 -89 1458 -80 1491 -78 1519 c 4
 -78 1536 -80 1554 -84 1572 c 5
 3 1604 l 5
 9 1584 13 1563 13 1542 c 4
 13 1482 -3 1428 -36 1380 c 5
 -61 1346 -91 1325 -124 1317 c 4
 -166 1305 -213 1299 -265 1299 c 5
 -265 1317 l 5
 -267 1333 l 5
 -240 1368 l 5
 -228 1387 -221 1410 -221 1437 c 4
 -221 1461 -223 1479 -228 1494 c 5
 -236 1507 -250 1514 -270 1514 c 4
 -287 1514 -299 1511 -305 1505 c 4
 -313 1499 -320 1493 -325 1486 c 5
 -325 1486 l 5
 -325 1488 -333 1494 -349 1503 c 4
 -364 1513 -382 1519 -404 1519 c 4
 -439 1519 -457 1503 -460 1472 c 5
 -446 1477 l 5
 -413 1479 l 5
 -385 1477 -364 1467 -349 1450 c 5
 -333 1428 -325 1404 -325 1375 c 4
 -325 1352 -335 1332 -353 1313 c 4
 -374 1294 -399 1285 -426 1285 c 4
-428 1412 m 4
 -449 1412 -460 1402 -460 1382 c 4
 -460 1362 -449 1353 -428 1353 c 4
 -408 1353 -397 1362 -397 1382 c 4
 -397 1402 -408 1412 -428 1412 c 4
EndSplineSet
EndChar
StartChar: uni0E4B
Encoding: 235 3659 201
Width: 0
Flags: HW
HStem: 1409 106<-347 -232 -116 0>
VStem: -232 116<1309 1409 1515 1617>
Fore
-232 1409 m 5
 -347 1409 l 5
 -347 1515 l 5
 -232 1515 l 5
 -232 1617 l 5
 -116 1617 l 5
 -116 1515 l 5
 0 1515 l 5
 0 1409 l 5
 -116 1409 l 5
 -116 1309 l 5
 -232 1309 l 5
 -232 1409 l 5
EndSplineSet
EndChar
StartChar: uni0E4C
Encoding: 236 3660 202
Width: 0
Flags: HW
HStem: 1237 79<-180 -172> 1392 77<-180 -171>
VStem: -324 104<1356 1378> -143 82<1356 1366>
Fore
-3 1482 m 4
 5 1484 -35 1480 -123 1471 c 5
 -171 1469 l 5
 -137 1469 -110 1459 -90 1438 c 4
 -70 1416 -61 1391 -61 1363 c 4
 -59 1329 -68 1301 -90 1277 c 4
 -112 1250 -140 1237 -174 1237 c 4
 -219 1235 -255 1248 -282 1277 c 5
 -310 1302 -324 1336 -324 1378 c 4
 -324 1456 -294 1508 -233 1535 c 4
 -203 1549 -166 1557 -120 1559 c 4
 -78 1561 -44 1567 -19 1575 c 4
 2 1582 12 1602 12 1635 c 5
 109 1635 l 5
 109 1594 99 1561 81 1535 c 5
 63 1505 35 1487 -3 1482 c 4
-180 1392 m 4
 -207 1392 -220 1380 -220 1356 c 4
 -220 1329 -207 1316 -180 1316 c 4
 -170 1316 -161 1320 -153 1328 c 4
 -146 1334 -143 1344 -143 1356 c 4
 -143 1366 -146 1374 -153 1381 c 4
 -161 1388 -170 1392 -180 1392 c 4
EndSplineSet
EndChar
StartChar: uni0E4D
Encoding: 237 3661 203
Width: 0
Flags: HW
HStem: 903 95<-251.495 -237> 1121 95<-252.308 -237>
VStem: -397 97<1047.33 1064> -179 95<1048.27 1064>
Fore
-240 1216 m 4
 -192 1216 -153 1201 -124 1170 c 5
 -97 1137 -84 1101 -84 1061 c 4
 -84 1021 -98 983 -126 949 c 5
 -155 918 -193 903 -240 903 c 4
 -287 903 -326 918 -355 949 c 5
 -383 982 -397 1019 -397 1061 c 4
 -397 1103 -383 1140 -355 1170 c 4
 -326 1201 -287 1216 -240 1216 c 4
-240 998 m 4
 -222 998 -207 1004 -196 1017 c 4
 -185 1028 -179 1042 -179 1061 c 4
 -179 1078 -185 1091 -196 1102 c 4
 -207 1115 -222 1121 -240 1121 c 4
 -258 1121 -273 1115 -284 1104 c 4
 -295 1094 -300 1079 -300 1061 c 4
 -300 1042 -295 1028 -284 1017 c 4
 -271 1004 -257 998 -240 998 c 4
EndSplineSet
EndChar
StartChar: uni0E4E
Encoding: 238 3662 204
Width: 0
Flags: HW
HStem: 919 81<-372 -345> 1127 112<-343 -323> 1254 102<-157 -125>
VStem: -515 124<1046 1065> -289 92<1180 1230>
Fore
-16 1195 m 1
 -31 1199 l 2
 -39 1203 -45 1207 -49 1213 c 0
 -60 1225 -70 1235 -77 1241 c 0
 -90 1250 -106 1254 -125 1254 c 0
 -143 1254 -159 1248 -173 1236 c 0
 -189 1224 -197 1205 -197 1180 c 0
 -197 1166 -191 1149 -180 1131 c 0
 -175 1126 -173 1116 -173 1102 c 0
 -173 1093 -178 1085 -188 1077 c 0
 -197 1070 -205 1067 -213 1067 c 0
 -228 1067 -241 1075 -250 1091 c 0
 -260 1107 -271 1117 -283 1121 c 0
 -291 1125 -305 1127 -323 1127 c 0
 -341 1127 -357 1121 -370 1109 c 0
 -384 1097 -391 1080 -391 1058 c 0
 -391 1041 -386 1028 -376 1017 c 0
 -367 1006 -357 1000 -345 1000 c 0
 -328 1000 -315 1004 -306 1010 c 1
 -285 1032 l 1
 -250 1018 l 1
 -259 967 l 1
 -287 935 -325 919 -372 919 c 0
 -415 919 -450 933 -477 962 c 0
 -503 990 -515 1024 -515 1065 c 1
 -511 1104 l 1
 -511 1105 l 1
 -509 1119 -503 1132 -495 1146 c 0
 -479 1175 -457 1197 -430 1214 c 0
 -403 1230 -374 1239 -343 1239 c 0
 -325 1239 -308 1236 -289 1230 c 1
 -289 1265 -277 1295 -251 1319 c 0
 -225 1344 -193 1356 -157 1356 c 0
 -127 1356 -99 1350 -73 1339 c 0
 -47 1328 -26 1310 -9 1285 c 0
 -4 1279 1 1269 7 1254 c 0
 12 1243 14 1233 14 1224 c 0
 14 1204 4 1195 -16 1195 c 1
EndSplineSet
EndChar
StartChar: uni0E4F
Encoding: 239 3663 205
Width: 741
Flags: HW
HStem: 0 88<348 374> 172 92<340 358> 530 83<340 358> 698 88<348 374>
VStem: -43 86<393 417> 129 87<383 401> 478 90<383 401> 656 85<393 417>
Fore
347 530 m 4
 275 530 216 470 216 397 c 0
 216 324 275 264 347 264 c 0
 419 264 478 324 478 397 c 4
 478 470 419 530 347 530 c 4
348 -0 m 0
 227 -0 131 39 61 117 c 0
 -8 197 -43 289 -43 393 c 0
 -43 501 -9 593 59 671 c 0
 126 748 223 786 348 786 c 0
 431 786 503 768 564 731 c 1
 624 692 668 643 697 585 c 0
 726 526 741 462 741 393 c 0
 741 323 726 259 697 201 c 0
 668 143 624 94 564 55 c 1
 503 18 431 -0 348 -0 c 0
348 698 m 0
 251 698 177 668 124 609 c 0
 70 546 43 474 43 393 c 0
 43 340 54 290 78 243 c 0
 100 196 135 159 182 132 c 1
 226 103 282 88 348 88 c 0
 414 88 471 103 517 132 c 0
 565 162 600 200 624 245 c 0
 645 289 656 339 656 393 c 0
 656 475 629 547 575 609 c 0
 522 668 447 698 348 698 c 0
348 172 m 0
 303 172 263 182 228 203 c 0
 193 226 169 254 154 287 c 0
 137 321 129 357 129 393 c 0
 129 428 137 464 154 499 c 0
 168 532 193 559 228 581 c 0
 264 602 304 613 348 613 c 0
 393 613 433 602 469 581 c 0
 503 560 527 533 542 499 c 0
 560 465 568 429 568 393 c 0
 568 334 549 283 511 238 c 0
 471 194 416 172 348 172 c 0
EndSplineSet
EndChar
StartChar: uni0E50
Encoding: 240 3664 206
Width: 761
Flags: HW
HStem: -5 118<362 385> 452 121<362 385>
VStem: 32 139<284 300> 557 138<266 300>
Fore
362 -5 m 4
 259 -5 178 24 119 83 c 4
 61 141 32 208 32 284 c 4
 32 335 44 382 68 425 c 4
 94 470 132 506 182 534 c 5
 233 560 293 573 362 573 c 4
 431 573 491 560 543 534 c 4
 595 505 633 469 659 425 c 4
 683 382 695 335 695 284 c 4
 695 235 682 188 657 143 c 4
 630 98 592 63 543 37 c 4
 491 9 430 -5 362 -5 c 4
362 452 m 4
 302 452 255 435 222 402 c 4
 188 368 171 329 171 284 c 4
 171 237 188 197 222 163 c 5
 253 129 300 113 362 113 c 4
 424 113 471 129 505 163 c 4
 540 198 557 237 557 282 c 4
 557 328 540 368 505 402 c 4
 472 435 424 452 362 452 c 4
EndSplineSet
EndChar
StartChar: uni0E51
Encoding: 241 3665 207
Width: 781
Flags: HW
HStem: 463 124<358 372>
VStem: 35 127<270 287> 206 110<251 256> 405 112<243 256> 581 132<252 272>
Fore
162 282 m 4
 162 242 172 209 194 183 c 5
 218 157 240 143 259 143 c 5
 248 146 238 155 227 172 c 4
 215 187 208 214 206 252 c 5
 206 293 220 329 250 358 c 4
 281 389 317 404 358 404 c 4
 411 406 451 391 479 358 c 4
 504 329 517 290 517 243 c 4
 517 181 496 129 455 86 c 5
 417 42 360 20 285 20 c 5
 207 29 146 55 102 99 c 4
 57 144 35 206 35 287 c 4
 35 344 50 395 79 439 c 4
 110 488 150 524 199 548 c 4
 248 574 301 587 358 587 c 4
 474 585 562 555 620 497 c 4
 682 435 713 354 713 252 c 4
 715 122 655 10 532 -81 c 5
 449 2 l 5
 487 32 519 68 543 113 c 4
 568 155 581 201 581 252 c 4
 581 293 572 330 556 361 c 4
 539 392 514 417 479 435 c 4
 440 454 400 463 358 463 c 4
 300 463 254 446 220 412 c 4
 183 378 164 334 162 282 c 4
358 298 m 4
 345 298 336 294 329 285 c 5
 320 276 316 265 316 254 c 4
 316 244 320 234 329 222 c 4
 336 213 345 208 358 208 c 4
 375 208 386 213 393 222 c 4
 401 232 405 243 405 254 c 4
 405 267 400 278 391 287 c 4
 383 294 372 298 358 298 c 4
EndSplineSet
EndChar
StartChar: uni0E52
Encoding: 242 3666 208
Width: 932
Flags: HW
HStem: -1 120<301 641> 150 99<369 380> 353 97<371 391> 467 120<658 687> 472 115<413 435>
VStem: 56 134<242 656> 208 121<302 328> 433 97<293 304> 711 137<190 414>
Fore
535 386 m 5
 501 443 464 472 424 472 c 4
 410 472 398 469 389 465 c 5
 371 450 l 5
 402 450 431 443 457 430 c 5
 479 416 497 397 512 372 c 5
 524 347 530 320 530 293 c 4
 528 249 513 215 486 189 c 5
 461 163 424 150 373 150 c 4
 325 150 286 166 257 200 c 4
 224 237 208 279 208 328 c 4
 208 402 229 464 269 513 c 4
 309 562 359 587 417 587 c 4
 457 587 487 579 510 562 c 4
 527 548 540 534 550 520 c 5
 556 531 569 545 590 562 c 4
 613 579 645 587 687 587 c 4
 748 587 790 568 813 531 c 4
 836 495 848 456 848 414 c 6
 848 182 l 6
 848 124 832 78 802 46 c 4
 771 15 716 -1 639 -1 c 6
 318 -1 l 6
 220 -1 152 18 115 57 c 4
 75 96 56 159 56 244 c 6
 56 635 l 6
 56 664 52 689 44 710 c 4
 36 732 21 750 -2 763 c 5
 100 847 l 5
 128 831 150 810 165 783 c 4
 182 753 190 719 190 684 c 6
 190 275 l 6
 190 220 197 180 212 154 c 5
 228 131 263 119 316 119 c 6
 616 119 l 6
 656 119 683 126 695 141 c 4
 706 153 711 179 711 217 c 6
 711 386 l 6
 711 417 708 438 702 448 c 4
 695 461 681 467 658 467 c 4
 638 467 622 462 612 452 c 4
 600 440 592 428 588 414 c 5
 579 388 l 5
 535 386 l 5
380 353 m 4
 362 353 349 348 341 337 c 4
 333 327 329 316 329 302 c 4
 329 289 334 277 343 266 c 5
 349 255 361 249 380 249 c 4
 415 251 433 268 433 300 c 4
 433 313 429 326 420 337 c 4
 411 348 398 353 380 353 c 4
EndSplineSet
EndChar
StartChar: uni0E53
Encoding: 243 3667 209
Width: 903
Flags: HW
HStem: -5 104<205 223> -1 21G<391 525 627 766> 201 106<218 223> 472 115<265 287>
VStem: 30 137<150 309> 30 139<298 316> 269 104<140 150> 391 134<-1 348> 693 131<256 316>
Fore
280 472 m 4
 206 472 169 414 169 298 c 5
 181 302 l 6
 187 305 199 307 218 307 c 4
 268 307 305 291 331 258 c 5
 361 224 375 185 373 141 c 5
 373 96 357 62 326 37 c 5
 296 9 257 -5 208 -5 c 4
 87 -5 28 100 30 309 c 4
 30 351 40 396 60 444 c 5
 82 489 109 523 143 548 c 4
 179 574 220 587 267 587 c 4
 325 587 369 575 398 552 c 5
 427 532 446 514 454 497 c 5
 454 502 459 512 470 527 c 4
 480 542 496 556 519 569 c 4
 540 581 570 587 607 587 c 4
 688 587 744 556 775 494 c 4
 810 429 826 353 824 266 c 4
 822 148 802 59 766 -1 c 5
 627 -1 l 5
 646 24 661 63 671 117 c 4
 685 179 693 236 693 289 c 4
 693 339 685 382 671 416 c 4
 658 449 636 465 607 465 c 4
 577 465 555 454 541 432 c 4
 531 413 525 380 525 333 c 6
 525 -1 l 5
 391 -1 l 5
 391 337 l 6
 391 377 381 410 361 435 c 4
 341 459 314 472 280 472 c 4
218 201 m 4
 200 201 187 196 181 187 c 4
 172 176 167 163 167 150 c 4
 167 138 172 127 181 115 c 4
 187 104 199 99 218 99 c 4
 234 99 246 104 254 115 c 4
 264 127 269 138 269 150 c 4
 269 163 265 175 256 187 c 5
 247 196 235 201 218 201 c 4
EndSplineSet
EndChar
StartChar: uni0E54
Encoding: 244 3668 210
Width: 917
Flags: HW
HStem: -6 130<317 379> 325 111<415 434> 462 124<367 386>
VStem: 16 138<263 288> 268 108<279 286> 469 108<275 288>
Fore
154 277 m 0
 154 217 177 176 224 154 c 0
 266 134 318 124 379 124 c 1
 340 135 312 155 293 182 c 0
 276 208 268 241 268 279 c 0
 268 316 281 352 308 387 c 0
 333 420 370 436 421 436 c 0
 473 436 511 420 536 387 c 0
 564 353 577 318 577 284 c 0
 577 252 572 227 560 209 c 0
 551 198 541 188 529 180 c 1
 554 161 581 151 611 149 c 2
 712 138 l 1
 753 130 792 116 830 94 c 1
 779 -24 l 1
 762 -10 739 2 708 10 c 0
 668 18 633 22 604 22 c 0
 571 22 527 18 469 8 c 0
 416 -1 365 -6 317 -6 c 4
 279 -6 242 0 206 12 c 0
 169 25 137 44 109 69 c 0
 80 92 58 123 41 160 c 0
 24 197 16 240 16 288 c 0
 16 342 30 392 57 438 c 0
 85 484 126 520 180 547 c 0
 234 573 298 586 370 586 c 1
 441 582 l 1
 499 576 541 573 566 573 c 0
 621 575 663 585 692 603 c 1
 720 618 742 650 759 698 c 0
 774 745 785 810 789 895 c 1
 918 880 l 1
 918 850 916 815 911 776 c 0
 906 732 896 686 882 639 c 0
 865 590 841 551 809 522 c 0
 754 471 687 445 611 445 c 0
 585 445 555 448 520 453 c 1
 485 455 456 458 432 460 c 2
 386 462 l 1
 320 462 265 448 220 420 c 1
 174 389 152 341 154 277 c 0
423 230 m 0
 454 230 469 247 469 279 c 0
 469 290 465 300 458 312 c 0
 451 321 440 325 423 325 c 0
 406 325 395 321 388 312 c 0
 380 298 376 287 376 279 c 0
 376 268 380 257 388 244 c 0
 395 235 406 230 423 230 c 0
EndSplineSet
EndChar
StartChar: uni0E55
Encoding: 245 3669 211
Width: 944
Flags: HW
HStem: -6 130<321 383> 325 111<419 441> 445 128<581 615> 672 113<423 434>
VStem: 20 139<263 288> 272 106<279 286> 274 111<624 633> 473 108<275 288> 480 112<616.312 633>
Fore
581 573 m 1
 686 573 749 622 769 721 c 0
 781 777 789 835 793 895 c 1
 922 880 l 1
 917 816 l 2
 915 783 911 749 904 714 c 0
 896 673 885 638 871 610 c 1
 856 572 837 542 813 522 c 0
 758 471 691 445 615 445 c 0
 588 445 559 448 526 453 c 1
 438 460 l 1
 392 462 l 1
 324 462 269 448 226 420 c 0
 179 388 157 340 159 277 c 0
 159 219 182 178 228 156 c 0
 274 135 326 124 383 124 c 1
 344 135 316 155 297 182 c 0
 280 208 272 241 272 279 c 0
 272 316 285 352 312 387 c 0
 337 420 374 436 425 436 c 0
 477 436 515 420 540 387 c 0
 568 353 581 318 581 284 c 0
 581 252 576 227 564 209 c 0
 555 198 545 188 533 180 c 1
 558 161 585 151 615 149 c 2
 716 138 l 1
 756 130 796 116 835 94 c 1
 784 -24 l 1
 764 -10 740 0 712 8 c 0
 676 18 642 22 608 22 c 0
 575 22 531 18 473 8 c 0
 420 -1 369 -6 321 -6 c 0
 283 -6 246 0 210 12 c 0
 173 25 141 44 113 69 c 1
 86 91 63 121 45 160 c 0
 28 197 20 240 20 288 c 0
 20 393 53 465 120 506 c 0
 184 547 238 571 281 577 c 1
 277 595 274 612 274 628 c 0
 274 674 291 712 323 742 c 0
 352 771 389 785 434 785 c 0
 481 783 519 768 548 739 c 0
 577 710 592 673 592 628 c 0
 592 609 588 591 581 573 c 1
427 230 m 0
 458 230 473 247 473 279 c 0
 473 290 469 300 462 312 c 0
 455 321 444 325 427 325 c 0
 412 325 399 321 390 312 c 1
 382 298 378 287 378 279 c 0
 378 247 395 230 427 230 c 0
431 580 m 0
 447 580 460 584 469 593 c 1
 476 604 480 615 480 626 c 0
 480 639 476 651 469 661 c 1
 459 668 447 672 431 672 c 0
 418 672 407 668 398 659 c 0
 389 649 385 638 385 626 c 0
 385 617 389 606 398 593 c 1
 407 584 418 580 431 580 c 0
EndSplineSet
EndChar
StartChar: uni0E56
Encoding: 246 3670 212
Width: 678
Flags: HW
HStem: -15 21G<289 351> 244 110<235 246> 480 132<313 379>
VStem: 75 112<184 203> 284 113<185 212> 518 133<279 301>
Fore
381 122 m 1
 386 122 400 128 423 140 c 0
 442 151 463 170 484 196 c 0
 485 197 486 198 487 200 c 0
 507 225 518 258 518 299 c 0
 515 361 498 406 467 436 c 0
 433 467 382 482 313 480 c 0
 276 480 243 471 214 453 c 0
 182 433 164 420 158 413 c 1
 107 413 l 1
 105 455 98 502 85 552 c 0
 68 616 51 669 34 711 c 0
 12 763 -8 805 -27 836 c 1
 89 892 l 1
 101 876 121 828 149 749 c 1
 179 661 197 602 205 572 c 1
 266 599 324 612 379 612 c 0
 439 612 488 598 527 570 c 0
 567 542 598 504 619 457 c 1
 640 407 651 355 651 301 c 0
 651 192 616 112 545 63 c 1
 475 11 396 -15 306 -15 c 0
 272 -15 237 -7 200 10 c 0
 165 26 135 50 110 80 c 1
 86 110 75 145 75 186 c 0
 75 230 89 269 117 303 c 0
 147 340 188 357 240 354 c 0
 268 354 295 347 320 332 c 1
 343 322 362 305 376 281 c 0
 388 261 394 238 397 212 c 1
 397 183 395 161 392 146 c 1
 381 122 l 1
235 146 m 0
 251 146 263 152 271 163 c 0
 280 173 284 184 284 195 c 0
 284 227 268 244 235 244 c 0
 203 244 187 227 187 195 c 0
 187 183 191 172 200 163 c 1
 206 152 218 146 235 146 c 0
EndSplineSet
EndChar
StartChar: uni0E57
Encoding: 247 3671 213
Width: 935
Flags: HW
HStem: -5 104<217 232> 191 106<217 232> 457 116<217 237> 457 121<491 509>
VStem: -4 132<295 325> 267 104<145 154> 575 128<307 337> 732 128<529 641> 740 127<367 435>
Fore
652 154 m 5
 687 171 710 198 721 235 c 4
 733 279 740 328 740 383 c 6
 740 434 l 5
 734 529 l 5
 732 622 l 5
 732 743 755 829 802 881 c 5
 857 850 l 5
 913 818 l 5
 877 776 860 707 860 609 c 5
 862 552 l 5
 864 494 l 5
 867 448 l 5
 867 395 l 6
 867 336 860 281 848 229 c 4
 837 182 814 140 781 103 c 4
 757 77 720 52 670 29 c 4
 616 5 579 -10 557 -16 c 5
 480 68 l 5
 500 84 517 107 531 138 c 5
 546 166 557 196 564 229 c 4
 571 261 575 292 575 322 c 4
 575 361 569 393 557 420 c 4
 546 444 526 457 497 457 c 4
 444 457 418 413 418 326 c 5
 312 326 l 5
 309 355 301 385 286 415 c 5
 274 443 255 457 228 457 c 4
 199 457 174 440 156 406 c 4
 138 371 128 338 128 307 c 4
 128 290 131 278 135 269 c 5
 138 276 145 282 156 288 c 4
 167 294 190 297 226 297 c 4
 274 297 310 283 334 253 c 4
 359 224 371 188 371 145 c 4
 371 102 358 67 332 39 c 4
 306 9 268 -5 219 -5 c 4
 174 -5 133 10 98 41 c 4
 63 72 37 110 22 156 c 4
 5 204 -4 253 -4 304 c 4
 -4 349 7 394 29 439 c 4
 49 478 79 511 117 538 c 4
 152 562 190 573 232 573 c 4
 276 573 308 565 327 547 c 4
 345 531 357 517 362 503 c 5
 371 518 385 534 404 549 c 5
 424 568 456 578 501 578 c 4
 549 578 587 565 617 540 c 4
 649 513 671 482 681 450 c 5
 695 416 703 378 703 335 c 4
 703 303 699 272 691 242 c 5
 665 174 l 5
 658 161 654 154 652 154 c 5
 652 154 l 5
221 99 m 4
 235 99 246 103 256 112 c 5
 264 122 267 133 267 145 c 4
 267 153 264 164 256 177 c 5
 246 186 235 191 221 191 c 4
 206 191 195 186 188 177 c 4
 181 167 177 156 177 145 c 4
 177 133 181 122 188 112 c 4
 195 103 206 99 221 99 c 4
EndSplineSet
EndChar
StartChar: uni0E58
Encoding: 248 3672 214
Width: 888
Flags: HW
HStem: -21 113<579 601> -21 226<601 624> -3 301<263 283.081> 298 105<613 634> 423 120<616 635> 445 123<339 371>
VStem: 20 133<268 295> 473 106<251 262> 670 136<180 251>
Fore
436 202 m 1
 494 128 546 92 593 92 c 1
 614 94 l 1
 623 101 l 1
 580 101 544 116 517 147 c 1
 485 179 471 216 473 260 c 0
 473 296 489 330 522 363 c 1
 552 390 586 403 625 403 c 0
 661 403 693 393 720 372 c 0
 747 352 768 324 785 286 c 0
 799 252 806 217 806 180 c 0
 806 120 787 72 749 36 c 1
 710 -2 661 -21 601 -21 c 0
 555 -21 514 -13 477 3 c 1
 441 24 397 63 348 120 c 0
 328 144 313 156 303 156 c 0
 293 156 288 146 288 127 c 0
 288 109 292 87 301 61 c 0
 311 38 322 16 334 -3 c 5
 172 -3 l 1
 71 87 20 186 20 295 c 1
 31 383 67 451 128 498 c 0
 189 545 265 568 358 568 c 1
 427 564 l 1
 510 553 l 1
 570 545 l 1
 616 543 l 1
 684 543 720 567 727 615 c 1
 729 663 l 1
 729 687 727 712 723 737 c 1
 711 809 l 1
 702 855 l 1
 829 855 l 1
 834 847 841 815 848 758 c 0
 856 697 859 651 857 619 c 0
 855 550 835 499 797 467 c 0
 763 437 708 423 632 423 c 0
 589 423 529 428 455 438 c 0
 424 443 396 445 371 445 c 0
 313 445 267 436 232 418 c 0
 198 399 175 370 163 330 c 0
 157 307 153 287 153 268 c 0
 153 232 163 205 184 186 c 1
 184 203 189 223 199 246 c 0
 209 271 230 289 263 298 c 1
 300 298 334 288 364 270 c 1
 397 246 421 223 436 202 c 1
623 205 m 0
 640 205 651 209 658 219 c 0
 666 229 670 240 670 251 c 0
 670 264 666 276 658 286 c 0
 651 293 639 298 623 298 c 0
 610 298 600 293 590 286 c 1
 583 276 579 264 579 251 c 0
 579 240 583 229 590 219 c 0
 598 209 609 205 623 205 c 0
EndSplineSet
EndChar
StartChar: uni0E59
Encoding: 249 3673 215
Width: 805
Flags: HW
HStem: -17 118<295 323> 195 111<323 335> 440 130<275 303>
VStem: 14 128<268 288> 369 111<142 151>
DStem: 431 357 570 374 628 -13 751 47
Fore
179 387 m 1
 154 358 142 322 142 281 c 0
 142 261 146 239 153 217 c 0
 160 195 166 184 170 184 c 1
 177 215 193 244 219 270 c 0
 243 294 278 306 323 306 c 0
 359 306 388 298 411 283 c 0
 434 266 451 247 462 226 c 0
 472 204 478 179 480 151 c 1
 480 99 462 58 427 29 c 0
 391 -2 347 -17 295 -17 c 0
 243 -17 188 2 131 40 c 0
 76 77 40 127 25 188 c 0
 18 211 14 241 14 279 c 0
 14 340 30 396 61 447 c 0
 91 495 136 530 195 552 c 0
 228 564 260 570 292 570 c 0
 338 570 373 562 396 547 c 1
 426 529 443 516 449 508 c 1
 457 556 481 579 522 579 c 0
 555 579 584 570 610 552 c 1
 631 535 645 526 652 526 c 0
 665 526 672 554 672 610 c 0
 670 668 661 724 646 778 c 0
 630 831 621 857 619 857 c 2
 747 857 l 1
 755 838 763 812 771 780 c 0
 784 732 790 690 790 654 c 0
 793 582 787 521 771 469 c 0
 760 426 730 403 681 401 c 0
 664 401 642 409 614 427 c 1
 587 442 569 449 559 449 c 1
 552 447 549 441 549 431 c 1
 556 405 564 386 570 374 c 2
 751 47 l 1
 628 -13 l 1
 431 357 l 1
 419 384 399 405 374 420 c 0
 347 434 321 440 295 440 c 0
 245 440 206 423 179 387 c 1
323 101 m 0
 339 101 350 105 357 114 c 0
 365 124 369 136 369 149 c 0
 369 162 365 174 357 184 c 0
 349 191 338 195 323 195 c 0
 306 195 295 191 288 182 c 0
 280 172 277 161 277 149 c 0
 277 139 280 127 288 114 c 0
 295 105 306 101 323 101 c 0
EndSplineSet
EndChar
StartChar: uni0E5A
Encoding: 250 3674 216
Width: 836
Flags: HW
HStem: -50 106<346 387> 515 98<198 203> 710 95<192 199> 781 20G<638 641>
VStem: 450 130<157 415> 655 132<125 653>
Fore
197 710 m 4
 173 710 160 699 150 659 c 5
 152 631 162 620 198 613 c 5
 213 613 225 618 233 625 c 5
 238 634 243 647 245 662 c 5
 242 697 234 707 197 710 c 4
559 766 m 5
 589 785 l 4
 603 793 619 798 638 801 c 4
 641 801 l 4
 693 801 735 784 762 747 c 4
 771 734 777 717 783 694 c 4
 783 693 783 693 783 692 c 4
 787 653 l 4
 787 652 787 652 787 651 c 4
 787 159 l 4
 788 64 740 -6 651 -39 c 4
 650 -39 650 -39 649 -39 c 4
 622 -49 l 4
 613 -50 604 -49 598 -41 c 4
 566 25 l 4
 562 41 551 47 566 55 c 4
 582 60 l 4
 592 62 599 65 605 70 c 4
 640 99 l 4
 648 106 654 118 655 125 c 5
 655 645 l 4
 655 660 652 666 651 667 c 4
 645 675 638 679 618 679 c 4
 599 680 585 668 580 660 c 5
 580 170 l 4
 580 112 564 61 530 19 c 4
 494 -26 445 -50 387 -50 c 4
 380 -50 376 -47 372 -41 c 4
 331 31 l 4
 328 51 327 48 346 56 c 4
 372 56 398 68 426 96 c 4
 441 111 450 134 450 172 c 4
 450 415 l 5
 450 415 450 400 404 376 c 4
 371 353 329 343 279 343 c 4
 197 343 130 373 85 432 c 4
 44 485 24 554 24 637 c 4
 24 638 24 638 24 639 c 4
 28 684 47 723 80 756 c 4
 113 788 154 805 199 805 c 4
 222 805 242 801 254 796 c 5
 306 780 342 750 343 665 c 4
 343 624 330 588 304 559 c 4
 277 530 242 515 201 515 c 4
 164 515 l 5
 161 527 l 5
 173 496 l 5
 180 483 189 475 194 471 c 5
 237 457 l 5
 275 453 l 5
 301 454 319 461 340 477 c 5
 371 511 l 5
 405 569 l 4
 416 589 424 614 429 641 c 5
 438 750 l 4
 438 751 438 751 438 752 c 4
 442 783 469 805 500 803 c 4
 515 803 529 800 541 791 c 4
 544 788 l 4
 557 770 l 4
 558 769 558 768 559 767 c 4
 559 766 l 5
EndSplineSet
EndChar
StartChar: uni0E5B
Encoding: 251 3675 217
Width: 1483
Flags: HW
HStem: 51 99<313 330> 307 86<1226 1468> 313 80<1423.33 1468> 455 65<264 270> 645 98<283 297>
VStem: 25 96<386 420> 168 76<401 420> 414 96<466 500>
Fore
354 334 m 1
 394 365 414 416 414 487 c 0
 414 592 370 645 283 645 c 0
 234 645 193 615 161 555 c 0
 134 505 121 453 121 399 c 0
 121 337 137 282 169 233 c 0
 206 178 254 150 313 150 c 0
 396 150 455 196 492 289 c 0
 512 338 533 406 555 492 c 2
 608 696 l 1
 662 696 l 1
 723 428 l 1
 764 666 l 1
 819 666 l 1
 872 418 l 1
 942 639 l 1
 1012 434 l 1
 1061 592 l 1
 1117 462 1159 396 1188 395 c 2
 1227 393 l 1
 1468 393 l 1
 1468 313 l 1
 1200 307 l 1
 1139 313 l 1
 1124 317 1109 328 1096 346 c 1
 1098 354 l 1
 1083 362 l 1
 1010 127 l 1
 946 344 l 1
 870 119 l 1
 799 340 l 1
 756 96 l 1
 700 96 l 1
 633 412 l 1
 597 291 565 210 537 168 c 0
 485 90 410 51 313 51 c 0
 222 51 149 88 96 161 c 0
 49 226 25 306 25 401 c 0
 25 487 46 563 88 629 c 0
 136 705 201 743 283 743 c 0
 354 743 411 717 452 666 c 0
 491 619 510 558 510 485 c 0
 510 418 496 362 467 315 c 0
 432 258 383 229 322 229 c 0
 278 229 240 250 207 291 c 1
 181 332 168 368 168 401 c 0
 168 433 176 460 193 482 c 0
 211 507 235 520 266 520 c 0
 299 520 326 508 345 486 c 0
 364 462 373 434 371 401 c 2
 369 367 l 2
 368 356 363 345 354 334 c 1
244 401 m 0
 244 360 255 340 276 340 c 0
 285 340 290 345 291 354 c 1
 295 401 l 1
 298 434 289 452 270 455 c 1
 253 455 244 437 244 401 c 0
EndSplineSet
EndChar
StartChar: uni0E38.low
Encoding: 252 63256 218
Width: 0
Flags: HW
HStem: -500 93<-372.841 -355>
VStem: -517 95<-562 -551> -298 93<-574 -549>
Fore
-205 -893 m 5
 -332 -893 l 5
 -332 -716 l 5
 -385 -718 l 5
 -428 -711 -460 -693 -482 -665 c 4
 -505 -635 -517 -600 -517 -562 c 4
 -517 -519 -502 -483 -473 -453 c 4
 -444 -422 -406 -407 -358 -407 c 4
 -330 -407 -305 -413 -283 -424 c 4
 -263 -435 -244 -452 -228 -475 c 5
 -213 -500 -205 -525 -205 -551 c 6
 -205 -893 l 5
-360 -625 m 4
 -340 -625 -325 -619 -314 -606 c 4
 -303 -595 -298 -581 -298 -562 c 4
 -298 -544 -303 -529 -314 -519 c 4
 -325 -506 -340 -500 -360 -500 c 4
 -379 -500 -395 -506 -406 -519 c 4
 -417 -532 -422 -546 -422 -562 c 4
 -422 -581 -417 -595 -406 -606 c 4
 -395 -619 -379 -625 -360 -625 c 4
EndSplineSet
EndChar
StartChar: uni0E39.low
Encoding: 253 63257 219
Width: 0
Flags: HW
HStem: -908 114<-280 -269> -500 93<-479 -461>
VStem: -622 95<-562 -549> -441 131<-776 -716> -405 95<-573 -549> -240 127<-765 -416>
Fore
-441 -776 m 6
 -441 -716 l 5
 -490 -718 l 5
 -533 -711 -565 -693 -587 -665 c 4
 -611 -635 -622 -600 -622 -562 c 4
 -622 -519 -608 -483 -578 -454 c 4
 -550 -423 -511 -407 -463 -407 c 4
 -435 -407 -410 -413 -388 -424 c 4
 -368 -435 -350 -452 -333 -475 c 5
 -318 -500 -310 -525 -310 -551 c 6
 -310 -754 l 6
 -310 -780 -298 -794 -273 -794 c 4
 -251 -794 -240 -780 -240 -754 c 6
 -240 -416 l 5
 -113 -416 l 5
 -113 -776 l 6
 -113 -802 -122 -826 -139 -847 c 4
 -153 -866 -174 -881 -201 -891 c 4
 -226 -902 -252 -908 -278 -908 c 4
 -317 -908 -354 -896 -388 -873 c 5
 -424 -846 -441 -814 -441 -776 c 6
-465 -625 m 4
 -447 -625 -432 -619 -421 -606 c 4
 -411 -596 -405 -581 -405 -562 c 4
 -405 -544 -411 -530 -421 -519 c 4
 -432 -506 -447 -500 -465 -500 c 4
 -485 -500 -500 -506 -512 -519 c 4
 -522 -532 -527 -546 -527 -562 c 4
 -527 -581 -522 -596 -512 -606 c 4
 -500 -619 -485 -625 -465 -625 c 4
EndSplineSet
EndChar
StartChar: uni0E3A.low
Encoding: 254 63258 220
Width: 28
Flags: HW
Fore
-319 -407 m 4
 -301 -407 -287 -410 -277 -416 c 4
 -267 -422 -257 -433 -249 -449 c 4
 -243 -461 -240 -474 -240 -488 c 4
 -240 -509 -247 -527 -261 -544 c 4
 -274 -559 -293 -566 -319 -566 c 4
 -344 -566 -364 -559 -376 -544 c 4
 -392 -527 -400 -509 -400 -488 c 4
 -400 -466 -392 -447 -376 -429 c 4
 -364 -414 -344 -407 -319 -407 c 4
EndSplineSet
EndChar
StartChar: exclamdown
Encoding: 256 161 221
Width: 265
Flags: HW
HStem: 599 146<29 226>
Fore
226 745 m 1
 226 599 l 1
 29 599 l 1
 29 745 l 1
 226 745 l 1
197 516 m 1
 241 25 l 1
 241 -179 l 1
 15 -179 l 1
 15 25 l 1
 56 516 l 1
 197 516 l 1
EndSplineSet
EndChar
StartChar: cent
Encoding: 257 162 222
Width: 632
Flags: HW
HStem: 6 139<307 330> 612 128<280 301>
VStem: -39 146<328 394>
DStem: 122 38 261 15 37 -225 175 -247 298 610 449 590 158 173 310 149 428 991 564 970 346 736 483 713
Fore
449 590 m 1
 310 149 l 1
 323 145 l 1
 419 145 475 196 492 299 c 1
 634 267 l 1
 619 190 583 128 524 79 c 0
 466 30 394 6 307 6 c 0
 297 6 283 8 266 13 c 2
 261 15 l 1
 175 -247 l 1
 37 -225 l 1
 122 38 l 1
 40 76 -10 143 -29 238 c 0
 -35 274 -39 319 -39 370 c 0
 -39 477 -12 563 42 630 c 0
 103 703 190 740 301 740 c 1
 346 736 l 1
 428 991 l 1
 564 970 l 1
 483 713 l 1
 537 694 574 658 594 604 c 0
 600 589 606 570 611 548 c 1
 617 519 l 1
 482 491 l 1
 470 562 l 1
 469 563 l 1
 469 564 l 1
 468 565 l 1
 468 566 l 1
 464 575 458 583 449 590 c 1
298 610 m 1
 294 612 l 2
 169 615 107 537 107 378 c 0
 107 298 112 245 122 221 c 0
 129 200 141 184 158 173 c 1
 298 610 l 1
EndSplineSet
EndChar
StartChar: sterling
Encoding: 258 163 223
Width: 619
Flags: HW
HStem: -9 107<443 453> 323 99<-15 98 204 370> 647 108<291 325>
VStem: 44 131<522 550> 104 128<260 278>
Fore
204 422 m 1
 370 422 l 1
 370 323 l 1
 222 323 l 1
 228 311 232 293 232 271 c 2
 232 209 l 1
 229 190 211 166 178 135 c 1
 218 145 l 1
 226 146 l 2
 237 146 255 141 279 130 c 0
 290 126 300 122 310 120 c 0
 376 106 421 98 444 98 c 0
 471 98 508 108 555 127 c 1
 582 23 l 1
 524 2 478 -9 443 -9 c 1
 393 -4 l 1
 319 13 l 1
 243 32 l 1
 189 35 l 1
 127 35 69 20 16 -11 c 1
 -28 82 l 1
 60 126 104 192 104 278 c 1
 98 323 l 1
 -15 323 l 1
 -15 422 l 1
 72 422 l 1
 54 477 44 518 44 544 c 0
 44 608 69 659 120 697 c 1
 167 736 229 755 304 755 c 0
 453 755 538 691 560 563 c 1
 442 525 l 1
 431 583 410 619 378 634 c 0
 360 642 337 647 308 647 c 0
 267 647 231 634 201 609 c 0
 184 596 175 573 175 542 c 0
 175 546 175 540 175 522 c 0
 175 506 180 485 190 459 c 0
 195 446 200 433 204 422 c 1
EndSplineSet
EndChar
StartChar: currency
Encoding: 259 164 224
Width: 679
Flags: HW
HStem: 92 157<301 326> 438 165<293 326>
VStem: 46 172<328 352> 411 180<330 352>
Fore
91 468 m 1
 0 550 l 1
 96 646 l 1
 187 561 l 1
 227 586 262 600 292 603 c 2
 293 603 l 2
 296 603 299 603 303 604 c 2
 318 604 l 2
 356 604 394 593 430 571 c 2
 447 561 l 1
 537 646 l 1
 642 549 l 1
 554 467 l 1
 576 435 589 402 591 370 c 1
 591 369 l 1
 591 350 l 2
 591 302 586 268 577 248 c 1
 561 222 l 1
 649 138 l 1
 544 41 l 1
 453 127 l 1
 422 105 383 94 337 92 c 2
 318 92 l 2
 267 92 226 101 196 118 c 0
 191 121 186 124 181 128 c 1
 91 42 l 1
 -11 141 l 1
 79 224 l 1
 58 255 46 291 46 332 c 1
 46 333 l 1
 46 334 l 1
 46 335 l 1
 46 336 l 1
 46 350 l 2
 46 382 56 415 77 449 c 1
 91 468 l 1
218 344 m 0
 218 318 226 295 244 277 c 0
 263 259 286 249 313 249 c 0
 341 249 364 259 382 277 c 0
 401 295 411 318 411 344 c 0
 411 370 401 393 382 411 c 0
 363 429 340 438 313 438 c 0
 286 438 264 429 246 411 c 0
 227 393 218 370 218 344 c 0
EndSplineSet
EndChar
StartChar: yen
Encoding: 260 165 225
Width: 863
Flags: HW
HStem: 0 21G<335 480> 177 125<0 335 480 809> 360 131<0 335 535 809>
VStem: 335 145<0 177 302 360>
DStem: -49 949 130 949 276 491 364 614
Fore
335 0 m 1
 335 177 l 1
 0 177 l 1
 0 302 l 1
 335 302 l 1
 335 360 l 1
 0 360 l 1
 0 491 l 1
 276 491 l 1
 -49 949 l 1
 130 949 l 1
 364 614 l 1
 405 536 l 1
 446 622 l 1
 668 949 l 1
 860 949 l 1
 535 491 l 1
 809 491 l 1
 809 360 l 1
 480 360 l 1
 480 302 l 1
 809 302 l 1
 809 177 l 1
 480 177 l 1
 480 0 l 1
 335 0 l 1
EndSplineSet
EndChar
StartChar: brokenbar
Encoding: 261 166 226
Width: 173
Flags: HW
VStem: 10 144<-294 138 327 759>
Fore
154 759 m 1
 154 327 l 1
 10 327 l 1
 10 759 l 1
 154 759 l 1
154 138 m 1
 154 -294 l 1
 10 -294 l 1
 10 138 l 1
 154 138 l 1
EndSplineSet
EndChar
StartChar: section
Encoding: 262 167 227
Width: 808
Flags: HW
HStem: -229 126<364 397> 944 20G<340 424.5>
VStem: -29 232<404 428> 550 182<-27 2> 582 206<304 318>
Fore
24 -8 m 1
 199 8 l 1
 225 -35 246 -62 261 -74 c 2
 263 -75 l 2
 283 -88 317 -98 365 -103 c 1
 414 -103 455 -94 491 -77 c 0
 530 -58 550 -32 550 2 c 0
 550 20 541 35 524 48 c 1
 524 48 l 1
 522 48 l 2
 512 57 487 71 447 91 c 1
 259 177 l 2
 170 217 106 251 68 278 c 0
 3 324 -29 374 -29 428 c 0
 -29 515 35 573 162 600 c 1
 89 649 52 700 52 752 c 0
 52 811 85 859 150 896 c 0
 209 930 256 950 291 958 c 0
 310 962 330 964 350 964 c 0
 499 964 605 923 668 843 c 0
 692 811 708 774 716 733 c 1
 550 714 l 1
 529 755 511 782 495 793 c 0
 475 808 444 817 403 821 c 0
 367 823 329 816 287 797 c 1
 261 784 247 759 246 723 c 0
 246 709 256 696 277 684 c 0
 239 705 259 694 338 653 c 2
 359 643 l 1
 493 564 l 1
 592 521 658 488 691 466 c 0
 756 422 788 373 788 318 c 0
 788 240 724 181 597 142 c 1
 687 94 732 37 732 -27 c 0
 732 -91 696 -142 625 -180 c 0
 563 -212 487 -229 397 -229 c 0
 182 -229 58 -155 24 -8 c 1
493 227 m 1
 553 249 582 275 582 306 c 0
 582 340 527 380 415 427 c 1
 366 449 325 469 293 487 c 1
 233 463 203 435 203 404 c 0
 203 370 254 332 355 289 c 0
 419 263 465 242 493 227 c 1
EndSplineSet
EndChar
StartChar: dieresis
Encoding: 263 168 228
Width: 531
Flags: HW
HStem: 787 146<13 189 313 487>
Fore
13 787 m 1
 13 933 l 1
 189 933 l 1
 189 787 l 1
 13 787 l 1
313 787 m 1
 313 933 l 1
 487 933 l 1
 487 787 l 1
 313 787 l 1
EndSplineSet
EndChar
StartChar: copyright
Encoding: 264 169 229
Width: 798
Flags: HW
HStem: -1 105<375 398> 172 95<364 384> 525 104<364 384> 700 104<375 398>
VStem: -35 113<382 416> 160 105<382 403> 671 116<382 416>
Fore
375 804 m 0
 491 804 588 765 668 687 c 1
 747 611 787 515 787 401 c 0
 787 290 747 196 665 117 c 1
 586 38 489 -1 375 -1 c 0
 260 -1 164 37 84 115 c 0
 5 193 -35 289 -35 401 c 0
 -35 515 4 611 82 689 c 0
 161 766 259 804 375 804 c 0
375 700 m 0
 292 700 222 671 165 613 c 0
 107 555 78 484 78 400 c 0
 78 316 107 246 165 188 c 0
 222 132 292 104 375 104 c 0
 458 104 529 132 585 188 c 0
 642 246 671 316 671 400 c 0
 671 483 642 553 585 611 c 0
 527 671 457 700 375 700 c 0
471 346 m 1
 575 317 l 1
 547 220 480 172 375 172 c 0
 307 172 254 193 217 236 c 0
 179 278 160 333 160 401 c 0
 160 469 180 524 219 566 c 0
 258 608 312 629 382 629 c 0
 477 629 539 587 566 502 c 1
 466 462 l 1
 449 504 419 525 375 525 c 0
 339 525 311 512 291 485 c 0
 274 460 265 430 265 394 c 0
 265 309 300 267 370 267 c 0
 423 267 457 293 471 346 c 1
EndSplineSet
EndChar
